<svg width="24" height="24" viewBox="0 0 24 24" fill="none" xmlns="http://www.w3.org/2000/svg">
<path fill-rule="evenodd" clip-rule="evenodd" d="M13.5 1C13.6326 1 13.7597 1.05272 13.8535 1.14648L18.8535 6.14648C18.9473 6.24025 19 6.36739 19 6.5V11.5C19 11.7761 18.7761 12 18.5 12C18.2239 12 18 11.7761 18 11.5V7H15.5C14.1193 7 13 5.88071 13 4.5V2H3.5C2.67157 2 2 2.67157 2 3.5V20.5C2 21.3284 2.67157 22 3.5 22H15.5C15.7761 22 16 22.2239 16 22.5C16 22.7761 15.7761 23 15.5 23H3.5C2.11929 23 1 21.8807 1 20.5V3.5C1 2.11929 2.11929 1 3.5 1H13.5ZM14 4.5C14 5.32843 14.6716 6 15.5 6H17.293L14 2.70703V4.5Z" fill="black"/>
<path d="M17.5 13C17.7761 13 18 13.2239 18 13.5V17H21.5C21.7761 17 22 17.2239 22 17.5C22 17.7761 21.7761 18 21.5 18H18V21.5C18 21.7761 17.7761 22 17.5 22C17.2239 22 17 21.7761 17 21.5V18H13.5C13.2239 18 13 17.7761 13 17.5C13 17.2239 13.2239 17 13.5 17H17V13.5C17 13.2239 17.2239 13 17.5 13Z" fill="black"/>
</svg>
