<svg width="24" height="24" viewBox="0 0 24 24" fill="none" xmlns="http://www.w3.org/2000/svg">
<path d="M9 1C11.4836 1 13.5 3.23675 13.5 6C13.5 7.07707 13.1933 8.07445 12.6719 8.89062C12.5324 9.10898 12.3775 9.31444 12.209 9.50488L12.0361 9.69043L12.2656 9.80664C12.4935 9.92704 12.7137 10.0602 12.9258 10.2041L13.2412 10.4307C14.6814 11.5291 15.6826 13.1734 15.9365 15.0557L15.9795 15.4619L15.9775 15.5635C15.9483 15.7942 15.7595 15.9807 15.5186 15.999C15.2778 16.0171 15.0637 15.8612 15 15.6377L14.9824 15.5381L14.9463 15.1895C14.7289 13.5779 13.871 12.1683 12.6348 11.2256L12.3643 11.0312C12.1826 10.908 11.9938 10.7945 11.7988 10.6914L11.6016 10.5918C10.9843 10.2942 10.8425 9.47768 11.3232 8.98926L11.46 8.84277C11.5936 8.69173 11.7171 8.52779 11.8291 8.35254C12.2475 7.69755 12.5 6.88685 12.5 6C12.5 3.69098 10.8381 2 9 2C7.16185 2 5.5 3.69098 5.5 6C5.5 6.88685 5.75246 7.69755 6.1709 8.35254L6.28613 8.52344C6.40577 8.69105 6.53654 8.84678 6.67676 8.98926L6.75977 9.08496C7.11252 9.54527 6.9963 10.2161 6.50879 10.5303L6.39844 10.5918C6.19917 10.6879 6.00576 10.7943 5.81934 10.9111L5.63574 11.0312C4.04315 12.1121 3 13.9343 3 16V19.5C3 20.3284 3.67157 21 4.5 21H13.5C14.3284 21 15 20.3284 15 19.5C15 19.2239 15.2239 19 15.5 19C15.7761 19 16 19.2239 16 19.5C16 20.8807 14.8807 22 13.5 22H4.5C3.11929 22 2 20.8807 2 19.5V16C2 13.5891 3.21904 11.4631 5.07422 10.2041L5.28906 10.0635C5.43404 9.97266 5.58252 9.88688 5.73438 9.80664L5.96387 9.69043C5.78642 9.5101 5.62225 9.31405 5.47266 9.10449L5.32812 8.89062C4.80674 8.07445 4.5 7.07707 4.5 6C4.5 3.23675 6.51637 1 9 1Z" fill="black"/>
<path d="M17.5 13C17.7761 13 18 13.2239 18 13.5V17H21.5C21.7761 17 22 17.2239 22 17.5C22 17.7761 21.7761 18 21.5 18H18V21.5C18 21.7761 17.7761 22 17.5 22C17.2239 22 17 21.7761 17 21.5V18H13.5C13.2239 18 13 17.7761 13 17.5C13 17.2239 13.2239 17 13.5 17H17V13.5C17 13.2239 17.2239 13 17.5 13Z" fill="black"/>
</svg>
