<svg width="24" height="24" viewBox="0 0 24 24" fill="none" xmlns="http://www.w3.org/2000/svg">
<path fill-rule="evenodd" clip-rule="evenodd" d="M15.6835 4.22164C15.9689 4.6783 15.83 5.27981 15.3733 5.56516L1.60411 14.1691C1.14745 14.4545 0.545938 14.3156 0.260588 13.859C-0.0247613 13.4023 0.114109 12.8008 0.570764 12.5154L14.34 3.91147C14.7966 3.62612 15.3982 3.76499 15.6835 4.22164ZM23.226 4.42275C23.5113 4.87941 23.3724 5.48092 22.9158 5.76627L1.9386 18.8743C1.48194 19.1596 0.880428 19.0207 0.595078 18.5641C0.309729 18.1074 0.448599 17.5059 0.905254 17.2206L21.8824 4.11258C22.3391 3.82723 22.9406 3.9661 23.226 4.42275ZM23.1088 9.41842C23.3941 9.87507 23.2553 10.4766 22.7986 10.7619L20.6927 12.0779C20.236 12.3632 19.6345 12.2244 19.3491 11.7677C19.0638 11.311 19.2027 10.7095 19.6593 10.4242L21.7653 9.10824C22.2219 8.82289 22.8234 8.96176 23.1088 9.41842ZM23.739 13.7884C24.0244 14.245 23.8855 14.8465 23.4289 15.1319L15.8761 19.8513C15.4195 20.1367 14.818 19.9978 14.5326 19.5412C14.2473 19.0845 14.3861 18.483 14.8428 18.1977L22.3955 13.4782C22.8522 13.1928 23.4537 13.3317 23.739 13.7884ZM23.3318 18.7407C23.6172 19.1974 23.4783 19.7989 23.0217 20.0843L23.0149 20.0885C22.5583 20.3739 21.9568 20.235 21.6714 19.7784C21.386 19.3217 21.5249 18.7202 21.9815 18.4348L21.9883 18.4306C22.4449 18.1452 23.0465 18.2841 23.3318 18.7407Z" fill="black"/>
<mask id="mask0_6906_7" style="mask-type:alpha" maskUnits="userSpaceOnUse" x="7" y="10" width="15" height="10">
<path fill-rule="evenodd" clip-rule="evenodd" d="M7.16777 19.3789C6.88243 18.9222 7.02132 18.3207 7.47798 18.0354L19.6595 10.424C20.1161 10.1386 20.7176 10.2775 21.003 10.7342C21.2883 11.1909 21.1494 11.7924 20.6928 12.0777L8.51128 19.6891C8.05462 19.9744 7.45311 19.8355 7.16777 19.3789Z" fill="url(#paint0_linear_6906_7)"/>
</mask>
<g mask="url(#mask0_6906_7)">
<path fill-rule="evenodd" clip-rule="evenodd" d="M7.16777 19.3791C6.88243 18.9224 7.02132 18.3209 7.47798 18.0356L19.6595 10.4242C20.1161 10.1389 20.7176 10.2778 21.003 10.7344C21.2883 11.1911 21.1494 11.7926 20.6928 12.078L8.51128 19.6893C8.05462 19.9747 7.45311 19.8358 7.16777 19.3791Z" fill="black"/>
</g>
<defs>
<linearGradient id="paint0_linear_6906_7" x1="19.5825" y1="11.5044" x2="20.5238" y2="16.6697" gradientUnits="userSpaceOnUse">
<stop stop-opacity="0.6"/>
<stop offset="0.5" stop-opacity="0.25"/>
<stop offset="1" stop-opacity="0.1"/>
</linearGradient>
</defs>
</svg>
