<svg width="24" height="24" viewBox="0 0 24 24" fill="none" xmlns="http://www.w3.org/2000/svg">
<path fill-rule="evenodd" clip-rule="evenodd" d="M10.6046 4.6748C11.1041 3.40908 12.896 3.40907 13.3956 4.6748L15.0723 8.92676L19.3253 10.6045C20.591 11.104 20.591 12.896 19.3253 13.3955L15.0723 15.0723L13.3956 19.3252C12.896 20.5909 11.1041 20.5909 10.6046 19.3252L8.92684 15.0723L4.67488 13.3955C3.40916 12.896 3.40915 11.104 4.67488 10.6045L8.92684 8.92676L10.6046 4.6748ZM12.4649 5.04199C12.2984 4.62025 11.7018 4.62024 11.5352 5.04199L9.7784 9.49609C9.72758 9.62496 9.62504 9.7275 9.49617 9.77832L5.04207 11.5352C4.62033 11.7017 4.62032 12.2983 5.04207 12.4648L5.94246 12.8193L13.3819 11.0137L13.4679 11.001C13.6689 10.988 13.8621 11.0981 13.9513 11.2852C14.0402 11.4721 14.0038 11.691 13.8673 11.8389L13.8028 11.8975L9.9161 14.8545L11.5352 18.958C11.7018 19.3798 12.2984 19.3798 12.4649 18.958L14.2218 14.5039L14.2696 14.4121C14.3258 14.3268 14.4075 14.2598 14.504 14.2217L18.9581 12.4648C19.3798 12.2983 19.3798 11.7017 18.9581 11.5352L14.504 9.77832C14.3751 9.7275 14.2726 9.62496 14.2218 9.49609L12.4649 5.04199Z" fill="black"/>
<path fill-rule="evenodd" clip-rule="evenodd" d="M19.0001 2C19.1942 2 19.371 2.11226 19.4532 2.28809L20.172 3.82715L21.712 4.54688C21.8878 4.6291 22.0001 4.80588 22.0001 5C22.0001 5.19412 21.8878 5.3709 21.712 5.45312L20.172 6.17188L19.4532 7.71191C19.371 7.88774 19.1942 8 19.0001 8C18.806 8 18.6292 7.88774 18.547 7.71191L17.8272 6.17188L16.2882 5.45312C16.1123 5.3709 16.0001 5.19412 16.0001 5C16.0001 4.80588 16.1123 4.6291 16.2882 4.54688L17.8272 3.82715L18.547 2.28809L18.5821 2.22559C18.6736 2.08614 18.8301 2 19.0001 2ZM18.6573 4.41602C18.6077 4.52229 18.5224 4.60758 18.4161 4.65723L17.6817 5L18.4161 5.34277L18.4913 5.38574C18.5627 5.43573 18.62 5.50407 18.6573 5.58398L19.0001 6.31738L19.3429 5.58398L19.3858 5.50879C19.4358 5.43734 19.5042 5.38011 19.5841 5.34277L20.3175 5L19.5841 4.65723C19.4778 4.60758 19.3925 4.52229 19.3429 4.41602L19.0001 3.68164L18.6573 4.41602Z" fill="black"/>
</svg>
