<svg width="24" height="24" viewBox="0 0 24 24" fill="none" xmlns="http://www.w3.org/2000/svg">
<path d="M15.5 12C15.7761 12 16 12.2239 16 12.5C16 12.7761 15.7761 13 15.5 13H8.5C8.22386 13 8 12.7761 8 12.5C8 12.2239 8.22386 12 8.5 12H15.5Z" fill="black"/>
<path fill-rule="evenodd" clip-rule="evenodd" d="M20.5 3C21.3284 3 22 3.67157 22 4.5V6.5C22 7.15281 21.5822 7.70597 21 7.91211V17.5C21 18.8807 19.8807 20 18.5 20H5.5C4.11929 20 3 18.8807 3 17.5V7.91211C2.41782 7.70597 2 7.15281 2 6.5V4.5C2 3.67157 2.67157 3 3.5 3H20.5ZM4 17.5C4 18.3284 4.67157 19 5.5 19H18.5C19.3284 19 20 18.3284 20 17.5V8H4V17.5ZM3.5 4C3.22386 4 3 4.22386 3 4.5V6.5C3 6.77614 3.22386 7 3.5 7H20.5C20.7761 7 21 6.77614 21 6.5V4.5C21 4.22386 20.7761 4 20.5 4H3.5Z" fill="black"/>
</svg>
