<svg width="24" height="24" viewBox="0 0 24 24" fill="none" xmlns="http://www.w3.org/2000/svg">
<path fill-rule="evenodd" clip-rule="evenodd" d="M13.5 16C14.3284 16 15 16.6716 15 17.5C15 18.3284 14.3284 19 13.5 19H10.5C9.67157 19 9 18.3284 9 17.5C9 16.6716 9.67157 16 10.5 16H13.5ZM10.5 17C10.2239 17 10 17.2239 10 17.5C10 17.7761 10.2239 18 10.5 18H13.5C13.7761 18 14 17.7761 14 17.5C14 17.2239 13.7761 17 13.5 17H10.5Z" fill="black"/>
<path fill-rule="evenodd" clip-rule="evenodd" d="M20.5 7C21.8807 7 23 8.11929 23 9.5V18.5C23 19.8807 21.8807 21 20.5 21H3.5C2.11929 21 1 19.8807 1 18.5V9.5C1 8.11929 2.11929 7 3.5 7H20.5ZM3.5 8C2.67157 8 2 8.67157 2 9.5V18.5C2 19.3284 2.67157 20 3.5 20H20.5C21.3284 20 22 19.3284 22 18.5V9.5C22 8.67157 21.3284 8 20.5 8H3.5Z" fill="black"/>
<path d="M21.5 5C21.7761 5 22 5.22386 22 5.5C22 5.77614 21.7761 6 21.5 6H2.5C2.22386 6 2 5.77614 2 5.5C2 5.22386 2.22386 5 2.5 5H21.5Z" fill="black"/>
<path d="M20.5 3C20.7761 3 21 3.22386 21 3.5C21 3.77614 20.7761 4 20.5 4H3.5C3.22386 4 3 3.77614 3 3.5C3 3.22386 3.22386 3 3.5 3H20.5Z" fill="black"/>
</svg>
