<svg width="24" height="24" viewBox="0 0 24 24" fill="none" xmlns="http://www.w3.org/2000/svg">
<path fill-rule="evenodd" clip-rule="evenodd" d="M7.5 1C8.88071 1 10 2.11929 10 3.5V10C10 11.1046 9.10457 12 8 12C6.89543 12 6 11.1046 6 10V7.5C6 7.22386 6.22386 7 6.5 7C6.77614 7 7 7.22386 7 7.5V10C7 10.5523 7.44772 11 8 11C8.55228 11 9 10.5523 9 10V3.5C9 2.67157 8.32843 2 7.5 2C6.67157 2 6 2.67157 6 3.5V4H7.5C7.77614 4 8 4.22386 8 4.5C8 4.77614 7.77614 5 7.5 5H3.5C2.67157 5 2 5.67157 2 6.5V18.5C2 19.3284 2.67157 20 3.5 20H20.5C21.3284 20 22 19.3284 22 18.5V10H19.5C18.1193 10 17 8.88071 17 7.5V5H11.5C11.2239 5 11 4.77614 11 4.5C11 4.22386 11.2239 4 11.5 4H17.5C17.6326 4 17.7597 4.05272 17.8535 4.14648L22.8535 9.14648C22.9473 9.24025 23 9.36739 23 9.5V18.5C23 19.8807 21.8807 21 20.5 21H3.5C2.11929 21 1 19.8807 1 18.5V6.5C1 5.11929 2.11929 4 3.5 4H5V3.5C5 2.11929 6.11929 1 7.5 1ZM18 7.5C18 8.32843 18.6716 9 19.5 9H21.293L18 5.70703V7.5Z" fill="black"/>
</svg>
