<svg width="24" height="24" viewBox="0 0 24 24" fill="none" xmlns="http://www.w3.org/2000/svg">
<path d="M17.5 12C17.7761 12 18 12.2239 18 12.5C18 12.7761 17.7761 13 17.5 13H6.5C6.22386 13 6 12.7761 6 12.5C6 12.2239 6.22386 12 6.5 12H17.5Z" fill="black"/>
<path d="M17.5 9C17.7761 9 18 9.22386 18 9.5C18 9.77614 17.7761 10 17.5 10H6.5C6.22386 10 6 9.77614 6 9.5C6 9.22386 6.22386 9 6.5 9H17.5Z" fill="black"/>
<path d="M17.5 6C17.7761 6 18 6.22386 18 6.5C18 6.77614 17.7761 7 17.5 7H6.5C6.22386 7 6 6.77614 6 6.5C6 6.22386 6.22386 6 6.5 6H17.5Z" fill="black"/>
<path fill-rule="evenodd" clip-rule="evenodd" d="M18.5 1C19.8807 1 21 2.11929 21 3.5V21.5C21 21.7061 20.8736 21.891 20.6816 21.9658C20.4896 22.0405 20.2712 21.9897 20.1318 21.8379L17.75 19.2393L15.3682 21.8379C15.276 21.9383 15.147 21.997 15.0107 22C14.8744 22.0029 14.7429 21.9499 14.6465 21.8535L12 19.207L9.35352 21.8535C9.15825 22.0488 8.84175 22.0488 8.64648 21.8535L6.0332 19.2402L3.88379 21.8203C3.74903 21.9818 3.52787 22.0413 3.33008 21.9697C3.13214 21.8981 3 21.7105 3 21.5V3.5C3 2.11929 4.11929 1 5.5 1H18.5ZM5.5 2C4.67157 2 4 2.67157 4 3.5V20.1191L5.61621 18.1797L5.69043 18.1074C5.77188 18.0432 5.87221 18.0058 5.97754 18.001C6.11781 17.9947 6.25422 18.0472 6.35352 18.1465L9 20.793L11.6465 18.1465L11.7246 18.082C11.9187 17.9539 12.1827 17.9756 12.3535 18.1465L14.9844 20.7773L17.3818 18.1621L17.459 18.0928C17.5431 18.0327 17.6449 18 17.75 18C17.8901 18 18.0235 18.0589 18.1182 18.1621L20 20.2148V3.5C20 2.67157 19.3284 2 18.5 2H5.5Z" fill="black"/>
</svg>
