<svg width="24" height="24" viewBox="0 0 24 24" fill="none" xmlns="http://www.w3.org/2000/svg">
<path fill-rule="evenodd" clip-rule="evenodd" d="M16.5 1C17.8807 1 19 2.11929 19 3.5V22.5C19 22.6905 18.8916 22.8641 18.7207 22.9482C18.5499 23.0323 18.3463 23.0125 18.1953 22.8965L12 18.1309L5.80469 22.8965C5.65373 23.0125 5.45011 23.0323 5.2793 22.9482C5.10841 22.8641 5 22.6905 5 22.5V3.5C5 2.11929 6.11929 1 7.5 1H16.5ZM7.5 2C6.67157 2 6 2.67157 6 3.5V21.4844L11.6953 17.1035L11.7656 17.0586C11.9363 16.9679 12.1474 16.9827 12.3047 17.1035L18 21.4844V3.5C18 2.67157 17.3284 2 16.5 2H7.5Z" fill="black"/>
</svg>
