<svg width="24" height="24" viewBox="0 0 24 24" fill="none" xmlns="http://www.w3.org/2000/svg">
<path d="M7.5002 19C8.32863 19 9.0002 19.6716 9.0002 20.5C9.0002 21.3284 8.32863 22 7.5002 22C6.67178 22 6.0002 21.3284 6.0002 20.5C6.0002 19.6716 6.67178 19 7.5002 19Z" fill="black"/>
<path d="M16.5002 19C17.3286 19 18.0002 19.6716 18.0002 20.5C18.0002 21.3284 17.3286 22 16.5002 22C15.6718 22 15.0002 21.3284 15.0002 20.5C15.0002 19.6716 15.6718 19 16.5002 19Z" fill="black"/>
<path fill-rule="evenodd" clip-rule="evenodd" d="M2.06563 3.25195C2.18545 3.04226 2.4346 2.95205 2.65548 3.02441L2.74825 3.06543L5.50704 4.64257C6.09874 4.98069 6.5273 5.54589 6.69259 6.20703L6.89083 7H18.9836C20.0604 7 20.7866 8.10104 20.3625 9.09082L18.4797 13.4844C18.0858 14.4034 17.1817 14.9998 16.1818 15H8.25802C7.74853 15.8564 8.35409 17 9.40548 17H18.5002C18.7763 17 19.0002 17.2239 19.0002 17.5C19.0002 17.7761 18.7763 18 18.5002 18H9.40548C7.51771 18 6.44903 15.8954 7.46309 14.3848L6.01485 7.62109L5.72188 6.44922C5.6227 6.05257 5.36594 5.71359 5.01095 5.51074L2.25216 3.93457L2.17013 3.875C1.99541 3.72154 1.94588 3.46174 2.06563 3.25195ZM8.4045 14H16.1818C16.7817 13.9998 17.3234 13.6422 17.5598 13.0908L19.4436 8.69726C19.585 8.36733 19.3426 8 18.9836 8H7.11934L8.4045 14Z" fill="black"/>
</svg>
