<svg width="24" height="24" viewBox="0 0 24 24" fill="none" xmlns="http://www.w3.org/2000/svg">
<path d="M20.5 8C21.8807 8 23 9.11929 23 10.5V15.5C23 16.8807 21.8807 18 20.5 18H20V21.5C20 21.7022 19.8782 21.8845 19.6914 21.9619C19.5046 22.0393 19.2895 21.9965 19.1465 21.8535L15.293 18H10.5C9.11929 18 8 16.8807 8 15.5V15C8 14.7239 8.22386 14.5 8.5 14.5C8.77614 14.5 9 14.7239 9 15V15.5C9 16.3284 9.67157 17 10.5 17H15.5C15.6326 17 15.7597 17.0527 15.8535 17.1465L19 20.293V17.5C19 17.2239 19.2239 17 19.5 17H20.5C21.3284 17 22 16.3284 22 15.5V10.5C22 9.67157 21.3284 9 20.5 9H17.5C17.2239 9 17 8.77614 17 8.5C17 8.22386 17.2239 8 17.5 8H20.5Z" fill="black"/>
<path fill-rule="evenodd" clip-rule="evenodd" d="M13.5 3C14.8807 3 16 4.11929 16 5.5V10.5C16 11.8807 14.8807 13 13.5 13H8.70703L4.85352 16.8535C4.71052 16.9965 4.49543 17.0393 4.30859 16.9619C4.12179 16.8845 4 16.7022 4 16.5V13H3.5C2.11929 13 1 11.8807 1 10.5V5.5C1 4.11929 2.11929 3 3.5 3H13.5ZM3.5 4C2.67157 4 2 4.67157 2 5.5V10.5C2 11.3284 2.67157 12 3.5 12H4.5C4.77614 12 5 12.2239 5 12.5V15.293L8.14648 12.1465L8.22266 12.084C8.30419 12.0296 8.40056 12 8.5 12H13.5C14.3284 12 15 11.3284 15 10.5V5.5C15 4.67157 14.3284 4 13.5 4H3.5Z" fill="black"/>
</svg>
