<svg width="24" height="24" viewBox="0 0 24 24" fill="none" xmlns="http://www.w3.org/2000/svg">
<path d="M8 7C9.4513 7 10.6612 8.03152 10.9395 9.40039C10.9944 9.67092 10.8203 9.93513 10.5498 9.99023C10.2792 10.0452 10.015 9.8702 9.95996 9.59961C9.77451 8.68718 8.96622 8 8 8C6.89614 8 6 8.89614 6 10V14C6 15.1039 6.89614 16 8 16C8.96622 16 9.77451 15.3128 9.95996 14.4004C10.015 14.1298 10.2792 13.9548 10.5498 14.0098C10.8203 14.0649 10.9944 14.3291 10.9395 14.5996C10.6612 15.9685 9.4513 17 8 17C6.34386 17 5 15.6561 5 14V10C5 8.34386 6.34386 7 8 7Z" fill="black"/>
<path d="M16 7C17.4513 7 18.6612 8.03152 18.9395 9.40039C18.9944 9.67092 18.8203 9.93513 18.5498 9.99023C18.2792 10.0452 18.015 9.8702 17.96 9.59961C17.7745 8.68718 16.9662 8 16 8C14.8961 8 14 8.89614 14 10V14C14 15.1039 14.8961 16 16 16C16.9662 16 17.7745 15.3128 17.96 14.4004C18.015 14.1298 18.2792 13.9548 18.5498 14.0098C18.8203 14.0649 18.9944 14.3291 18.9395 14.5996C18.6612 15.9685 17.4513 17 16 17C14.3439 17 13 15.6561 13 14V10C13 8.34386 14.3439 7 16 7Z" fill="black"/>
<path fill-rule="evenodd" clip-rule="evenodd" d="M18.5 4C20.9853 4 23 6.01472 23 8.5V15.5C23 17.9853 20.9853 20 18.5 20H5.5C3.01472 20 1 17.9853 1 15.5V8.5C1 6.01472 3.01472 4 5.5 4H18.5ZM5.5 5C3.567 5 2 6.567 2 8.5V15.5C2 17.433 3.567 19 5.5 19H18.5C20.433 19 22 17.433 22 15.5V8.5C22 6.567 20.433 5 18.5 5H5.5Z" fill="black"/>
</svg>
