<svg width="24" height="24" viewBox="0 0 24 24" fill="none" xmlns="http://www.w3.org/2000/svg">
<path d="M3.5 3C3.77614 3 4 3.22386 4 3.5V19.5C4 19.7761 3.77614 20 3.5 20C3.22386 20 3 19.7761 3 19.5V3.5C3 3.22386 3.22386 3 3.5 3Z" fill="black"/>
<path d="M9.14648 7.64648C9.34175 7.45122 9.65825 7.45122 9.85352 7.64648C10.0488 7.84175 10.0488 8.15825 9.85352 8.35352L6.70703 11.5H20.5C20.7761 11.5 21 11.7239 21 12C21 12.2761 20.7761 12.5 20.5 12.5H6.70703L9.85352 15.6465L9.91797 15.7246C10.0461 15.9187 10.0244 16.1827 9.85352 16.3535C9.68265 16.5244 9.41869 16.5461 9.22461 16.418L9.14648 16.3535L5.14648 12.3535C4.95122 12.1583 4.95122 11.8417 5.14648 11.6465L9.14648 7.64648Z" fill="black"/>
</svg>
