<svg width="24" height="24" viewBox="0 0 24 24" fill="none" xmlns="http://www.w3.org/2000/svg">
<path d="M20.5 3C20.2239 3 20 3.22386 20 3.5V19.5C20 19.7761 20.2239 20 20.5 20C20.7761 20 21 19.7761 21 19.5V3.5C21 3.22386 20.7761 3 20.5 3Z" fill="black"/>
<path d="M14.8535 7.64648C14.6583 7.45122 14.3417 7.45122 14.1465 7.64648C13.9512 7.84175 13.9512 8.15825 14.1465 8.35352L17.293 11.5H3.5C3.22386 11.5 3 11.7239 3 12C3 12.2761 3.22386 12.5 3.5 12.5H17.293L14.1465 15.6465L14.082 15.7246C13.9539 15.9187 13.9756 16.1827 14.1465 16.3535C14.3173 16.5244 14.5813 16.5461 14.7754 16.418L14.8535 16.3535L18.8535 12.3535C19.0488 12.1583 19.0488 11.8417 18.8535 11.6465L14.8535 7.64648Z" fill="black"/>
</svg>
