<svg width="24" height="24" viewBox="0 0 24 24" fill="none" xmlns="http://www.w3.org/2000/svg">
<path d="M6.5 8C6.77614 8 7 8.22386 7 8.5C7 8.77614 6.77614 9 6.5 9H4.5C3.67157 9 3 9.67157 3 10.5V19.5C3 20.3284 3.67157 21 4.5 21H13.5C14.3284 21 15 20.3284 15 19.5V17.5C15 17.2239 15.2239 17 15.5 17C15.7761 17 16 17.2239 16 17.5V19.5C16 20.8807 14.8807 22 13.5 22H4.5C3.11929 22 2 20.8807 2 19.5V10.5C2 9.11929 3.11929 8 4.5 8H6.5Z" fill="black"/>
<path fill-rule="evenodd" clip-rule="evenodd" d="M13.5 8C14.8807 8 16 9.11929 16 10.5V13.5C16 14.8804 14.8817 15.9998 13.501 16H10.5C9.11926 16 8 14.8807 8 13.5V10.5C8 9.11929 9.11929 8 10.5 8H13.5ZM10.5 9C9.67157 9 9 9.67157 9 10.5V13.5C9 14.3285 9.6716 15 10.5 15H13.501C14.329 14.9998 15 14.3285 15 13.5V10.5C15 9.67157 14.3284 9 13.5 9H10.5Z" fill="black"/>
<path d="M19.5 2C20.8807 2 22 3.11929 22 4.5V13.5C22 14.8807 20.8807 16 19.5 16H17.5C17.2239 16 17 15.7761 17 15.5C17 15.2239 17.2239 15 17.5 15H19.5C20.3284 15 21 14.3284 21 13.5V4.5C21 3.67157 20.3284 3 19.5 3H10.5C9.67157 3 9 3.67157 9 4.5V6.5C9 6.77614 8.77614 7 8.5 7C8.22386 7 8 6.77614 8 6.5V4.5C8 3.11929 9.11929 2 10.5 2H19.5Z" fill="black"/>
</svg>
