<svg width="24" height="24" viewBox="0 0 24 24" fill="none" xmlns="http://www.w3.org/2000/svg">
<path fill-rule="evenodd" clip-rule="evenodd" d="M20.5 3C21.8807 3 23 4.11929 23 5.5V14.5C23 15.8807 21.8807 17 20.5 17H12.707L6.85352 22.8535C6.71052 22.9965 6.49543 23.0393 6.30859 22.9619C6.12179 22.8845 6 22.7022 6 22.5V17H3.5C2.11929 17 1 15.8807 1 14.5V5.5C1 4.11929 2.11929 3 3.5 3H20.5ZM3.5 4C2.67157 4 2 4.67157 2 5.5V14.5C2 15.3284 2.67157 16 3.5 16H6.5C6.77614 16 7 16.2239 7 16.5V21.293L12.1465 16.1465L12.2227 16.084C12.3042 16.0296 12.4006 16 12.5 16H20.5C21.3284 16 22 15.3284 22 14.5V5.5C22 4.67157 21.3284 4 20.5 4H3.5Z" fill="black"/>
</svg>
