<svg width="24" height="24" viewBox="0 0 24 24" fill="none" xmlns="http://www.w3.org/2000/svg">
<path d="M17.8536 8.85355C18.0488 8.65829 18.0488 8.34171 17.8536 8.14645C17.6583 7.95118 17.3417 7.95118 17.1464 8.14645L10.5 14.7929L7.85355 12.1464C7.65829 11.9512 7.34171 11.9512 7.14645 12.1464C6.95118 12.3417 6.95118 12.6583 7.14645 12.8536L10.1464 15.8536C10.3417 16.0488 10.6583 16.0488 10.8536 15.8536L17.8536 8.85355Z" fill="black"/>
<path fill-rule="evenodd" clip-rule="evenodd" d="M12 1C5.92487 1 1 5.92487 1 12C1 18.0751 5.92487 23 12 23C18.0751 23 23 18.0751 23 12C23 5.92487 18.0751 1 12 1ZM2 12C2 6.47715 6.47715 2 12 2C17.5228 2 22 6.47715 22 12C22 17.5228 17.5228 22 12 22C6.47715 22 2 17.5228 2 12Z" fill="black"/>
</svg>
