<svg width="24" height="24" viewBox="0 0 24 24" fill="none" xmlns="http://www.w3.org/2000/svg">
<path d="M13.1465 12.1464C13.3417 11.9512 13.6583 11.9512 13.8535 12.1464C14.0488 12.3417 14.0488 12.6582 13.8535 12.8535L10.707 16H21.5C21.7761 16 22 16.2238 22 16.5C22 16.7761 21.7761 17 21.5 17H10.707L13.8535 20.1464L13.918 20.2246C14.0461 20.4187 14.0244 20.6826 13.8535 20.8535C13.6827 21.0243 13.4187 21.0461 13.2246 20.9179L13.1465 20.8535L9.14648 16.8535C8.95122 16.6582 8.95122 16.3417 9.14648 16.1464L13.1465 12.1464Z" fill="black"/>
<path d="M10.1465 3.14645C10.3173 2.97558 10.5813 2.95383 10.7754 3.08199L10.8535 3.14645L14.8535 7.14645C15.0488 7.34171 15.0488 7.65822 14.8535 7.85348L10.8535 11.8535C10.6583 12.0487 10.3417 12.0487 10.1465 11.8535C9.95122 11.6582 9.95122 11.3417 10.1465 11.1464L13.293 7.99996H2.5C2.22386 7.99996 2 7.77611 2 7.49996C2 7.22382 2.22386 6.99996 2.5 6.99996H13.293L10.1465 3.85348L10.082 3.77535C9.95387 3.58127 9.97562 3.31731 10.1465 3.14645Z" fill="black"/>
</svg>
