<svg width="24" height="24" viewBox="0 0 24 24" fill="none" xmlns="http://www.w3.org/2000/svg">
<path d="M11 20C11 20.5523 10.5523 21 10 21C9.44772 21 9 20.5523 9 20C9 19.4477 9.44772 19 10 19C10.5523 19 11 19.4477 11 20Z" fill="black"/>
<path d="M10 17C10.5523 17 11 16.5523 11 16C11 15.4477 10.5523 15 10 15C9.44772 15 9 15.4477 9 16C9 16.5523 9.44772 17 10 17Z" fill="black"/>
<path d="M11 12C11 12.5523 10.5523 13 10 13C9.44772 13 9 12.5523 9 12C9 11.4477 9.44772 11 10 11C10.5523 11 11 11.4477 11 12Z" fill="black"/>
<path d="M10 5C10.5523 5 11 4.55228 11 4C11 3.44772 10.5523 3 10 3C9.44772 3 9 3.44772 9 4C9 4.55228 9.44772 5 10 5Z" fill="black"/>
<path d="M14 5C14.5523 5 15 4.55228 15 4C15 3.44772 14.5523 3 14 3C13.4477 3 13 3.44772 13 4C13 4.55228 13.4477 5 14 5Z" fill="black"/>
<path d="M15 8C15 8.55229 14.5523 9 14 9C13.4477 9 13 8.55229 13 8C13 7.44771 13.4477 7 14 7C14.5523 7 15 7.44771 15 8Z" fill="black"/>
<path d="M10 9C10.5523 9 11 8.55229 11 8C11 7.44771 10.5523 7 10 7C9.44772 7 9 7.44771 9 8C9 8.55229 9.44772 9 10 9Z" fill="black"/>
<path d="M14 21C14.5523 21 15 20.5523 15 20C15 19.4477 14.5523 19 14 19C13.4477 19 13 19.4477 13 20C13 20.5523 13.4477 21 14 21Z" fill="black"/>
<path d="M15 16C15 16.5523 14.5523 17 14 17C13.4477 17 13 16.5523 13 16C13 15.4477 13.4477 15 14 15C14.5523 15 15 15.4477 15 16Z" fill="black"/>
<path d="M14 13C14.5523 13 15 12.5523 15 12C15 11.4477 14.5523 11 14 11C13.4477 11 13 11.4477 13 12C13 12.5523 13.4477 13 14 13Z" fill="black"/>
</svg>
