<svg width="24" height="24" viewBox="0 0 24 24" fill="none" xmlns="http://www.w3.org/2000/svg">
<path d="M3 4C3 3.72386 3.22386 3.5 3.5 3.5H20.5C20.7761 3.5 21 3.72386 21 4C21 4.27614 20.7761 4.5 20.5 4.5H3.5C3.22386 4.5 3 4.27614 3 4Z" fill="black"/>
<path d="M3 12C3 11.7239 3.22386 11.5 3.5 11.5H20.5C20.7761 11.5 21 11.7239 21 12C21 12.2761 20.7761 12.5 20.5 12.5H3.5C3.22386 12.5 3 12.2761 3 12Z" fill="black"/>
<path d="M3 20C3 19.7239 3.22386 19.5 3.5 19.5H20.5C20.7761 19.5 21 19.7239 21 20C21 20.2761 20.7761 20.5 20.5 20.5H3.5C3.22386 20.5 3 20.2761 3 20Z" fill="black"/>
</svg>
