<svg width="32" height="32" viewBox="0 0 32 32" fill="none" xmlns="http://www.w3.org/2000/svg">
<path d="M4.5 18.5C5.88071 18.5 7 17.3807 7 16C7 14.6193 5.88071 13.5 4.5 13.5C3.11929 13.5 2 14.6193 2 16C2 17.3807 3.11929 18.5 4.5 18.5Z" fill="black"/>
<path d="M18.5 16C18.5 17.3807 17.3807 18.5 16 18.5C14.6193 18.5 13.5 17.3807 13.5 16C13.5 14.6193 14.6193 13.5 16 13.5C17.3807 13.5 18.5 14.6193 18.5 16Z" fill="black"/>
<path d="M30 16C30 17.3807 28.8807 18.5 27.5 18.5C26.1193 18.5 25 17.3807 25 16C25 14.6193 26.1193 13.5 27.5 13.5C28.8807 13.5 30 14.6193 30 16Z" fill="black"/>
</svg>
