<svg width="24" height="24" viewBox="0 0 24 24" fill="none" xmlns="http://www.w3.org/2000/svg">
<path fill-rule="evenodd" clip-rule="evenodd" d="M16.5 5C16.6326 5 16.7597 5.05272 16.8535 5.14648L20.8535 9.14648C20.9473 9.24025 21 9.36739 21 9.5V20.5C21 21.8807 19.8807 23 18.5 23H9.5C8.11929 23 7 21.8807 7 20.5V7.5C7 6.11929 8.11929 5 9.5 5H16.5ZM9.5 6C8.67157 6 8 6.67157 8 7.5V20.5C8 21.3284 8.67157 22 9.5 22H18.5C19.3284 22 20 21.3284 20 20.5V10H18.5C17.1193 10 16 8.88071 16 7.5V6H9.5ZM17 7.5C17 8.32843 17.6716 9 18.5 9H19.293L17 6.70703V7.5Z" fill="black"/>
<path d="M11.6719 1C12.3348 1.00008 12.9707 1.26365 13.4395 1.73242L14.8535 3.14648C15.0488 3.34175 15.0488 3.65825 14.8535 3.85352C14.6583 4.04878 14.3417 4.04878 14.1465 3.85352L12.7324 2.43945C12.4512 2.15822 12.0696 2.00008 11.6719 2H5.5C4.67157 2 4 2.67157 4 3.5V16.5C4 17.3284 4.67157 18 5.5 18C5.77614 18 6 18.2239 6 18.5C6 18.7761 5.77614 19 5.5 19C4.11929 19 3 17.8807 3 16.5V3.5C3 2.11929 4.11929 1 5.5 1H11.6719Z" fill="black"/>
</svg>
