<svg width="24" height="24" viewBox="0 0 24 24" fill="none" xmlns="http://www.w3.org/2000/svg">
<path d="M12 4C17.5228 4 22 8.47715 22 14C22 16.157 21.3165 18.1561 20.1543 19.79C20.0016 20.0045 19.7085 20.0638 19.4844 19.9258L16.2373 17.9258L16.1572 17.8643C15.9877 17.7051 15.9475 17.443 16.0742 17.2373C16.201 17.0318 16.4526 16.9506 16.6709 17.0303L16.7627 17.0742L19.5986 18.8213C20.4849 17.4275 21 15.7749 21 14C21 9.02944 16.9706 5 12 5C7.02944 5 3 9.02944 3 14C3 15.7747 3.51427 17.4276 4.40039 18.8213L7.2373 17.0742C7.47232 16.9295 7.78088 17.0024 7.92578 17.2373C8.07054 17.4723 7.99757 17.7809 7.7627 17.9258L4.51562 19.9258C4.2915 20.0638 3.99835 20.0045 3.8457 19.79C2.68354 18.1561 2 16.157 2 14C2 8.47715 6.47715 4 12 4Z" fill="black"/>
<path fill-rule="evenodd" clip-rule="evenodd" d="M17.2295 9.0791C17.4148 8.96 17.6565 8.97636 17.8242 9.11914C17.9919 9.2621 18.0463 9.49829 17.958 9.7002L14.458 17.7002C14.4425 17.7357 14.4227 17.7698 14.3994 17.8008C13.8529 18.528 12.9816 19 12 19C10.3431 19 9 17.6569 9 16C9 15.0184 9.47201 14.1471 10.1992 13.6006L10.2295 13.5791L17.2295 9.0791ZM10.7861 14.4102C10.3073 14.7765 10 15.3523 10 16C10 17.1046 10.8954 18 12 18C12.6368 18 13.2023 17.7015 13.5693 17.2363L16.3779 10.8154L10.7861 14.4102Z" fill="black"/>
<path d="M7.5 14C7.77614 14 8 14.2239 8 14.5C8 14.7761 7.77614 15 7.5 15H4.5C4.22386 15 4 14.7761 4 14.5C4 14.2239 4.22386 14 4.5 14H7.5Z" fill="black"/>
<path d="M19.5 14C19.7761 14 20 14.2239 20 14.5C20 14.7761 19.7761 15 19.5 15H17.5C17.2239 15 17 14.7761 17 14.5C17 14.2239 17.2239 14 17.5 14H19.5Z" fill="black"/>
<path d="M6.14648 9.14648C6.31735 8.97562 6.58131 8.95387 6.77539 9.08203L6.85352 9.14648L8.85352 11.1465L8.91797 11.2246C9.04613 11.4187 9.02438 11.6827 8.85352 11.8535C8.68265 12.0244 8.41869 12.0461 8.22461 11.918L8.14648 11.8535L6.14648 9.85352L6.08203 9.77539C5.95387 9.58131 5.97562 9.31735 6.14648 9.14648Z" fill="black"/>
<path d="M12 6C12.2761 6 12.5 6.22386 12.5 6.5V9.5C12.5 9.77614 12.2761 10 12 10C11.7239 10 11.5 9.77614 11.5 9.5V6.5C11.5 6.22386 11.7239 6 12 6Z" fill="black"/>
</svg>
