<svg width="24" height="24" viewBox="0 0 24 24" fill="none" xmlns="http://www.w3.org/2000/svg">
<path fill-rule="evenodd" clip-rule="evenodd" d="M7.5 8C8.88071 8 10 9.11929 10 10.5V19.5C10 20.8807 8.88071 22 7.5 22H3.5C2.11929 22 1 20.8807 1 19.5V10.5C1 9.11929 2.11929 8 3.5 8H7.5ZM2 19.5C2 20.3284 2.67157 21 3.5 21H7.5C8.32843 21 9 20.3284 9 19.5V19H2V19.5ZM3.5 9C2.67157 9 2 9.67157 2 10.5V18H9V10.5C9 9.67157 8.32843 9 7.5 9H3.5Z" fill="black"/>
<path d="M20.5 1C21.8807 1 23 2.11929 23 3.5V12.5C23 13.8807 21.8807 15 20.5 15H14V17H17.5C17.7761 17 18 17.2239 18 17.5C18 17.7761 17.7761 18 17.5 18H11.5C11.2239 18 11 17.7761 11 17.5C11 17.2239 11.2239 17 11.5 17H13V15H11.5C11.2239 15 11 14.7761 11 14.5C11 14.2239 11.2239 14 11.5 14H20.5C21.3284 14 22 13.3284 22 12.5V3.5C22 2.67157 21.3284 2 20.5 2H5.5C4.67157 2 4 2.67157 4 3.5V6.5C4 6.77614 3.77614 7 3.5 7C3.22386 7 3 6.77614 3 6.5V3.5C3 2.11929 4.11929 1 5.5 1H20.5Z" fill="black"/>
</svg>
