<svg width="24" height="24" viewBox="0 0 24 24" fill="none" xmlns="http://www.w3.org/2000/svg">
<path fill-rule="evenodd" clip-rule="evenodd" d="M20 11.5C20.1326 11.5 20.2597 11.5527 20.3535 11.6465L22.5957 13.8887C22.6913 13.9843 22.7442 14.1148 22.7422 14.25C22.7401 14.3852 22.6834 14.5138 22.585 14.6064L14.3428 22.3643C14.2746 22.4284 14.1894 22.4719 14.0977 22.4902L11.5977 22.9902C11.4338 23.0229 11.2646 22.9716 11.1465 22.8535C11.0284 22.7354 10.9771 22.5662 11.0098 22.4023L11.5098 19.9023L11.5293 19.8311C11.5541 19.7619 11.5941 19.6989 11.6465 19.6465L19.6465 11.6465L19.7227 11.584C19.8042 11.5296 19.9006 11.5 20 11.5ZM12.46 20.2461L12.1367 21.8623L13.7607 21.5371L19.9785 15.6855L18.5 14.207L12.46 20.2461ZM19.207 13.5L20.707 15L21.5234 14.2305L20 12.707L19.207 13.5Z" fill="black"/>
<path d="M9 1C11.4836 1 13.5 3.23675 13.5 6C13.5 7.07707 13.1933 8.07445 12.6719 8.89062C12.5324 9.10898 12.3775 9.31444 12.209 9.50488L12.0361 9.69043L12.2656 9.80664C12.4935 9.92704 12.7137 10.0602 12.9258 10.2041L13.1621 10.3711C14.3231 11.2309 15.2082 12.4415 15.6621 13.8467C15.7468 14.1094 15.6025 14.3907 15.3398 14.4756C15.0772 14.5602 14.7958 14.416 14.7109 14.1533C14.3223 12.9504 13.5629 11.9127 12.5664 11.1748L12.3643 11.0312C12.1826 10.908 11.9938 10.7945 11.7988 10.6914L11.6016 10.5918C10.9843 10.2942 10.8425 9.47768 11.3232 8.98926L11.46 8.84277C11.5936 8.69173 11.7171 8.52779 11.8291 8.35254C12.2475 7.69755 12.5 6.88685 12.5 6C12.5 3.69098 10.8381 2 9 2C7.16185 2 5.5 3.69098 5.5 6C5.5 6.88685 5.75246 7.69755 6.1709 8.35254L6.28613 8.52344C6.40577 8.69105 6.53654 8.84678 6.67676 8.98926L6.75977 9.08496C7.11252 9.54527 6.9963 10.2161 6.50879 10.5303L6.39844 10.5918C6.19917 10.6879 6.00576 10.7943 5.81934 10.9111L5.63574 11.0312C4.04315 12.1121 3 13.9343 3 16V19.5C3 20.3284 3.67157 21 4.5 21H9.5C9.77614 21 10 21.2239 10 21.5C10 21.7761 9.77614 22 9.5 22H4.5C3.11929 22 2 20.8807 2 19.5V16C2 13.5891 3.21904 11.4631 5.07422 10.2041L5.28906 10.0635C5.43404 9.97266 5.58252 9.88688 5.73438 9.80664L5.96387 9.69043C5.78642 9.5101 5.62225 9.31405 5.47266 9.10449L5.32812 8.89062C4.80674 8.07445 4.5 7.07707 4.5 6C4.5 3.23675 6.51637 1 9 1Z" fill="black"/>
</svg>
