<svg width="24" height="24" viewBox="0 0 24 24" fill="none" xmlns="http://www.w3.org/2000/svg">
<g clip-path="url(#clip0_6452_10231)">
<path d="M12.9446 6.99831L12.5278 14.5006C12.5123 14.7807 12.2806 14.9998 12.0001 14.9998C11.7196 14.9998 11.4879 14.7807 11.4724 14.5006L11.0556 6.99831C11.0254 6.45607 11.457 5.99985 12.0001 5.99985C12.5432 5.99985 12.9747 6.45607 12.9446 6.99831Z" fill="black"/>
<path d="M13.0001 16.9998C13.0001 17.5521 12.5524 17.9998 12.0001 17.9998C11.4478 17.9998 11.0001 17.5521 11.0001 16.9998C11.0001 16.4476 11.4478 15.9998 12.0001 15.9998C12.5524 15.9998 13.0001 16.4476 13.0001 16.9998Z" fill="black"/>
<path fill-rule="evenodd" clip-rule="evenodd" d="M13.0608 1.3534C12.475 0.767615 11.5252 0.767616 10.9394 1.3534L1.35365 10.9392C0.76786 11.525 0.767861 12.4747 1.35365 13.0605L10.9394 22.6463C11.5252 23.2321 12.475 23.2321 13.0608 22.6463L22.6465 13.0605C23.2323 12.4747 23.2323 11.525 22.6465 10.9392L13.0608 1.3534ZM11.6465 2.06051C11.8418 1.86525 12.1584 1.86525 12.3536 2.06051L21.9394 11.6463C22.1347 11.8416 22.1347 12.1581 21.9394 12.3534L12.3536 21.9392C12.1584 22.1345 11.8418 22.1345 11.6465 21.9392L2.06075 12.3534C1.86549 12.1581 1.86549 11.8416 2.06075 11.6463L11.6465 2.06051Z" fill="black"/>
</g>
<defs>
<clipPath id="clip0_6452_10231">
<rect width="24" height="24" fill="white"/>
</clipPath>
</defs>
</svg>
