<svg width="24" height="24" viewBox="0 0 24 24" fill="none" xmlns="http://www.w3.org/2000/svg">
<path d="M10.5 8C10.7761 8 11 8.22386 11 8.5C11 8.77614 10.7761 9 10.5 9H9.5C8.67157 9 8 9.67157 8 10.5V14.5C8 15.3284 8.67157 16 9.5 16H13.5C14.3284 16 15 15.3284 15 14.5V13.5C15 13.2239 15.2239 13 15.5 13C15.7761 13 16 13.2239 16 13.5V14.5C16 15.8807 14.8807 17 13.5 17H9.5C8.11929 17 7 15.8807 7 14.5V10.5C7 9.11929 8.11929 8 9.5 8H10.5Z" fill="black"/>
<path d="M16.5 7C16.7761 7 17 7.22386 17 7.5V11.5C17 11.7761 16.7761 12 16.5 12C16.2239 12 16 11.7761 16 11.5V8.70703L11.8535 12.8535C11.6583 13.0488 11.3417 13.0488 11.1465 12.8535C10.9512 12.6583 10.9512 12.3417 11.1465 12.1465L15.293 8H12.5C12.2239 8 12 7.77614 12 7.5C12 7.22386 12.2239 7 12.5 7H16.5Z" fill="black"/>
</svg>
