<svg width="24" height="24" viewBox="0 0 24 24" fill="none" xmlns="http://www.w3.org/2000/svg">
<path d="M14.5 6C14.7761 6 15 6.22386 15 6.5C15 6.77614 14.7761 7 14.5 7H5.5C4.67157 7 4 7.67157 4 8.5V18.5C4 19.3284 4.67157 20 5.5 20H15.5C16.3284 20 17 19.3284 17 18.5V9.5C17 9.22386 17.2239 9 17.5 9C17.7761 9 18 9.22386 18 9.5V18.5C18 19.8807 16.8807 21 15.5 21H5.5C4.11929 21 3 19.8807 3 18.5V8.5C3 7.11929 4.11929 6 5.5 6H14.5Z" fill="black"/>
<path d="M20.5 3C20.7761 3 21 3.22386 21 3.5V9.5C21 9.77614 20.7761 10 20.5 10C20.2239 10 20 9.77614 20 9.5V4.70703L12.8535 11.8535C12.6583 12.0488 12.3417 12.0488 12.1465 11.8535C11.9512 11.6583 11.9512 11.3417 12.1465 11.1465L19.293 4H14.5C14.2239 4 14 3.77614 14 3.5C14 3.22386 14.2239 3 14.5 3H20.5Z" fill="black"/>
</svg>
