<svg width="24" height="24" viewBox="0 0 24 24" fill="none" xmlns="http://www.w3.org/2000/svg">
<g clip-path="url(#clip0_6451_9929)">
<path d="M12 16C12.5523 16 13 16.4477 13 17C13 17.5523 12.5523 18 12 18C11.4477 18 11 17.5523 11 17C11 16.4477 11.4477 16 12 16Z" fill="black"/>
<path d="M12 6C12.5429 6 12.9742 6.45598 12.9443 6.99805L12.5273 14.501C12.5117 14.781 12.2804 15 12 15C11.7196 15 11.4883 14.781 11.4727 14.501L11.0557 6.99805C11.0258 6.45598 11.4571 6 12 6Z" fill="black"/>
<path fill-rule="evenodd" clip-rule="evenodd" d="M12 0C12.183 0 12.3519 0.100031 12.4395 0.260742L14.9521 4.87207L19.9902 3.38867C20.1658 3.33697 20.3559 3.38523 20.4854 3.51465C20.6148 3.64407 20.663 3.83419 20.6113 4.00977L19.127 9.04688L23.7393 11.5605C23.9 11.6481 24 11.817 24 12C24 12.183 23.9 12.3519 23.7393 12.4395L19.127 14.9521L20.6113 19.9902C20.663 20.1658 20.6148 20.3559 20.4854 20.4854C20.3559 20.6148 20.1658 20.663 19.9902 20.6113L14.9521 19.127L12.4395 23.7393C12.3519 23.9 12.183 24 12 24C11.817 24 11.6481 23.9 11.5605 23.7393L9.04688 19.127L4.00977 20.6113C3.83419 20.663 3.64407 20.6148 3.51465 20.4854C3.38523 20.3559 3.33697 20.1658 3.38867 19.9902L4.87207 14.9521L0.260742 12.4395C0.100031 12.3519 0 12.183 0 12C0 11.817 0.100031 11.6481 0.260742 11.5605L4.87207 9.04688L3.38867 4.00977C3.33697 3.83419 3.38523 3.64407 3.51465 3.51465C3.64407 3.38523 3.83419 3.33697 4.00977 3.38867L9.04688 4.87207L11.5605 0.260742L11.5977 0.203125C11.6911 0.0764661 11.84 0 12 0ZM9.73242 5.70508C9.61974 5.91183 9.37822 6.0118 9.15234 5.94531L4.60645 4.60645L5.94531 9.15234C6.0118 9.37822 5.91183 9.61974 5.70508 9.73242L1.54492 12L5.70508 14.2676C5.91183 14.3803 6.0118 14.6218 5.94531 14.8477L4.60645 19.3926L9.15234 18.0547L9.2373 18.0371C9.43646 18.0145 9.6338 18.114 9.73242 18.2949L12 22.4541L14.2676 18.2949L14.3154 18.2227C14.4402 18.0658 14.6499 17.9965 14.8477 18.0547L19.3926 19.3926L18.0547 14.8477C17.9882 14.6218 18.0882 14.3803 18.2949 14.2676L22.4541 12L18.2949 9.73242C18.0882 9.61974 17.9882 9.37822 18.0547 9.15234L19.3926 4.60645L14.8477 5.94531C14.6218 6.0118 14.3803 5.91183 14.2676 5.70508L12 1.54492L9.73242 5.70508Z" fill="black"/>
</g>
<defs>
<clipPath id="clip0_6451_9929">
<rect width="24" height="24" fill="white"/>
</clipPath>
</defs>
</svg>
