<svg width="24" height="24" viewBox="0 0 24 24" fill="none" xmlns="http://www.w3.org/2000/svg">
<path fill-rule="evenodd" clip-rule="evenodd" d="M16.1092 2.83939C16.3758 2.76797 16.6498 2.92647 16.7215 3.19291L20.7332 18.1656C20.8046 18.4323 20.6464 18.7064 20.3797 18.7779L19.4139 19.0367C19.2444 19.0821 19.0636 19.0346 18.9373 18.9126C16.5537 16.6081 13.4303 16.1457 11.241 16.2671L12.6571 18.1597C13.459 19.2318 12.9247 20.7748 11.6317 21.1216C10.8842 21.3218 10.0894 21.0468 9.62581 20.4273L7.16878 17.1411L4.59651 17.8306C4.32994 17.9018 4.05569 17.7436 3.9842 17.4771L2.56135 12.1646C2.48988 11.8979 2.64814 11.6228 2.91487 11.5513L7.74397 10.2574C9.58621 9.76374 13.576 7.6935 14.7918 3.44486C14.8401 3.276 14.9737 3.14364 15.1434 3.09818L16.1092 2.83939ZM10.0897 16.396C9.84263 16.438 9.61989 16.4849 9.42659 16.5367L8.20784 16.8628L10.4266 19.8277C10.6452 20.1199 11.0203 20.2502 11.3729 20.1558C11.9826 19.9921 12.2344 19.2639 11.8563 18.7583L10.0936 16.4019C10.0922 16.4001 10.091 16.3979 10.0897 16.396ZM15.6678 3.99369C14.5159 7.62329 11.5637 9.73346 9.41585 10.7036L10.6463 15.2935C10.6481 15.3001 10.6503 15.3065 10.6522 15.313C12.9975 15.0795 16.6087 15.4323 19.4207 17.9995L19.6385 17.941L17.5672 10.2134L17.5662 10.2095L15.8856 3.9351L15.6678 3.99369ZM8.4803 11.0757C8.30984 11.1337 8.15024 11.1837 8.00276 11.2232L3.65608 12.3882L4.0428 13.8335L4.04475 13.8374L4.82112 16.7349L7.24104 16.0865C7.24303 16.086 7.24491 16.085 7.2469 16.0845L9.1678 15.5708C9.31532 15.5313 9.47846 15.4946 9.6551 15.4595L8.4803 11.0757Z" fill="black"/>
</svg>
