<svg width="24" height="24" viewBox="0 0 24 24" fill="none" xmlns="http://www.w3.org/2000/svg">
<path fill-rule="evenodd" clip-rule="evenodd" d="M12 3C12.2761 3 12.5 3.22386 12.5 3.5V4.01367C13.3724 4.06144 14.2112 4.23481 15 4.51367V4.5C15 4.22386 15.2239 4 15.5 4C15.7761 4 16 4.22386 16 4.5V4.9375C18.963 6.41035 21 9.46659 21 13V14.293L21.8535 15.1465C21.9473 15.2403 22 15.3674 22 15.5V17.5C22 17.7761 21.7761 18 21.5 18H20.707L19.1465 19.5605C18.8652 19.8418 18.4837 20 18.0859 20H5.91406C5.51629 20 5.13478 19.8418 4.85352 19.5605L3.29297 18H2.5C2.22386 18 2 17.7761 2 17.5V15.5C2 15.3674 2.05272 15.2403 2.14648 15.1465L3 14.293V13C3 9.46659 5.03699 6.41035 8 4.9375V4.5C8 4.22386 8.22386 4 8.5 4C8.77614 4 9 4.22386 9 4.5V4.51367C9.78881 4.23481 10.6276 4.06144 11.5 4.01367V3.5C11.5 3.22386 11.7239 3 12 3ZM12 16C9.36908 16 6.7493 16.5645 4.35547 17.6484L5.56055 18.8535C5.65428 18.9472 5.78151 19 5.91406 19H18.0859C18.2185 19 18.3457 18.9472 18.4395 18.8535L19.6436 17.6484C17.2499 16.5648 14.6306 16 12 16ZM12.5 6.5C12.5 6.77614 12.2761 7 12 7C11.7239 7 11.5 6.77614 11.5 6.5V5.0166C10.6205 5.07085 9.77991 5.26724 9 5.58301V7.5C9 7.77614 8.77614 8 8.5 8C8.22386 8 8 7.77614 8 7.5V6.07227C5.60927 7.45563 4 10.0392 4 13V14.4961C3.99994 14.6313 3.94618 14.7609 3.85059 14.8564L3 15.707V17H3.38574C6.05815 15.6849 9.02258 15 12 15C14.9774 15 17.9418 15.6849 20.6143 17H21V15.707L20.1494 14.8564C20.0538 14.7609 20.0001 14.6313 20 14.4961V13C20 10.0392 18.3907 7.45563 16 6.07227V7.5C16 7.77614 15.7761 8 15.5 8C15.2239 8 15 7.77614 15 7.5V5.58301C14.2201 5.26724 13.3795 5.07085 12.5 5.0166V6.5Z" fill="black"/>
</svg>
