<svg width="24" height="24" viewBox="0 0 24 24" fill="none" xmlns="http://www.w3.org/2000/svg">
<path fill-rule="evenodd" clip-rule="evenodd" d="M20.5 4C21.8807 4 23 5.11929 23 6.5V17.5C23 18.8807 21.8807 20 20.5 20H3.5C2.11929 20 1 18.8807 1 17.5V6.5C1 5.11929 2.11929 4 3.5 4H20.5ZM3.5 5C2.67157 5 2 5.67157 2 6.5V17.5C2 18.3284 2.67157 19 3.5 19H4V5H3.5ZM14 19H20.5C21.3284 19 22 18.3284 22 17.5V17H14V19ZM5 19H13V17H5V19ZM14 16H22V14H14V16ZM5 16H13V14H5V16ZM14 13H22V11H14V13ZM5 13H13V11H5V13ZM14 10H22V8H14V10ZM5 10H13V8H5V10ZM14 7H22V6.5C22 5.67157 21.3284 5 20.5 5H14V7ZM5 7H13V5H5V7Z" fill="black"/>
</svg>
