<svg width="24" height="24" viewBox="0 0 24 24" fill="none" xmlns="http://www.w3.org/2000/svg">
<path fill-rule="evenodd" clip-rule="evenodd" d="M16.5 5C17.8807 5 19 6.11929 19 7.5C19 8.88071 17.8807 10 16.5 10C15.1193 10 14 8.88071 14 7.5C14 6.11929 15.1193 5 16.5 5ZM16.5 6C15.6716 6 15 6.67157 15 7.5C15 8.32843 15.6716 9 16.5 9C17.3284 9 18 8.32843 18 7.5C18 6.67157 17.3284 6 16.5 6Z" fill="black"/>
<path fill-rule="evenodd" clip-rule="evenodd" d="M19.5 2C20.8807 2 22 3.11929 22 4.5V19.5C22 20.8807 20.8807 22 19.5 22H4.5C3.11929 22 2 20.8807 2 19.5V4.5C2 3.11929 3.11929 2 4.5 2H19.5ZM11.0117 12.9004C9.46147 10.9073 7.76771 10.5378 6.31934 10.8135C4.89972 11.0837 3.66307 11.9863 3 12.7705V19.5C3 20.3284 3.67157 21 4.5 21H19.5C20.3284 21 21 20.3284 21 19.5V15.8115C20.5537 15.4987 20.1626 15.3855 19.8154 15.3818C19.4137 15.3776 19.007 15.5206 18.5752 15.793C18.1409 16.067 17.7086 16.4545 17.2617 16.9014C17.0395 17.1236 16.8181 17.3553 16.5938 17.5908C16.3708 17.8248 16.1436 18.0634 15.916 18.291C15.8223 18.3847 15.6951 18.4375 15.5625 18.4375C15.3896 18.4375 15.2655 18.3532 15.2305 18.3291C15.1763 18.2918 15.1284 18.2478 15.0908 18.2109C15.014 18.1357 14.926 18.0355 14.832 17.9209C14.6416 17.6885 14.3814 17.3448 14.0488 16.9014C13.3795 16.009 12.3935 14.677 11.0117 12.9004ZM4.5 3C3.67157 3 3 3.67157 3 4.5V11.3691C3.80771 10.6873 4.90258 10.0661 6.13184 9.83203C7.95891 9.48427 10.0262 10.0054 11.8008 12.2871C13.1895 14.0726 14.183 15.4129 14.8496 16.3018C15.1537 16.7072 15.3861 17.0116 15.5566 17.2236C15.659 17.1173 15.7646 17.0111 15.8691 16.9014C16.0922 16.6673 16.3215 16.4265 16.5537 16.1943C17.0157 15.7323 17.5118 15.2818 18.042 14.9473C18.575 14.6111 19.1703 14.3749 19.8262 14.3818C20.2179 14.386 20.6086 14.4776 21 14.6602V4.5C21 3.67157 20.3284 3 19.5 3H4.5Z" fill="black"/>
</svg>
