<svg width="24" height="24" viewBox="0 0 24 24" fill="none" xmlns="http://www.w3.org/2000/svg">
<path d="M4.5 15C5.32843 15 6 15.6716 6 16.5C6 17.3284 5.32843 18 4.5 18C3.67157 18 3 17.3284 3 16.5C3 15.6716 3.67157 15 4.5 15Z" fill="black"/>
<path fill-rule="evenodd" clip-rule="evenodd" d="M20.5 13C21.8807 13 23 14.1193 23 15.5V17.5C23 18.8807 21.8807 20 20.5 20H3.5C2.11929 20 1 18.8807 1 17.5V15.5C1 14.1193 2.11929 13 3.5 13H20.5ZM3.5 14C2.67157 14 2 14.6716 2 15.5V17.5C2 18.3284 2.67157 19 3.5 19H20.5C21.3284 19 22 18.3284 22 17.5V15.5C22 14.6716 21.3284 14 20.5 14H3.5Z" fill="black"/>
<path d="M4.5 6C5.32843 6 6 6.67157 6 7.5C6 8.32843 5.32843 9 4.5 9C3.67157 9 3 8.32843 3 7.5C3 6.67157 3.67157 6 4.5 6Z" fill="black"/>
<path fill-rule="evenodd" clip-rule="evenodd" d="M20.5 4C21.8807 4 23 5.11929 23 6.5V8.5C23 9.88071 21.8807 11 20.5 11H3.5C2.11929 11 1 9.88071 1 8.5V6.5C1 5.11929 2.11929 4 3.5 4H20.5ZM3.5 5C2.67157 5 2 5.67157 2 6.5V8.5C2 9.32843 2.67157 10 3.5 10H20.5C21.3284 10 22 9.32843 22 8.5V6.5C22 5.67157 21.3284 5 20.5 5H3.5Z" fill="black"/>
</svg>
