<svg width="24" height="24" viewBox="0 0 24 24" fill="none" xmlns="http://www.w3.org/2000/svg">
<path fill-rule="evenodd" clip-rule="evenodd" d="M3.5 2C3.77614 2 4 2.22386 4 2.5V3.2334L4.36816 3.48047C6.40609 4.8468 9.08722 4.47383 11.2842 3.07812L11.5537 2.91602C14.3527 1.31994 17.8049 2.09136 20.3818 3.81934L20.7734 4.08203C20.8022 4.10091 20.8293 4.12223 20.8535 4.14648L20.8564 4.14941C20.8768 4.1701 20.895 4.19242 20.9111 4.21582C20.9194 4.2278 20.9254 4.24119 20.9326 4.25391C20.94 4.2669 20.9479 4.27943 20.9541 4.29297C20.96 4.30599 20.9649 4.31941 20.9697 4.33301C20.9754 4.34909 20.9803 4.36529 20.9844 4.38184C20.988 4.39688 20.9899 4.4122 20.9922 4.42773C20.9945 4.44366 20.9963 4.45948 20.9971 4.47559C20.9975 4.48371 21 4.49178 21 4.5V12.5C21 12.5049 20.9982 12.5098 20.998 12.5146C20.9975 12.5337 20.9949 12.5523 20.9922 12.5713C20.9902 12.5851 20.9894 12.5989 20.9863 12.6123C20.9829 12.6269 20.9774 12.6409 20.9727 12.6553C20.9541 12.7118 20.9259 12.7629 20.8896 12.8086C20.8783 12.8229 20.868 12.8378 20.8555 12.8506C20.8482 12.858 20.8398 12.8642 20.832 12.8711C20.8176 12.8841 20.8028 12.8962 20.7871 12.9072C20.7759 12.9152 20.7639 12.9217 20.752 12.9287C20.7371 12.9374 20.7226 12.946 20.707 12.9531C20.6952 12.9585 20.6832 12.9633 20.6709 12.9678C20.6542 12.9739 20.6374 12.9791 20.6201 12.9834C20.6066 12.9868 20.5931 12.99 20.5791 12.9922C20.56 12.9953 20.5408 12.9962 20.5215 12.9971C20.5143 12.9974 20.5072 13 20.5 13C20.4974 13 20.4948 12.9991 20.4922 12.999C20.469 12.9987 20.446 12.9958 20.4229 12.9922C20.4131 12.9907 20.4032 12.9904 20.3936 12.9883C20.3655 12.9822 20.3377 12.974 20.3105 12.9629L20.3086 12.9609C20.2758 12.9473 20.2446 12.9311 20.2158 12.9111L19.8252 12.6494C17.4223 11.0382 14.3963 10.4468 12.0459 11.7861L11.8203 11.9219C9.48368 13.4063 6.45093 13.9465 4 12.4307V21.5C4 21.7761 3.77614 22 3.5 22C3.22386 22 3 21.7761 3 21.5V2.5C3 2.22386 3.22386 2 3.5 2ZM19.8252 4.64941C17.4223 3.03817 14.3963 2.44682 12.0459 3.78613L11.8203 3.92188C9.48368 5.40634 6.45093 5.94654 4 4.43066V11.2334L4.36816 11.4805C6.40609 12.8468 9.08722 12.4738 11.2842 11.0781L11.5537 10.916C14.2168 9.39744 17.4708 10.0227 20 11.5752V4.76562L19.8252 4.64941Z" fill="black"/>
</svg>
