<svg width="24" height="24" viewBox="0 0 24 24" fill="none" xmlns="http://www.w3.org/2000/svg">
<path fill-rule="evenodd" clip-rule="evenodd" d="M12 1C12.0534 1 12.1064 1.00207 12.1592 1.00488C18.1609 1.09004 23 5.97803 23 12C23 18.022 18.1609 22.91 12.1592 22.9951C12.1064 22.9979 12.0534 23 12 23C11.9463 23 11.8929 22.998 11.8398 22.9951C5.83857 22.9094 1 18.0216 1 12C1 5.97836 5.83857 1.09056 11.8398 1.00488C11.8929 1.00203 11.9463 1 12 1ZM7.88574 16C8.13136 17.2152 8.48423 18.3032 8.91602 19.21C9.80006 21.0663 10.9236 22 12 22C13.0764 22 14.1999 21.0663 15.084 19.21C15.5158 18.3032 15.8686 17.2152 16.1143 16H7.88574ZM2.83496 16C4.02655 18.7264 6.39719 20.8167 9.30371 21.6289C8.81025 21.0823 8.37587 20.4023 8.0127 19.6396C7.51856 18.602 7.12802 17.3663 6.86719 16H2.83496ZM17.1328 16C16.872 17.3663 16.4814 18.602 15.9873 19.6396C15.624 20.4025 15.189 21.0822 14.6953 21.6289C17.6022 20.8169 19.9733 18.7267 21.165 16H17.1328ZM2.45801 9C2.16055 9.94706 2 10.9548 2 12C2 13.0452 2.16055 14.0529 2.45801 15H6.70312C6.5712 14.0449 6.5 13.0382 6.5 12C6.5 10.9618 6.5712 9.95514 6.70312 9H2.45801ZM7.71289 9C7.5753 9.94568 7.5 10.9529 7.5 12C7.5 13.0471 7.5753 14.0543 7.71289 15H16.2871C16.4247 14.0543 16.5 13.0471 16.5 12C16.5 10.9529 16.4247 9.94568 16.2871 9H7.71289ZM17.2969 9C17.4288 9.95514 17.5 10.9618 17.5 12C17.5 13.0382 17.4288 14.0449 17.2969 15H21.542C21.8395 14.0529 22 13.0452 22 12C22 10.9548 21.8395 9.94706 21.542 9H17.2969ZM9.30371 2.37012C6.39707 3.18225 4.02658 5.27353 2.83496 8H6.86719C7.12802 6.63369 7.51856 5.39805 8.0127 4.36035C8.37599 3.59743 8.81005 2.91684 9.30371 2.37012ZM12 2C10.9236 2 9.80006 2.93369 8.91602 4.79004C8.48423 5.69679 8.13136 6.78482 7.88574 8H16.1143C15.8686 6.78482 15.5158 5.69679 15.084 4.79004C14.1999 2.93369 13.0764 2 12 2ZM14.6953 2.37012C15.1892 2.91692 15.6239 3.5972 15.9873 4.36035C16.4814 5.39805 16.872 6.63369 17.1328 8H21.165C19.9733 5.27324 17.6024 3.18207 14.6953 2.37012Z" fill="black"/>
</svg>
