<svg width="24" height="24" viewBox="0 0 24 24" fill="none" xmlns="http://www.w3.org/2000/svg">
<path fill-rule="evenodd" clip-rule="evenodd" d="M12.8664 4.70811C14.8169 2.57533 18.1356 2.41901 20.2805 4.35752L20.4758 4.54307C22.4347 6.50239 22.524 9.66653 20.634 11.7345L20.635 11.7355L12.3704 20.836C12.2756 20.9404 12.1412 21.0001 12.0002 21.0001C11.8593 21.0001 11.7249 20.9404 11.6301 20.836L3.36547 11.7355C1.41501 9.60083 1.57389 6.29715 3.71996 4.35752L3.92406 4.18174C6.0706 2.43041 9.2445 2.64193 11.134 4.70811L12.0002 5.65538L12.8664 4.70811ZM19.6106 5.09874C17.8734 3.52871 15.1837 3.65657 13.6047 5.38292L12.3694 6.73448L12.2913 6.80284C12.207 6.86319 12.1056 6.89659 12.0002 6.89659C11.8949 6.89659 11.7934 6.86319 11.7092 6.80284L11.6311 6.73448L10.3957 5.38292C8.86612 3.71048 6.29449 3.53876 4.5559 4.95713L4.38988 5.09874C2.70872 6.61817 2.5367 9.17035 3.96117 10.8966L4.10473 11.0616L4.1057 11.0626L12.0002 19.756L19.8948 11.0626L19.8957 11.0616L20.0393 10.8966C21.4638 9.17035 21.2917 6.61817 19.6106 5.09874Z" fill="black"/>
</svg>
