<svg width="24" height="24" viewBox="0 0 24 24" fill="none" xmlns="http://www.w3.org/2000/svg">
<path d="M10.804 13.168V13.632H12.676V13.232C12.676 12.3698 13.32 11.8933 13.9938 11.3948C14.7329 10.8478 15.508 10.2744 15.508 9.136V8.656C15.508 7.2 14.244 6 12.1 6C10.5 6 9.444 6.544 8.5 7.296L9.396 8.48C10.276 7.872 10.9 7.536 11.924 7.536C12.9 7.536 13.46 8.048 13.46 8.832V9.216C13.46 9.81939 12.9493 10.2197 12.3757 10.6693C11.6414 11.2449 10.804 11.9013 10.804 13.168Z" fill="black"/>
<path d="M10.484 16.352C10.484 17.056 11.044 17.616 11.732 17.616C12.452 17.616 12.996 17.056 12.996 16.352C12.996 15.664 12.452 15.088 11.732 15.088C11.044 15.088 10.484 15.664 10.484 16.352Z" fill="black"/>
<path fill-rule="evenodd" clip-rule="evenodd" d="M12 1C5.92487 1 1 5.92487 1 12C1 18.0751 5.92487 23 12 23C18.0751 23 23 18.0751 23 12C23 5.92487 18.0751 1 12 1ZM2 12C2 6.47715 6.47715 2 12 2C17.5228 2 22 6.47715 22 12C22 17.5228 17.5228 22 12 22C6.47715 22 2 17.5228 2 12Z" fill="black"/>
</svg>
