<svg width="24" height="24" viewBox="0 0 24 24" fill="none" xmlns="http://www.w3.org/2000/svg">
<path d="M2.1466 2.14645C2.34187 1.95118 2.65837 1.95118 2.85364 2.14645L21.8536 21.1464C22.0489 21.3417 22.0489 21.6582 21.8536 21.8535C21.6584 22.0487 21.3419 22.0487 21.1466 21.8535L2.1466 2.85348C1.95134 2.65822 1.95134 2.34171 2.1466 2.14645Z" fill="black"/>
<path d="M4.71301 7.415C4.90519 7.2702 5.17362 7.29384 5.34387 7.46383C5.56402 7.68398 5.52837 8.04998 5.28039 8.23824C3.97058 9.23266 2.87896 10.5162 2.06848 12C4.02717 15.5859 7.63168 17.9999 11.9757 18C13.0533 17.9999 14.0877 17.8496 15.0646 17.5713C15.2481 17.519 15.4472 17.5672 15.5822 17.7021C15.8466 17.967 15.7455 18.4153 15.3859 18.5195C14.309 18.8314 13.1669 18.9999 11.9757 19C7.13133 18.9999 3.14158 16.2425 1.05774 12.2304C0.982707 12.086 0.982707 11.914 1.05774 11.7695C1.95251 10.0468 3.1987 8.55599 4.71301 7.415Z" fill="black"/>
<path d="M11.9757 4.99996C16.8175 5.00024 20.8596 7.75517 22.9445 11.7695C23.0193 11.9138 23.0193 12.0861 22.9445 12.2304C22.0515 13.9497 20.7976 15.4366 19.2775 16.5761C19.0852 16.72 18.8174 16.6952 18.6476 16.5254C18.4273 16.305 18.4625 15.9388 18.7111 15.7509C20.0259 14.7577 21.1241 13.4788 21.9327 12C19.9733 8.41641 16.3217 6.00024 11.9757 5.99996C10.9103 5.99997 9.88893 6.14573 8.9259 6.41793C8.74237 6.46979 8.54416 6.42193 8.4093 6.28707C8.14429 6.02188 8.24534 5.57338 8.60559 5.46969C9.66807 5.16446 10.7968 4.99997 11.9757 4.99996Z" fill="black"/>
<path d="M9.00012 11.5C9.27626 11.5 9.50012 11.7238 9.50012 12C9.50012 13.3807 10.6194 14.5 12.0001 14.5C12.2763 14.5 12.5001 14.7238 12.5001 15C12.5001 15.2761 12.2763 15.5 12.0001 15.5C10.0671 15.5 8.50012 13.933 8.50012 12C8.50012 11.7238 8.72398 11.5 9.00012 11.5Z" fill="black"/>
<path d="M12.0001 8.49996C13.9331 8.49996 15.5001 10.067 15.5001 12C15.5001 12.2761 15.2763 12.5 15.0001 12.5C14.724 12.5 14.5001 12.2761 14.5001 12C14.5001 10.6193 13.3808 9.49996 12.0001 9.49996C11.724 9.49996 11.5001 9.2761 11.5001 8.99996C11.5001 8.72382 11.724 8.49996 12.0001 8.49996Z" fill="black"/>
</svg>
