<svg width="24" height="24" viewBox="0 0 24 24" fill="none" xmlns="http://www.w3.org/2000/svg">
<path fill-rule="evenodd" clip-rule="evenodd" d="M11.6561 2.13702C11.849 1.95433 12.151 1.95433 12.3439 2.13702L21.8439 11.137C21.9435 11.2314 22 11.3627 22 11.5V21.5C22 21.7761 21.7761 22 21.5 22H14.5C14.2239 22 14 21.7761 14 21.5V18.5C14 17.6716 13.3284 17 12.5 17H11.5C10.6716 17 10 17.6716 10 18.5V21.5C10 21.7761 9.77614 22 9.5 22H2.5C2.22386 22 2 21.7761 2 21.5V11.5C2 11.3627 2.05646 11.2314 2.15613 11.137L11.6561 2.13702ZM3 11.7151V21H9V18.5C9 17.1193 10.1193 16 11.5 16H12.5C13.8807 16 15 17.1193 15 18.5V21H21V11.7151L12 3.18875L3 11.7151Z" fill="black"/>
</svg>
