<svg width="24" height="24" viewBox="0 0 24 24" fill="none" xmlns="http://www.w3.org/2000/svg">
<path fill-rule="evenodd" clip-rule="evenodd" d="M11.9996 1C13.1042 1 13.9996 1.89543 13.9996 3C13.9996 3.93144 13.3625 4.71111 12.5006 4.93359V8.03125C13.5945 8.16782 14.5508 8.74617 15.1861 9.58203L17.8688 8.03418C17.6302 7.17636 17.9878 6.23435 18.7945 5.76855C19.751 5.21636 20.9736 5.54366 21.526 6.5C22.0782 7.45654 21.751 8.6801 20.7945 9.23242C19.9872 9.69855 18.9913 9.53601 18.3678 8.89941L15.6871 10.4473C15.8884 10.9247 15.9996 11.4493 15.9996 12C15.9996 12.5504 15.8882 13.0745 15.6871 13.5518L18.3688 15.0996C18.9924 14.464 19.9877 14.3027 20.7945 14.7686C21.7508 15.3209 22.0782 16.5435 21.526 17.5C20.9738 18.4565 19.7511 18.7845 18.7945 18.2324C17.9873 17.7664 17.6295 16.823 17.8688 15.9648L15.1861 14.417C14.5508 15.2532 13.5947 15.8311 12.5006 15.9678V19.0654C13.3626 19.2878 13.9996 20.0685 13.9996 21C13.9996 22.1046 13.1042 23 11.9996 23C10.8952 22.9998 9.99962 22.1044 9.99962 21C9.99962 20.0681 10.638 19.2875 11.5006 19.0654V15.9678C10.4058 15.8314 9.4486 15.2537 8.81309 14.417L6.13048 15.9648C6.36986 16.8231 6.01294 17.7663 5.20567 18.2324C4.24912 18.7845 3.02647 18.4565 2.47423 17.5C1.922 16.5435 2.24934 15.3209 3.20567 14.7686C4.01232 14.3028 5.00683 14.4644 5.63048 15.0996L8.31212 13.5518C8.1111 13.0746 7.99962 12.5503 7.99962 12C7.99962 11.4494 8.11088 10.9246 8.31212 10.4473L5.63145 8.89941C5.00788 9.53563 4.01283 9.69844 3.20567 9.23242C2.24915 8.68011 1.92196 7.45656 2.47423 6.5C3.0266 5.54367 4.24919 5.21633 5.20567 5.76855C6.01252 6.2344 6.36914 7.1763 6.13048 8.03418L8.81309 9.58203C9.44863 8.74567 10.4061 8.16759 11.5006 8.03125V4.93359C10.6381 4.71147 9.99962 3.93181 9.99962 3C9.99962 1.89557 10.8952 1.00023 11.9996 1ZM11.9996 20C11.4475 20.0002 10.9996 20.4479 10.9996 21C10.9996 21.5521 11.4475 21.9998 11.9996 22C12.5519 22 12.9996 21.5523 12.9996 21C12.9996 20.4477 12.5519 20 11.9996 20ZM5.07188 16C4.7957 15.5218 4.18391 15.3577 3.70567 15.6338C3.22749 15.9099 3.06358 16.5218 3.33946 17C3.61557 17.4782 4.2274 17.6422 4.70567 17.3662C5.18396 17.0901 5.34802 16.4783 5.07188 16ZM20.2945 15.6338C19.8163 15.3577 19.2045 15.5219 18.9283 16C18.6522 16.4783 18.8162 17.0901 19.2945 17.3662C19.7728 17.6422 20.3846 17.4782 20.6607 17C20.9366 16.5218 20.7727 15.9099 20.2945 15.6338ZM11.9996 9C10.343 9.00023 8.99962 10.3433 8.99962 12C8.99962 13.6567 10.343 14.9998 11.9996 15C13.6565 15 14.9996 13.6569 14.9996 12C14.9996 10.3431 13.6565 9 11.9996 9ZM4.70567 6.63379C4.22743 6.35791 3.61554 6.52182 3.33946 7C3.06336 7.47823 3.22751 8.09002 3.70567 8.36621C4.18396 8.64235 4.79574 8.47829 5.07188 8C5.34791 7.52173 5.18391 6.9099 4.70567 6.63379ZM20.6607 7C20.3847 6.52183 19.7728 6.35795 19.2945 6.63379C18.8163 6.90991 18.6523 7.52172 18.9283 8C19.2045 8.47829 19.8162 8.64235 20.2945 8.36621C20.7726 8.09002 20.9368 7.47821 20.6607 7ZM11.9996 2C11.4475 2.00023 10.9996 2.44786 10.9996 3C10.9996 3.55215 11.4475 3.99977 11.9996 4C12.5519 4 12.9996 3.55228 12.9996 3C12.9996 2.44772 12.5519 2 11.9996 2Z" fill="black"/>
</svg>
