<svg width="24" height="24" viewBox="0 0 24 24" fill="none" xmlns="http://www.w3.org/2000/svg">
<g clip-path="url(#clip0_6457_12644)">
<path d="M11.4604 1.01301C11.6392 1.00437 11.8191 1 12 1C12.1809 1 12.3608 1.00437 12.5396 1.01301C12.8154 1.02634 13.0282 1.26075 13.0148 1.53657C13.0015 1.81239 12.7671 2.02518 12.4913 2.01185C12.3286 2.00398 12.1648 2 12 2C11.8352 2 11.6714 2.00398 11.5087 2.01185C11.2329 2.02518 10.9985 1.81239 10.9852 1.53657C10.9718 1.26075 11.1846 1.02634 11.4604 1.01301Z" fill="black"/>
<path d="M15.0677 1.94267C15.1607 1.68268 15.4469 1.54734 15.7069 1.64038C16.0475 1.76227 16.3803 1.90046 16.7044 2.05402C16.954 2.17225 17.0604 2.4704 16.9422 2.71995C16.824 2.9695 16.5258 3.07595 16.2763 2.95772C15.9818 2.81819 15.6794 2.69263 15.37 2.58191C15.11 2.48886 14.9746 2.20267 15.0677 1.94267Z" fill="black"/>
<path d="M8.93232 1.94267C9.02536 2.20267 8.89002 2.48886 8.63002 2.58191C8.32061 2.69263 8.01823 2.81819 7.72373 2.95772C7.47419 3.07595 7.17604 2.9695 7.0578 2.71995C6.93957 2.4704 7.04602 2.17225 7.29557 2.05402C7.61966 1.90046 7.95248 1.76227 8.29309 1.64038C8.55308 1.54734 8.83928 1.68268 8.93232 1.94267Z" fill="black"/>
<path d="M5.319 3.88402C5.50451 4.08858 5.48907 4.40478 5.28452 4.59029C5.04196 4.81025 4.81025 5.04196 4.59029 5.28452C4.40478 5.48907 4.08858 5.50451 3.88402 5.319C3.67947 5.1335 3.66403 4.81729 3.84954 4.61274C4.09136 4.34609 4.34609 4.09136 4.61274 3.84954C4.81729 3.66403 5.1335 3.67947 5.319 3.88402Z" fill="black"/>
<path d="M18.681 3.88402C18.8665 3.67947 19.1827 3.66403 19.3873 3.84954C19.6539 4.09136 19.9086 4.34609 20.1505 4.61274C20.336 4.81729 20.3205 5.1335 20.116 5.319C19.9114 5.50451 19.5952 5.48907 19.4097 5.28452C19.1897 5.04196 18.958 4.81025 18.7155 4.59029C18.5109 4.40478 18.4955 4.08858 18.681 3.88402Z" fill="black"/>
<path d="M21.28 7.0578C21.5296 6.93957 21.8277 7.04602 21.946 7.29557C22.0995 7.61966 22.2377 7.95248 22.3596 8.29309C22.4527 8.55308 22.3173 8.83928 22.0573 8.93232C21.7973 9.02536 21.5111 8.89002 21.4181 8.63002C21.3074 8.32061 21.1818 8.01823 21.0423 7.72373C20.924 7.47419 21.0305 7.17604 21.28 7.0578Z" fill="black"/>
<path d="M2.71995 7.0578C2.9695 7.17604 3.07595 7.47419 2.95772 7.72374C2.81819 8.01823 2.69263 8.32062 2.58191 8.63003C2.48886 8.89002 2.20267 9.02536 1.94267 8.93232C1.68268 8.83928 1.54734 8.55309 1.64038 8.29309C1.76227 7.95249 1.90046 7.61966 2.05402 7.29557C2.17225 7.04602 2.4704 6.93957 2.71995 7.0578Z" fill="black"/>
<path d="M22.4634 10.9852C22.7393 10.9718 22.9737 11.1846 22.987 11.4604C22.9956 11.6392 23 11.8191 23 12C23 12.1809 22.9956 12.3608 22.987 12.5396C22.9737 12.8154 22.7393 13.0282 22.4634 13.0148C22.1876 13.0015 21.9748 12.7671 21.9882 12.4913C21.996 12.3286 22 12.1648 22 12C22 11.8352 21.996 11.6714 21.9882 11.5087C21.9748 11.2329 22.1876 10.9985 22.4634 10.9852Z" fill="black"/>
<path d="M1.53657 10.9852C1.81239 10.9985 2.02518 11.2329 2.01185 11.5087C2.00398 11.6714 2 11.8352 2 12C2 12.1648 2.00398 12.3286 2.01185 12.4913C2.02518 12.7671 1.81239 13.0015 1.53657 13.0148C1.26075 13.0282 1.02634 12.8154 1.01301 12.5396C1.00437 12.3608 1 12.1809 1 12C1 11.8191 1.00437 11.6392 1.01301 11.4604C1.02634 11.1846 1.26075 10.9718 1.53657 10.9852Z" fill="black"/>
<path d="M22.0573 15.0677C22.3173 15.1607 22.4527 15.4469 22.3596 15.7069C22.2377 16.0475 22.0995 16.3803 21.946 16.7044C21.8277 16.954 21.5296 17.0604 21.28 16.9422C21.0305 16.824 20.924 16.5258 21.0423 16.2763C21.1818 15.9818 21.3074 15.6794 21.4181 15.37C21.5111 15.11 21.7973 14.9746 22.0573 15.0677Z" fill="black"/>
<path d="M1.94267 15.0677C2.20267 14.9746 2.48886 15.11 2.58191 15.37C2.69263 15.6794 2.81819 15.9818 2.95772 16.2763C3.07595 16.5258 2.9695 16.824 2.71995 16.9422C2.4704 17.0604 2.17225 16.954 2.05402 16.7044C1.90046 16.3803 1.76227 16.0475 1.64038 15.7069C1.54734 15.4469 1.68268 15.1607 1.94267 15.0677Z" fill="black"/>
<path d="M3.88402 18.681C4.08858 18.4955 4.40478 18.5109 4.59029 18.7155C4.81025 18.958 5.04196 19.1897 5.28452 19.4097C5.48907 19.5952 5.50451 19.9114 5.319 20.116C5.1335 20.3205 4.81729 20.336 4.61274 20.1505C4.34609 19.9086 4.09136 19.6539 3.84954 19.3873C3.66403 19.1827 3.67947 18.8665 3.88402 18.681Z" fill="black"/>
<path d="M20.116 18.681C20.3205 18.8665 20.336 19.1827 20.1505 19.3873C19.9086 19.6539 19.6539 19.9086 19.3873 20.1505C19.1827 20.336 18.8665 20.3205 18.681 20.116C18.4955 19.9114 18.5109 19.5952 18.7155 19.4097C18.958 19.1897 19.1897 18.958 19.4097 18.7155C19.5952 18.5109 19.9114 18.4955 20.116 18.681Z" fill="black"/>
<path d="M7.0578 21.28C7.17604 21.0305 7.47419 20.924 7.72374 21.0423C8.01823 21.1818 8.32062 21.3074 8.63003 21.4181C8.89002 21.5111 9.02536 21.7973 8.93232 22.0573C8.83928 22.3173 8.55309 22.4527 8.29309 22.3596C7.95249 22.2377 7.61966 22.0995 7.29557 21.946C7.04602 21.8277 6.93957 21.5296 7.0578 21.28Z" fill="black"/>
<path d="M16.9422 21.28C17.0604 21.5296 16.954 21.8277 16.7044 21.946C16.3803 22.0995 16.0475 22.2377 15.7069 22.3596C15.4469 22.4527 15.1607 22.3173 15.0677 22.0573C14.9746 21.7973 15.11 21.5111 15.37 21.4181C15.6794 21.3074 15.9818 21.1818 16.2763 21.0423C16.5258 20.924 16.824 21.0305 16.9422 21.28Z" fill="black"/>
<path d="M10.9852 22.4634C10.9985 22.1876 11.2329 21.9748 11.5087 21.9882C11.6714 21.996 11.8352 22 12 22C12.1648 22 12.3286 21.996 12.4913 21.9882C12.7671 21.9748 13.0015 22.1876 13.0148 22.4634C13.0282 22.7393 12.8154 22.9737 12.5396 22.987C12.3608 22.9956 12.1809 23 12 23C11.8191 23 11.6392 22.9956 11.4604 22.987C11.1846 22.9737 10.9718 22.7393 10.9852 22.4634Z" fill="black"/>
</g>
<defs>
<clipPath id="clip0_6457_12644">
<rect width="24" height="24" fill="white"/>
</clipPath>
</defs>
</svg>
