<svg width="24" height="24" viewBox="0 0 24 24" fill="none" xmlns="http://www.w3.org/2000/svg">
<path fill-rule="evenodd" clip-rule="evenodd" d="M15.5 1C15.6326 1 15.7597 1.05272 15.8535 1.14648L20.8535 6.14648C20.9473 6.24025 21 6.36739 21 6.5V20.5C21 21.8807 19.8807 23 18.5 23H5.5C4.11929 23 3 21.8807 3 20.5V14.5C3 14.2239 3.22386 14 3.5 14C3.77614 14 4 14.2239 4 14.5V20.5C4 21.3284 4.67157 22 5.5 22H18.5C19.3284 22 20 21.3284 20 20.5V7H17.5C16.1193 7 15 5.88071 15 4.5V2H5.5C4.67157 2 4 2.67157 4 3.5V10.5C4 10.7761 3.77614 11 3.5 11C3.22386 11 3 10.7761 3 10.5V3.5C3 2.11929 4.11929 1 5.5 1H15.5ZM16 4.5C16 5.32843 16.6716 6 17.5 6H19.293L16 2.70703V4.5Z" fill="black"/>
<path d="M11.1465 9.14648C11.3173 8.97562 11.5813 8.95387 11.7754 9.08203L11.8535 9.14648L14.8535 12.1465C15.0488 12.3417 15.0488 12.6583 14.8535 12.8535L11.8535 15.8535C11.6583 16.0488 11.3417 16.0488 11.1465 15.8535C10.9512 15.6583 10.9512 15.3417 11.1465 15.1465L13.293 13H2.5C2.22386 13 2 12.7761 2 12.5C2 12.2239 2.22386 12 2.5 12H13.293L11.1465 9.85352L11.082 9.77539C10.9539 9.58131 10.9756 9.31735 11.1465 9.14648Z" fill="black"/>
</svg>
