<svg width="24" height="24" viewBox="0 0 24 24" fill="none" xmlns="http://www.w3.org/2000/svg">
<path fill-rule="evenodd" clip-rule="evenodd" d="M18.5 1C19.8807 1 21 2.11929 21 3.5V20.5C21 21.8807 19.8807 23 18.5 23H5.5C4.11929 23 3 21.8807 3 20.5V3.5C3 2.11929 4.11929 1 5.5 1H18.5ZM4 20.5C4 21.3284 4.67157 22 5.5 22H18.5C19.3284 22 20 21.3284 20 20.5V16H14.9414C14.6572 17.2041 13.3657 18 12 18C10.6343 18 9.34277 17.2041 9.05859 16H4V20.5ZM7.5 5C6.67157 5 6 5.67157 6 6.5V15H9.5C9.77614 15 10 15.2239 10 15.5C10 16.2301 10.7855 17 12 17C13.2145 17 14 16.2301 14 15.5C14 15.2239 14.2239 15 14.5 15H18V6.5C18 5.67157 17.3284 5 16.5 5H7.5ZM5.5 2C4.67157 2 4 2.67157 4 3.5V15H5V6.5C5 5.11929 6.11929 4 7.5 4H16.5C17.8807 4 19 5.11929 19 6.5V15H20V3.5C20 2.67157 19.3284 2 18.5 2H5.5Z" fill="black"/>
</svg>
