<svg width="24" height="24" viewBox="0 0 24 24" fill="none" xmlns="http://www.w3.org/2000/svg">
<path fill-rule="evenodd" clip-rule="evenodd" d="M12 1C16.4183 1 20 4.58172 20 9C20 10.6988 19.0883 12.6559 17.8936 14.2432C16.6722 15.8659 16 17.8194 16 20V20.5C16 21.8807 14.8807 23 13.5 23H10.5C9.11929 23 8 21.8807 8 20.5V20C8 17.9553 7.40869 16.1106 6.32812 14.5508L6.10645 14.2432C4.91165 12.6559 4 10.6988 4 9C4 4.58172 7.58172 1 12 1ZM9 20V20.5C9 21.3284 9.67157 22 10.5 22H13.5C14.3284 22 15 21.3284 15 20.5V20H9ZM12 2C8.13401 2 5 5.13401 5 9C5 10.3892 5.77137 12.1353 6.90527 13.6416C8.06814 15.1865 8.7781 17.0029 8.95508 19.0039C8.96993 19.0026 8.9848 19 9 19H15C15.0149 19 15.0294 19.0026 15.0439 19.0039C15.2209 17.0029 15.9318 15.1865 17.0947 13.6416C18.2286 12.1353 19 10.3892 19 9C19 5.13401 15.866 2 12 2Z" fill="black"/>
</svg>
