<svg width="24" height="24" viewBox="0 0 24 24" fill="none" xmlns="http://www.w3.org/2000/svg">
<path d="M17.5 17C17.7761 17 18 17.2239 18 17.5C18 17.7761 17.7761 18 17.5 18H6.5C6.22386 18 6 17.7761 6 17.5C6 17.2239 6.22386 17 6.5 17H17.5Z" fill="black"/>
<path d="M17.5 13C17.7761 13 18 13.2239 18 13.5C18 13.7761 17.7761 14 17.5 14H6.5C6.22386 14 6 13.7761 6 13.5C6 13.2239 6.22386 13 6.5 13H17.5Z" fill="black"/>
<path d="M17.5 9C17.7761 9 18 9.22386 18 9.5C18 9.77614 17.7761 10 17.5 10H6.5C6.22386 10 6 9.77614 6 9.5C6 9.22386 6.22386 9 6.5 9H17.5Z" fill="black"/>
<path d="M17.5 5C17.7761 5 18 5.22386 18 5.5C18 5.77614 17.7761 6 17.5 6H6.5C6.22386 6 6 5.77614 6 5.5C6 5.22386 6.22386 5 6.5 5H17.5Z" fill="black"/>
<path fill-rule="evenodd" clip-rule="evenodd" d="M18.5 1C19.8807 1 21 2.11929 21 3.5V20.5C21 21.8807 19.8807 23 18.5 23H5.5C4.11929 23 3 21.8807 3 20.5V3.5C3 2.11929 4.11929 1 5.5 1H18.5ZM5.5 2C4.67157 2 4 2.67157 4 3.5V20.5C4 21.3284 4.67157 22 5.5 22H18.5C19.3284 22 20 21.3284 20 20.5V3.5C20 2.67157 19.3284 2 18.5 2H5.5Z" fill="black"/>
</svg>
