<svg width="24" height="24" viewBox="0 0 24 24" fill="none" xmlns="http://www.w3.org/2000/svg">
<path fill-rule="evenodd" clip-rule="evenodd" d="M5.5 4C6.32843 4 7 4.67157 7 5.5V19.5C7 20.3284 6.32843 21 5.5 21H3.5C2.67157 21 2 20.3284 2 19.5V5.5C2 4.67157 2.67157 4 3.5 4H5.5ZM3.5 5C3.22386 5 3 5.22386 3 5.5V19.5C3 19.7761 3.22386 20 3.5 20H5.5C5.77614 20 6 19.7761 6 19.5V5.5C6 5.22386 5.77614 5 5.5 5H3.5Z" fill="black"/>
<path fill-rule="evenodd" clip-rule="evenodd" d="M11.5 2C12.3284 2 13 2.67157 13 3.5V19.5C13 20.3284 12.3284 21 11.5 21H9.5C8.67157 21 8 20.3284 8 19.5V3.5C8 2.67157 8.67157 2 9.5 2H11.5ZM9.5 3C9.22386 3 9 3.22386 9 3.5V19.5C9 19.7761 9.22386 20 9.5 20H11.5C11.7761 20 12 19.7761 12 19.5V3.5C12 3.22386 11.7761 3 11.5 3H9.5Z" fill="black"/>
<path fill-rule="evenodd" clip-rule="evenodd" d="M17.4238 4.25391C18.2185 4.05531 19.0251 4.53084 19.2363 5.32227L22.7217 18.3896C22.9375 19.199 22.4483 20.0283 21.6357 20.2314L19.5762 20.7461C18.7815 20.9447 17.9749 20.4692 17.7637 19.6777L14.2783 6.61035C14.0625 5.80104 14.5517 4.9717 15.3643 4.76855L17.4238 4.25391ZM17.666 5.22363L15.6064 5.73828C15.3357 5.80605 15.1732 6.08281 15.2451 6.35254L18.7295 19.4199C18.7999 19.6838 19.069 19.8426 19.334 19.7764L21.3936 19.2617C21.6643 19.1939 21.8268 18.9172 21.7549 18.6475L18.2705 5.58008C18.2001 5.31621 17.931 5.1574 17.666 5.22363Z" fill="black"/>
</svg>
