<svg width="24" height="24" viewBox="0 0 24 24" fill="none" xmlns="http://www.w3.org/2000/svg">
<path fill-rule="evenodd" clip-rule="evenodd" d="M3.5 3C2.67157 3 2 3.67157 2 4.5C2 5.32843 2.67157 6 3.5 6C4.32843 6 5 5.32843 5 4.5C5 3.67157 4.32843 3 3.5 3Z" fill="black"/>
<path d="M6.5 4C6.22386 4 6 4.22386 6 4.5C6 4.77614 6.22386 5 6.5 5H21.5C21.7761 5 22 4.77614 22 4.5C22 4.22386 21.7761 4 21.5 4H6.5Z" fill="black"/>
<path d="M6 12.5C6 12.2239 6.22386 12 6.5 12H21.5C21.7761 12 22 12.2239 22 12.5C22 12.7761 21.7761 13 21.5 13H6.5C6.22386 13 6 12.7761 6 12.5Z" fill="black"/>
<path fill-rule="evenodd" clip-rule="evenodd" d="M3.5 11C2.67157 11 2 11.6716 2 12.5C2 13.3284 2.67157 14 3.5 14C4.32843 14 5 13.3284 5 12.5C5 11.6716 4.32843 11 3.5 11Z" fill="black"/>
<path d="M6 20.5C6 20.2239 6.22386 20 6.5 20H21.5C21.7761 20 22 20.2239 22 20.5C22 20.7761 21.7761 21 21.5 21H6.5C6.22386 21 6 20.7761 6 20.5Z" fill="black"/>
<path fill-rule="evenodd" clip-rule="evenodd" d="M3.5 19C2.67157 19 2 19.6716 2 20.5C2 21.3284 2.67157 22 3.5 22C4.32843 22 5 21.3284 5 20.5C5 19.6716 4.32843 19 3.5 19Z" fill="black"/>
</svg>
