<svg width="24" height="24" viewBox="0 0 24 24" fill="none" xmlns="http://www.w3.org/2000/svg">
<path fill-rule="evenodd" clip-rule="evenodd" d="M12 5.5C13.933 5.5 15.5 7.067 15.5 9C15.5 10.933 13.933 12.5 12 12.5C10.067 12.5 8.5 10.933 8.5 9C8.5 7.067 10.067 5.5 12 5.5ZM12 6.5C10.6193 6.5 9.5 7.61929 9.5 9C9.5 10.3807 10.6193 11.5 12 11.5C13.3807 11.5 14.5 10.3807 14.5 9C14.5 7.61929 13.3807 6.5 12 6.5Z" fill="black"/>
<path fill-rule="evenodd" clip-rule="evenodd" d="M12 1C16.4183 1 20 4.58172 20 9C20 10.5676 19.5487 12.0314 18.7686 13.2666C18.7617 13.2775 18.7538 13.2885 18.7461 13.2988L12.4004 21.7988C12.306 21.9253 12.1578 22 12 22C11.8422 22 11.694 21.9253 11.5996 21.7988L5.25391 13.2988C5.24619 13.2885 5.23834 13.2775 5.23145 13.2666C4.45132 12.0314 4 10.5676 4 9C4 4.58172 7.58172 1 12 1ZM12 2C8.13401 2 5 5.13401 5 9C5 10.3655 5.39019 11.6386 6.06543 12.7148L12 20.6641L17.9336 12.7148C18.609 11.6385 19 10.3657 19 9C19 5.13401 15.866 2 12 2Z" fill="black"/>
</svg>
