<svg width="24" height="24" viewBox="0 0 24 24" fill="none" xmlns="http://www.w3.org/2000/svg">
<path d="M11.5 13C11.7761 13 12 13.2239 12 13.5V16.5C12 16.7761 11.7761 17 11.5 17C11.2239 17 11 16.7761 11 16.5V13.5C11 13.2239 11.2239 13 11.5 13Z" fill="black"/>
<path fill-rule="evenodd" clip-rule="evenodd" d="M11.5 2C13.9853 2 16 4.01472 16 6.5V9H16.5C17.8807 9 19 10.1193 19 11.5V18.5C19 19.8807 17.8807 21 16.5 21H6.5C5.11929 21 4 19.8807 4 18.5V11.5C4 10.1193 5.11929 9 6.5 9H7V6.5C7 4.01472 9.01472 2 11.5 2ZM6.5 10C5.67157 10 5 10.6716 5 11.5V18.5C5 19.3284 5.67157 20 6.5 20H16.5C17.3284 20 18 19.3284 18 18.5V11.5C18 10.6716 17.3284 10 16.5 10H6.5ZM11.5 3C9.567 3 8 4.567 8 6.5V9H15V6.5C15 4.567 13.433 3 11.5 3Z" fill="black"/>
</svg>
