<svg width="24" height="24" viewBox="0 0 24 24" fill="none" xmlns="http://www.w3.org/2000/svg">
<path fill-rule="evenodd" clip-rule="evenodd" d="M20.5 4C21.8807 4 23 5.11929 23 6.5V17.5C23 18.8807 21.8807 20 20.5 20H3.5C2.11929 20 1 18.8807 1 17.5V6.5C1 5.11929 2.11929 4 3.5 4H20.5ZM13.6104 12.7979C12.6798 13.5813 11.3202 13.5813 10.3896 12.7979L10.0088 12.4775L2.85547 18.8525C3.05096 18.9459 3.26893 19 3.5 19H20.5C20.7308 19 20.9483 18.9456 21.1436 18.8525L13.9902 12.4775L13.6104 12.7979ZM2.14746 5.85254C2.05342 6.04864 2 6.26799 2 6.5V17.5C2 17.7317 2.05366 17.9506 2.14746 18.1465C2.15395 18.14 2.16008 18.1331 2.16699 18.127L9.23535 11.8262L2.17773 5.88281C2.1667 5.87352 2.15748 5.86255 2.14746 5.85254ZM21.8223 5.88281L14.7637 11.8262L21.833 18.127C21.8397 18.133 21.8452 18.1402 21.8516 18.1465C21.9455 17.9505 22 17.7318 22 17.5V6.5C22 6.26784 21.9457 6.04873 21.8516 5.85254C21.8417 5.86237 21.8331 5.87368 21.8223 5.88281ZM3.5 5C3.26954 5 3.05154 5.05265 2.85645 5.14551L11.0342 12.0322C11.5925 12.5024 12.4075 12.5024 12.9658 12.0322L21.1426 5.14551C20.9477 5.05288 20.7301 5 20.5 5H3.5Z" fill="black"/>
</svg>
