<svg width="24" height="24" viewBox="0 0 24 24" fill="none" xmlns="http://www.w3.org/2000/svg">
<path d="M9 1C11.4836 1 13.5 3.23675 13.5 6C13.5 7.07707 13.1933 8.07445 12.6719 8.89062C12.5324 9.10898 12.3775 9.31444 12.209 9.50488L12.0361 9.69043L12.2656 9.80664C12.4175 9.88688 12.566 9.97266 12.7109 10.0635L12.9258 10.2041L13.0039 10.2686C13.1662 10.4351 13.1943 10.6985 13.0586 10.8984C12.9228 11.0983 12.6678 11.1687 12.4531 11.0791L12.3643 11.0312L12.1807 10.9111C12.0564 10.8333 11.9289 10.7602 11.7988 10.6914L11.6016 10.5918C10.9843 10.2942 10.8425 9.47768 11.3232 8.98926L11.46 8.84277C11.5936 8.69173 11.7171 8.52779 11.8291 8.35254C12.2475 7.69755 12.5 6.88685 12.5 6C12.5 3.69098 10.8381 2 9 2C7.16185 2 5.5 3.69098 5.5 6C5.5 6.88685 5.75246 7.69755 6.1709 8.35254L6.28613 8.52344C6.40577 8.69105 6.53654 8.84678 6.67676 8.98926L6.75977 9.08496C7.11252 9.54527 6.9963 10.2161 6.50879 10.5303L6.39844 10.5918C6.19917 10.6879 6.00576 10.7943 5.81934 10.9111L5.63574 11.0312C4.04315 12.1121 3 13.9343 3 16V19.5C3 20.3284 3.67157 21 4.5 21H10.5C10.7761 21 11 21.2239 11 21.5C11 21.7761 10.7761 22 10.5 22H4.5C3.11929 22 2 20.8807 2 19.5V16C2 13.5891 3.21904 11.4631 5.07422 10.2041L5.28906 10.0635C5.43404 9.97266 5.58252 9.88688 5.73438 9.80664L5.96387 9.69043C5.78642 9.5101 5.62225 9.31405 5.47266 9.10449L5.32812 8.89062C4.80674 8.07445 4.5 7.07707 4.5 6C4.5 3.23675 6.51637 1 9 1Z" fill="black"/>
<path fill-rule="evenodd" clip-rule="evenodd" d="M16.0605 14C17.1649 14.0003 18.0605 14.8956 18.0605 16C18.0605 17.1044 17.1649 17.9997 16.0605 18C14.956 18 14.0605 17.1046 14.0605 16C14.0605 14.8954 14.956 14 16.0605 14ZM16.0605 15C15.5083 15 15.0605 15.4477 15.0605 16C15.0605 16.5523 15.5083 17 16.0605 17C16.6126 16.9997 17.0605 16.5521 17.0605 16C17.0605 15.4479 16.6126 15.0003 16.0605 15Z" fill="black"/>
<path fill-rule="evenodd" clip-rule="evenodd" d="M17.1631 10C17.2957 10 17.4228 10.0527 17.5166 10.1465C17.6104 10.2403 17.6631 10.3674 17.6631 10.5V11.7588C17.8901 11.8447 18.1135 11.9492 18.3301 12.0742C18.5462 12.199 18.747 12.3408 18.9346 12.4941L20.0264 11.8643C20.2654 11.7264 20.5708 11.8081 20.709 12.0469L21.8096 13.9521L21.8496 14.042C21.8811 14.1349 21.8851 14.2358 21.8594 14.332C21.8251 14.4601 21.7408 14.5694 21.626 14.6357L20.5342 15.2646C20.6137 15.7465 20.6156 16.2422 20.5352 16.7334L21.626 17.3643C21.865 17.5022 21.9473 17.8078 21.8096 18.0469L20.709 19.9521C20.6427 20.067 20.5334 20.1512 20.4053 20.1855C20.3093 20.2112 20.2089 20.2071 20.1162 20.1758L20.0264 20.1357L18.9355 19.5049C18.5504 19.8204 18.1203 20.067 17.6631 20.2393V21.5C17.6631 21.6326 17.6104 21.7597 17.5166 21.8535C17.4228 21.9473 17.2957 22 17.1631 22H14.9629C14.6868 21.9999 14.4629 21.7761 14.4629 21.5V20.2393C14.2363 20.1534 14.0131 20.0506 13.7969 19.9258C13.5802 19.8007 13.3784 19.6586 13.1904 19.5049L12.0996 20.1357L12.0107 20.1758C11.9178 20.2073 11.8169 20.2113 11.7207 20.1855C11.6246 20.1598 11.5393 20.1059 11.4746 20.0322L11.417 19.9521L10.3174 18.0469C10.1794 17.8077 10.2609 17.5023 10.5 17.3643L11.5908 16.7334C11.5116 16.2519 11.5094 15.7564 11.5898 15.2656L10.5 14.6357C10.3852 14.5694 10.3009 14.4601 10.2666 14.332C10.2323 14.204 10.2511 14.067 10.3174 13.9521L11.417 12.0469L11.4766 11.9648C11.6308 11.7912 11.8906 11.7438 12.0996 11.8643L13.1895 12.4932C13.5746 12.1777 14.0058 11.932 14.4629 11.7598V10.5C14.4629 10.2239 14.6868 10.0001 14.9629 10H17.1631ZM15.4629 12.1191C15.4629 12.3427 15.3147 12.5395 15.0996 12.6006L14.8926 12.666C14.4151 12.8334 13.9725 13.1031 13.6006 13.4648C13.4602 13.6014 13.255 13.6422 13.0762 13.5752L13.002 13.54L12.0322 12.9805L11.4316 14.0186L12.4014 14.5791C12.5951 14.691 12.6916 14.9179 12.6367 15.1348L12.5889 15.3506C12.5077 15.785 12.5103 16.2269 12.5908 16.6533L12.6377 16.8652L12.6514 16.9463C12.6672 17.1366 12.5719 17.323 12.4023 17.4209L11.4326 17.9795L12.0322 19.0186L13.002 18.46C13.1714 18.3623 13.3794 18.3738 13.5361 18.4824L13.5996 18.5342L13.7588 18.6797C13.9226 18.8202 14.1025 18.9474 14.2969 19.0596C14.556 19.2092 14.8254 19.3224 15.0996 19.4004C15.3146 19.4615 15.4629 19.6583 15.4629 19.8818V21H16.6631V19.8809C16.6631 19.6574 16.8114 19.4605 17.0264 19.3994C17.5828 19.2417 18.1012 18.9487 18.5264 18.5352L18.5898 18.4824C18.7467 18.3736 18.9555 18.3621 19.125 18.46L20.0928 19.0186L20.6924 17.9795L19.7246 17.4209L19.6562 17.374C19.509 17.2527 19.4422 17.0549 19.4902 16.8652C19.6176 16.3622 19.629 15.844 19.5352 15.3467L19.4893 15.1348L19.4756 15.0537C19.4597 14.8633 19.554 14.677 19.7236 14.5791L20.6924 14.0186L20.0928 12.9805L19.125 13.54L19.0498 13.5752C18.8713 13.642 18.6667 13.6018 18.5264 13.4658C18.3218 13.2673 18.0892 13.0901 17.8301 12.9404C17.5708 12.7907 17.3007 12.6776 17.0264 12.5996C16.8114 12.5385 16.6631 12.3417 16.6631 12.1182V11H15.4629V12.1191Z" fill="black"/>
</svg>
