<svg width="24" height="24" viewBox="0 0 24 24" fill="none" xmlns="http://www.w3.org/2000/svg">
<path d="M2.5 15C2.77614 15 3 15.2239 3 15.5V19.5C3 20.3284 3.67157 21 4.5 21H8.5C8.77614 21 9 21.2239 9 21.5C9 21.7761 8.77614 22 8.5 22H4.5C3.11929 22 2 20.8807 2 19.5V15.5C2 15.2239 2.22386 15 2.5 15Z" fill="black"/>
<path d="M21.5 15C21.7761 15 22 15.2239 22 15.5V19.5C22 20.8807 20.8807 22 19.5 22H15.5C15.2239 22 15 21.7761 15 21.5C15 21.2239 15.2239 21 15.5 21H19.5C20.3284 21 21 20.3284 21 19.5V15.5C21 15.2239 21.2239 15 21.5 15Z" fill="black"/>
<path d="M8.5 2C8.77614 2 9 2.22386 9 2.5C9 2.77614 8.77614 3 8.5 3H4.5C3.67157 3 3 3.67157 3 4.5V8.5C3 8.77614 2.77614 9 2.5 9C2.22386 9 2 8.77614 2 8.5V4.5C2 3.11929 3.11929 2 4.5 2H8.5Z" fill="black"/>
<path d="M19.5 2C20.8807 2 22 3.11929 22 4.5V8.5C22 8.77614 21.7761 9 21.5 9C21.2239 9 21 8.77614 21 8.5V4.5C21 3.67157 20.3284 3 19.5 3H15.5C15.2239 3 15 2.77614 15 2.5C15 2.22386 15.2239 2 15.5 2H19.5Z" fill="black"/>
</svg>
