<svg width="24" height="24" viewBox="0 0 24 24" fill="none" xmlns="http://www.w3.org/2000/svg">
<path fill-rule="evenodd" clip-rule="evenodd" d="M18.5 1C19.8807 1 21 2.11929 21 3.5V20.5C21 21.8807 19.8807 23 18.5 23H5.5C4.11929 23 3 21.8807 3 20.5V16.5H2.5C2.22386 16.5 2 16.2761 2 16C2 15.7239 2.22386 15.5 2.5 15.5H3V12.5H2.5C2.22386 12.5 2 12.2761 2 12C2 11.7239 2.22386 11.5 2.5 11.5H3V8.5H2.5C2.22386 8.5 2 8.27614 2 8C2 7.72386 2.22386 7.5 2.5 7.5H3V3.5C3 2.11929 4.11929 1 5.5 1H18.5ZM5.5 2C4.67157 2 4 2.67157 4 3.5V7.5H6.5C6.77614 7.5 7 7.72386 7 8C7 8.27614 6.77614 8.5 6.5 8.5H4V11.5H6.5C6.77614 11.5 7 11.7239 7 12C7 12.2761 6.77614 12.5 6.5 12.5H4V15.5H6.5C6.77614 15.5 7 15.7239 7 16C7 16.2761 6.77614 16.5 6.5 16.5H4V20.5C4 21.3284 4.67157 22 5.5 22H18.5C19.3284 22 20 21.3284 20 20.5V3.5C20 2.67157 19.3284 2 18.5 2H5.5Z" fill="black"/>
</svg>
