<svg width="24" height="24" viewBox="0 0 24 24" fill="none" xmlns="http://www.w3.org/2000/svg">
<path fill-rule="evenodd" clip-rule="evenodd" d="M13.5 1C14.3599 1 15.1175 1.43469 15.5674 2.0957C15.588 2.09854 15.6092 2.09994 15.6299 2.10547L21.0723 3.56445C22.4057 3.92194 23.1972 5.29242 22.8398 6.62598L18.958 21.1152C18.6006 22.4485 17.2298 23.2397 15.8965 22.8828L8.86816 21H4.5C3.11929 21 2 19.8807 2 18.5V15.5H1.5C1.22386 15.5 1 15.2761 1 15C1 14.7239 1.22386 14.5 1.5 14.5H2V11.5H1.5C1.22386 11.5 1 11.2761 1 11C1 10.7239 1.22386 10.5 1.5 10.5H2V7.5H1.5C1.22386 7.5 1 7.27614 1 7C1 6.72386 1.22386 6.5 1.5 6.5H2V3.5C2 2.11929 3.11929 1 4.5 1H13.5ZM15.9854 3.23535C15.9945 3.32234 16 3.41058 16 3.5V18.5C16 19.8807 14.8807 21 13.5 21H12.7324L16.1553 21.917C16.9551 22.1309 17.7777 21.6562 17.9922 20.8564L21.874 6.36719C22.0884 5.56709 21.6135 4.74482 20.8135 4.53027L15.9854 3.23535ZM4.5 2C3.67157 2 3 2.67157 3 3.5V6.5H5.5C5.77614 6.5 6 6.72386 6 7C6 7.27614 5.77614 7.5 5.5 7.5H3V10.5H5.5C5.77614 10.5 6 10.7239 6 11C6 11.2761 5.77614 11.5 5.5 11.5H3V14.5H5.5C5.77614 14.5 6 14.7239 6 15C6 15.2761 5.77614 15.5 5.5 15.5H3V18.5C3 19.3284 3.67157 20 4.5 20H13.5C14.3284 20 15 19.3284 15 18.5V3.5C15 2.67157 14.3284 2 13.5 2H4.5Z" fill="black"/>
</svg>
