<svg width="24" height="24" viewBox="0 0 24 24" fill="none" xmlns="http://www.w3.org/2000/svg">
<path fill-rule="evenodd" clip-rule="evenodd" d="M6.59664 9.00195C6.8372 9.02574 7.02105 9.21677 7.04488 9.44824V9.54883L7.01168 10.0088C7.00408 10.1673 6.99996 10.3309 6.99996 10.5L7.01266 11.7832C7.01905 12.1812 7.02548 12.5563 7.02438 12.9062C7.02218 13.6025 6.99135 14.2334 6.86324 14.8027C6.73268 15.3828 6.50111 15.9021 6.10055 16.374C5.70474 16.8403 5.16412 17.2365 4.45113 17.6055L4.35055 17.666C4.12867 17.8195 3.99996 18.0561 3.99996 18.2949C4.00006 18.6843 4.31568 18.9999 4.70504 19H16.5C16.7761 19 17 19.2239 17 19.5C17 19.7761 16.7761 20 16.5 20H14.4502C14.4831 20.1617 14.5 20.329 14.5 20.5C14.5 21.8807 13.3807 23 12 23C10.6193 23 9.49996 21.8807 9.49996 20.5C9.49996 20.329 9.51685 20.1617 9.54977 20H4.70504C3.7634 19.9999 3.00006 19.2366 2.99996 18.2949C2.99996 17.6037 3.41803 17.0145 3.99117 16.7178C4.63136 16.3865 5.05271 16.0625 5.33785 15.7266C5.61824 15.3962 5.78688 15.0307 5.88766 14.583C5.99078 14.1246 6.02223 13.5839 6.02438 12.9033C6.02544 12.5649 6.01909 12.1998 6.01266 11.7988C6.00625 11.3995 5.99996 10.9669 5.99996 10.5C5.99996 10.3154 6.00427 10.1358 6.01266 9.96094L6.04977 9.45117L6.07027 9.35156C6.13911 9.12948 6.35624 8.97821 6.59664 9.00195ZM10.5888 20C10.5335 20.1565 10.5 20.3239 10.5 20.5C10.5 21.3284 11.1715 22 12 22C12.8284 22 13.5 21.3284 13.5 20.5C13.5 20.3239 13.4664 20.1565 13.4111 20H10.5888Z" fill="black"/>
<path d="M2.14645 2.14648C2.34171 1.95122 2.65822 1.95122 2.85348 2.14648L21.8535 21.1465C22.0487 21.3417 22.0487 21.6583 21.8535 21.8535C21.6582 22.0488 21.3417 22.0488 21.1464 21.8535L2.14645 2.85352C1.95118 2.65825 1.95118 2.34175 2.14645 2.14648Z" fill="black"/>
<path d="M12.3769 2C13.2733 2.00003 13.9999 2.72668 14 3.62305C14 3.8948 14.1934 4.17582 14.5263 4.31738C15.2816 4.6386 16.1581 5.20079 16.8437 6.19238C17.5307 7.18598 18 8.5731 18 10.5C18 10.9382 17.9943 11.3461 17.9882 11.7246C17.9822 12.1046 17.9761 12.4527 17.9755 12.7773C17.9745 13.4295 17.9957 13.9582 18.0771 14.4111C18.126 14.6829 17.9456 14.9433 17.6738 14.9922C17.4022 15.041 17.1428 14.8604 17.0937 14.5889C16.9956 14.0433 16.9744 13.4394 16.9755 12.7754C16.9761 12.442 16.9822 12.0855 16.9882 11.709C16.9943 11.3309 17 10.9297 17 10.5C17 8.74067 16.5742 7.56017 16.0214 6.76074C15.4674 5.95944 14.7595 5.503 14.1347 5.2373C13.5191 4.9755 13 4.38199 13 3.62305C12.9999 3.27896 12.721 3.00003 12.3769 3H11.623C11.2789 3.00003 11 3.27896 11 3.62305C11 4.38202 10.4804 4.97548 9.8652 5.2373L9.60641 5.35645C9.43196 5.44337 9.25405 5.54609 9.07711 5.66699L8.81246 5.8623L8.7275 5.91797C8.52083 6.02387 8.26149 5.97413 8.11031 5.78613C7.9591 5.59772 7.96674 5.33326 8.1152 5.1543L8.18746 5.08301L8.34957 4.95801C8.72982 4.6765 9.11549 4.4697 9.4736 4.31738C9.80664 4.1757 9.99996 3.89461 9.99996 3.62305C9.99999 2.72668 10.7266 2.00003 11.623 2H12.3769Z" fill="black"/>
</svg>
