<svg width="24" height="24" viewBox="0 0 24 24" fill="none" xmlns="http://www.w3.org/2000/svg">
<path fill-rule="evenodd" clip-rule="evenodd" d="M17.5 10C17.6326 10 17.7597 10.0527 17.8535 10.1465L20.8535 13.1465C20.9473 13.2403 21 13.3674 21 13.5V20.5C21 21.8807 19.8807 23 18.5 23H12.5C11.1193 23 10 21.8807 10 20.5V12.5C10 11.1193 11.1193 10 12.5 10H17.5ZM12.5 11C11.6716 11 11 11.6716 11 12.5V20.5C11 21.3284 11.6716 22 12.5 22H18.5C19.3284 22 20 21.3284 20 20.5V14H18.5C17.6716 14 17 13.3284 17 12.5V11H12.5ZM18 12.5C18 12.7761 18.2239 13 18.5 13H19.293L18 11.707V12.5Z" fill="black"/>
<path fill-rule="evenodd" clip-rule="evenodd" d="M12.5 1C12.7761 1 13 1.22386 13 1.5V2H14.5C14.7761 2 15 2.22386 15 2.5V3.0498C16.1411 3.28142 17 4.29051 17 5.5V8.5C17 8.77614 16.7761 9 16.5 9C16.2239 9 16 8.77614 16 8.5V5.5C16 4.80748 15.5305 4.22536 14.8926 4.05273C14.6723 4.6072 14.1329 5 13.5 5H6.5C5.86694 5 5.32663 4.60738 5.10645 4.05273C4.46899 4.22566 4 4.80781 4 5.5V18.5C4 19.3284 4.67157 20 5.5 20H8.5C8.77614 20 9 20.2239 9 20.5C9 20.7761 8.77614 21 8.5 21H5.5C4.11929 21 3 19.8807 3 18.5V5.5C3 4.29051 3.85886 3.28142 5 3.0498V2.5C5 2.22386 5.22386 2 5.5 2H7V1.5L7.00977 1.39941C7.05629 1.17145 7.25829 1 7.5 1H12.5ZM8 2.5C8 2.77614 7.77614 3 7.5 3H6V3.5C6 3.77614 6.22386 4 6.5 4H13.5C13.7761 4 14 3.77614 14 3.5V3H12.5C12.2239 3 12 2.77614 12 2.5V2H8V2.5Z" fill="black"/>
</svg>
