<svg width="24" height="24" viewBox="0 0 24 24" fill="none" xmlns="http://www.w3.org/2000/svg">
<path fill-rule="evenodd" clip-rule="evenodd" d="M10.2175 2.96751C9.63181 2.38188 8.68222 2.38197 8.09644 2.96751L2.43922 8.62474C1.85362 9.21051 1.85357 10.1601 2.43922 10.7458C2.77294 11.0796 3.24446 11.2372 3.71168 11.1706L5.4441 10.9226L7.98902 13.4675L9.32789 20.1618C9.37694 20.4071 9.49778 20.6324 9.67457 20.8093C10.1696 21.3043 10.9725 21.3043 11.4675 20.8093L15.5212 16.7566L20.617 21.8542C20.8121 22.0489 21.1289 22.049 21.324 21.8542C21.5191 21.6591 21.5189 21.3415 21.324 21.1462L16.2283 16.0495L20.281 11.9958C20.776 11.5008 20.776 10.6979 20.281 10.2029C20.1041 10.0261 19.8788 9.90523 19.6336 9.85618L12.9392 8.51731L10.3943 5.97337L10.6423 4.23997C10.7089 3.77277 10.5512 3.30122 10.2175 2.96751ZM8.80347 3.67454C8.99872 3.47952 9.31531 3.47944 9.51051 3.67454C9.62175 3.78579 9.67431 3.9436 9.65211 4.09934L9.3689 6.07884C9.34675 6.23455 9.39929 6.39242 9.51051 6.50364L12.3386 9.33177C12.4084 9.40157 12.4977 9.44913 12.5945 9.46849L19.4373 10.8366C19.4889 10.847 19.5367 10.8727 19.574 10.9099C19.6785 11.0144 19.6785 11.1843 19.574 11.2888L10.7605 20.1023C10.656 20.2068 10.4861 20.2068 10.3816 20.1023C10.3444 20.065 10.3187 20.0172 10.3084 19.9656L8.94019 13.1228C8.92083 13.026 8.87327 12.9367 8.80347 12.8669L5.97535 10.0388C5.86415 9.92759 5.70623 9.87506 5.55054 9.8972L3.57105 10.1804C3.41529 10.2026 3.25751 10.1501 3.14625 10.0388C2.95113 9.84358 2.95117 9.52701 3.14625 9.33177L8.80347 3.67454Z" fill="black"/>
</svg>
