<svg width="24" height="24" viewBox="0 0 24 24" fill="none" xmlns="http://www.w3.org/2000/svg">
<path fill-rule="evenodd" clip-rule="evenodd" d="M13.2527 2.96751C13.8385 2.38188 14.7881 2.38197 15.3738 2.96751L21.0311 8.62474C21.6167 9.21051 21.6167 10.1601 21.0311 10.7458C20.6973 11.0796 20.2258 11.2372 19.7586 11.1706L18.0262 10.9226L15.4812 13.4675L14.1424 20.1618C14.0933 20.4071 13.9725 20.6324 13.7957 20.8093C13.3007 21.3043 12.4978 21.3043 12.0027 20.8093L7.94902 16.7566L2.85332 21.8542C2.65812 22.0489 2.34141 22.049 2.14629 21.8542C1.95115 21.6591 1.95132 21.3415 2.14629 21.1462L7.24199 16.0495L3.18926 11.9958C2.69424 11.5008 2.69424 10.6979 3.18926 10.2029C3.36616 10.0261 3.59147 9.90523 3.83672 9.85618L10.5311 8.51731L13.076 5.97337L12.8279 4.23997C12.7614 3.77277 12.919 3.30122 13.2527 2.96751ZM14.6668 3.67454C14.4715 3.47952 14.155 3.47944 13.9598 3.67454C13.8485 3.78579 13.796 3.9436 13.8182 4.09934L14.1014 6.07884C14.1235 6.23455 14.071 6.39242 13.9598 6.50364L11.1316 9.33177C11.0618 9.40157 10.9726 9.44913 10.8758 9.46849L4.03301 10.8366C3.98135 10.847 3.93359 10.8727 3.89629 10.9099C3.7918 11.0144 3.7918 11.1843 3.89629 11.2888L12.7098 20.1023C12.8143 20.2068 12.9842 20.2068 13.0887 20.1023C13.1259 20.065 13.1516 20.0172 13.1619 19.9656L14.5301 13.1228C14.5494 13.026 14.597 12.9367 14.6668 12.8669L17.4949 10.0388C17.6061 9.92759 17.764 9.87506 17.9197 9.8972L19.8992 10.1804C20.055 10.2026 20.2128 10.1501 20.324 10.0388C20.5191 9.84358 20.5191 9.52701 20.324 9.33177L14.6668 3.67454Z" fill="black"/>
</svg>
