<svg width="24" height="24" viewBox="0 0 24 24" fill="none" xmlns="http://www.w3.org/2000/svg">
<path fill-rule="evenodd" clip-rule="evenodd" d="M4.25488 3.06451C4.41228 2.97594 4.60539 2.9786 4.75977 3.07233L18.7598 11.5723C18.9091 11.663 19 11.8254 19 12.0001C19 12.1747 18.9091 12.3371 18.7598 12.4278L4.75977 20.9278C4.60539 21.0215 4.41228 21.0242 4.25488 20.9356C4.0975 20.847 4 20.6807 4 20.5001V3.50006C4 3.31946 4.0975 3.15309 4.25488 3.06451ZM5 19.6104L17.5352 12.0001L5 4.38873V19.6104Z" fill="black"/>
<path d="M19.5 3.00006C19.7761 3.00006 20 3.22392 20 3.50006V20.5001C20 20.7762 19.7761 21.0001 19.5 21.0001C19.2239 21.0001 19 20.7762 19 20.5001V3.50006C19 3.22392 19.2239 3.00006 19.5 3.00006Z" fill="black"/>
</svg>
