<svg width="24" height="24" viewBox="0 0 24 24" fill="none" xmlns="http://www.w3.org/2000/svg">
<path fill-rule="evenodd" clip-rule="evenodd" d="M7.5 3C8.88071 3 10 4.11929 10 5.5V18.5C10 19.8807 8.88071 21 7.5 21H5.5C4.11929 21 3 19.8807 3 18.5V5.5C3 4.11929 4.11929 3 5.5 3H7.5ZM5.5 4C4.67157 4 4 4.67157 4 5.5V18.5C4 19.3284 4.67157 20 5.5 20H7.5C8.32843 20 9 19.3284 9 18.5V5.5C9 4.67157 8.32843 4 7.5 4H5.5Z" fill="black"/>
<path fill-rule="evenodd" clip-rule="evenodd" d="M18.5 3C19.8807 3 21 4.11929 21 5.5V18.5C21 19.8807 19.8807 21 18.5 21H16.5C15.1193 21 14 19.8807 14 18.5V5.5C14 4.11929 15.1193 3 16.5 3H18.5ZM16.5 4C15.6716 4 15 4.67157 15 5.5V18.5C15 19.3284 15.6716 20 16.5 20H18.5C19.3284 20 20 19.3284 20 18.5V5.5C20 4.67157 19.3284 4 18.5 4H16.5Z" fill="black"/>
</svg>
