<svg width="24" height="24" viewBox="0 0 24 24" fill="none" xmlns="http://www.w3.org/2000/svg">
<path d="M20.5 4.99996C21.8807 4.99996 23 6.11925 23 7.49996V16.5C23 17.8807 21.8807 19 20.5 19H10.707L12.8535 21.1464L12.918 21.2246C13.0461 21.4187 13.0244 21.6826 12.8535 21.8535C12.6827 22.0243 12.4187 22.0461 12.2246 21.9179L12.1465 21.8535L9.14648 18.8535C8.95122 18.6582 8.95122 18.3417 9.14648 18.1464L12.1465 15.1464C12.3417 14.9512 12.6583 14.9512 12.8535 15.1464C13.0488 15.3417 13.0488 15.6582 12.8535 15.8535L10.707 18H20.5C21.3284 18 22 17.3284 22 16.5V7.49996C22 6.67154 21.3284 5.99996 20.5 5.99996H16.5C16.2239 5.99996 16 5.77611 16 5.49996C16 5.22382 16.2239 4.99996 16.5 4.99996H20.5Z" fill="black"/>
<path d="M11.1465 2.14645C11.3173 1.97558 11.5813 1.95383 11.7754 2.08199L11.8535 2.14645L14.8535 5.14645C15.0488 5.34171 15.0488 5.65822 14.8535 5.85348L11.8535 8.85348C11.6583 9.04874 11.3417 9.04874 11.1465 8.85348C10.9512 8.65822 10.9512 8.34171 11.1465 8.14645L13.293 5.99996H3.5C2.67157 5.99996 2 6.67154 2 7.49996V16.5C2 17.3284 2.67157 18 3.5 18H7.5C7.77614 18 8 18.2238 8 18.5C8 18.7761 7.77614 19 7.5 19H3.5C2.11929 19 1 17.8807 1 16.5V7.49996C1 6.11925 2.11929 4.99996 3.5 4.99996H13.293L11.1465 2.85348L11.082 2.77535C10.9539 2.58127 10.9756 2.31731 11.1465 2.14645Z" fill="black"/>
</svg>
