<svg width="24" height="24" viewBox="0 0 24 24" fill="none" xmlns="http://www.w3.org/2000/svg">
<path fill-rule="evenodd" clip-rule="evenodd" d="M23.2188 4.08692C23.3717 3.98275 23.5697 3.97125 23.7334 4.05762C23.8973 4.14422 24 4.31467 24 4.5V19.5C24 19.6853 23.8973 19.8558 23.7334 19.9424C23.5697 20.0288 23.3717 20.0173 23.2188 19.9131L13 12.9453V19.5C13 19.6853 12.8973 19.8558 12.7334 19.9424C12.5697 20.0288 12.3717 20.0173 12.2188 19.9131L1.21875 12.4131C1.08215 12.32 1 12.1653 1 12C1 11.8347 1.08215 11.6801 1.21875 11.5869L12.2188 4.08692C12.3717 3.98275 12.5697 3.97125 12.7334 4.05762C12.8973 4.14422 13 4.31467 13 4.5V11.0537L23.2188 4.08692ZM2.38672 12L12 18.5537V5.44531L2.38672 12ZM13.3867 12L23 18.5537V5.44531L13.3867 12Z" fill="black"/>
</svg>
