<svg width="24" height="24" viewBox="0 0 24 24" fill="none" xmlns="http://www.w3.org/2000/svg">
<path d="M4.5 3.00006C4.77614 3.00006 5 3.22392 5 3.50006V20.5001C5 20.7762 4.77614 21.0001 4.5 21.0001C4.22386 21.0001 4 20.7762 4 20.5001V3.50006C4 3.22392 4.22386 3.00006 4.5 3.00006Z" fill="black"/>
<path fill-rule="evenodd" clip-rule="evenodd" d="M19.2402 3.07233C19.3946 2.9786 19.5877 2.97594 19.7451 3.06451C19.9025 3.15309 20 3.31946 20 3.50006V20.5001C20 20.6807 19.9025 20.847 19.7451 20.9356C19.5877 21.0242 19.3946 21.0215 19.2402 20.9278L5.24023 12.4278C5.09093 12.3371 5 12.1747 5 12.0001C5 11.8254 5.09093 11.663 5.24023 11.5723L19.2402 3.07233ZM6.46484 12.0001L19 19.6104V4.38873L6.46484 12.0001Z" fill="black"/>
</svg>
