<svg width="24" height="24" viewBox="0 0 24 24" fill="none" xmlns="http://www.w3.org/2000/svg">
<path d="M18.1465 13.1467C18.3417 12.9514 18.6583 12.9514 18.8535 13.1467L21.8535 16.1467C22.0488 16.342 22.0488 16.6585 21.8535 16.8537L18.8535 19.8537L18.7754 19.9182C18.5813 20.0463 18.3173 20.0246 18.1465 19.8537C17.9756 19.6829 17.9539 19.4189 18.082 19.2248L18.1465 19.1467L20.293 17.0002H16.415C14.4308 17.0001 12.5922 15.9585 11.5713 14.257L12.4287 13.7434C13.2689 15.1435 14.7822 16.0001 16.415 16.0002H20.293L18.1465 13.8537C17.9512 13.6585 17.9512 13.342 18.1465 13.1467Z" fill="black"/>
<path d="M18.1465 4.14669C18.3173 3.97583 18.5813 3.95407 18.7754 4.08224L18.8535 4.14669L21.8535 7.14669C22.0488 7.34195 22.0488 7.65846 21.8535 7.85372L18.8535 10.8537C18.6583 11.049 18.3417 11.049 18.1465 10.8537C17.9512 10.6585 17.9512 10.342 18.1465 10.1467L20.293 8.00021H19.3311C15.8893 8.00021 12.6996 9.80583 10.9287 12.757L10.501 13.4699C8.81465 16.2804 5.77759 18.0002 2.5 18.0002C2.22386 18.0002 2 17.7763 2 17.5002C2 17.2241 2.22386 17.0002 2.5 17.0002C5.42635 17.0002 8.13796 15.4646 9.64355 12.9553L10.0713 12.2434C12.0228 8.99078 15.5379 7.00021 19.3311 7.00021H20.293L18.1465 4.85372L18.082 4.7756C17.9539 4.58152 17.9756 4.31756 18.1465 4.14669Z" fill="black"/>
<path d="M3.41797 6.00021C6.12585 6.00021 8.63513 7.42138 10.0283 9.74337C10.1703 9.9801 10.0941 10.2868 9.85742 10.4289C9.62063 10.571 9.31297 10.4938 9.1709 10.257C7.95837 8.23653 5.77441 7.00021 3.41797 7.00021H2.5C2.22386 7.00021 2 6.77635 2 6.50021C2 6.22407 2.22386 6.00021 2.5 6.00021H3.41797Z" fill="black"/>
</svg>
