<svg width="24" height="24" viewBox="0 0 24 24" fill="none" xmlns="http://www.w3.org/2000/svg">
<path fill-rule="evenodd" clip-rule="evenodd" d="M7.5 15C8.32843 15 9 15.6716 9 16.5V17H21.5C21.7761 17 22 17.2239 22 17.5C22 17.7761 21.7761 18 21.5 18H9V18.5C9 19.3284 8.32843 20 7.5 20C6.67157 20 6 19.3284 6 18.5V18H2.5C2.22386 18 2 17.7761 2 17.5C2 17.2239 2.22386 17 2.5 17H6V16.5C6 15.6716 6.67157 15 7.5 15ZM7.5 16C7.22386 16 7 16.2239 7 16.5V18.5C7 18.7761 7.22386 19 7.5 19C7.77614 19 8 18.7761 8 18.5V16.5C8 16.2239 7.77614 16 7.5 16Z" fill="black"/>
<path fill-rule="evenodd" clip-rule="evenodd" d="M16.5 9C17.3284 9 18 9.67157 18 10.5V11H21.5C21.7761 11 22 11.2239 22 11.5C22 11.7761 21.7761 12 21.5 12H18V12.5C18 13.3284 17.3284 14 16.5 14C15.6716 14 15 13.3284 15 12.5V12H2.5C2.22386 12 2 11.7761 2 11.5C2 11.2239 2.22386 11 2.5 11H15V10.5C15 9.67157 15.6716 9 16.5 9ZM16.5 10C16.2239 10 16 10.2239 16 10.5V12.5C16 12.7761 16.2239 13 16.5 13C16.7761 13 17 12.7761 17 12.5V10.5C17 10.2239 16.7761 10 16.5 10Z" fill="black"/>
<path fill-rule="evenodd" clip-rule="evenodd" d="M7.5 3C8.32843 3 9 3.67157 9 4.5V5H21.5C21.7761 5 22 5.22386 22 5.5C22 5.77614 21.7761 6 21.5 6H9V6.5C9 7.32843 8.32843 8 7.5 8C6.67157 8 6 7.32843 6 6.5V6H2.5C2.22386 6 2 5.77614 2 5.5C2 5.22386 2.22386 5 2.5 5H6V4.5C6 3.67157 6.67157 3 7.5 3ZM7.5 4C7.22386 4 7 4.22386 7 4.5V6.5C7 6.77614 7.22386 7 7.5 7C7.77614 7 8 6.77614 8 6.5V4.5C8 4.22386 7.77614 4 7.5 4Z" fill="black"/>
</svg>
