<svg width="24" height="24" viewBox="0 0 24 24" fill="none" xmlns="http://www.w3.org/2000/svg">
<path d="M9 17.5C9 17.2239 8.77614 17 8.5 17C8.22386 17 8 17.2239 8 17.5V19.5C8 19.7761 8.22386 20 8.5 20C8.77614 20 9 19.7761 9 19.5V17.5Z" fill="black"/>
<path fill-rule="evenodd" clip-rule="evenodd" d="M4.5 2C3.11929 2 2 3.11929 2 4.5V17.6716C2 18.3346 2.26339 18.9705 2.73223 19.4393L4.56066 21.2678C5.0295 21.7366 5.66539 22 6.32843 22H19.5C20.8807 22 22 20.8807 22 19.5V4.5C22 3.11929 20.8807 2 19.5 2H4.5ZM3 4.5C3 3.67157 3.67157 3 4.5 3H5V7.5C5 8.88071 6.11929 10 7.5 10H16.5C17.8807 10 19 8.88071 19 7.5V3H19.5C20.3284 3 21 3.67157 21 4.5V19.5C21 20.3284 20.3284 21 19.5 21H18V17.5C18 16.1193 16.8807 15 15.5 15H8.5C7.11929 15 6 16.1193 6 17.5V20.9636C5.72485 20.9019 5.47032 20.7632 5.26777 20.5607L3.43934 18.7322C3.15804 18.4509 3 18.0694 3 17.6716V4.5ZM6 7.5V3H18V7.5C18 8.32843 17.3284 9 16.5 9H7.5C6.67157 9 6 8.32843 6 7.5ZM17 17.5V21H7V17.5C7 16.6716 7.67157 16 8.5 16H15.5C16.3284 16 17 16.6716 17 17.5Z" fill="black"/>
</svg>
