<svg width="24" height="24" viewBox="0 0 24 24" fill="none" xmlns="http://www.w3.org/2000/svg">
<path d="M19.5 7C20.8807 7 22 8.11929 22 9.5V19.5C22 20.8807 20.8807 22 19.5 22H9.5C8.11929 22 7 20.8807 7 19.5V18.5C7 18.2239 7.22386 18 7.5 18C7.77614 18 8 18.2239 8 18.5V19.5C8 20.3284 8.67157 21 9.5 21H19.5C20.3284 21 21 20.3284 21 19.5V9.5C21 8.67157 20.3284 8 19.5 8H18.5C18.2239 8 18 7.77614 18 7.5C18 7.22386 18.2239 7 18.5 7H19.5Z" fill="black"/>
<path d="M14.1465 6.14648C14.3417 5.95122 14.6583 5.95122 14.8535 6.14648C15.0488 6.34175 15.0488 6.65825 14.8535 6.85352L8.85352 12.8535C8.65825 13.0488 8.34175 13.0488 8.14648 12.8535L5.14648 9.85352L5.08203 9.77539C4.95387 9.58131 4.97562 9.31735 5.14648 9.14648C5.31735 8.97562 5.58131 8.95387 5.77539 9.08203L5.85352 9.14648L8.5 11.793L14.1465 6.14648Z" fill="black"/>
<path fill-rule="evenodd" clip-rule="evenodd" d="M14.5 2C15.8807 2 17 3.11929 17 4.5V14.5C17 15.8807 15.8807 17 14.5 17H4.5C3.11929 17 2 15.8807 2 14.5V4.5C2 3.11929 3.11929 2 4.5 2H14.5ZM4.5 3C3.67157 3 3 3.67157 3 4.5V14.5C3 15.3284 3.67157 16 4.5 16H14.5C15.3284 16 16 15.3284 16 14.5V4.5C16 3.67157 15.3284 3 14.5 3H4.5Z" fill="black"/>
</svg>
