<svg width="24" height="24" viewBox="0 0 24 24" fill="none" xmlns="http://www.w3.org/2000/svg">
<path fill-rule="evenodd" clip-rule="evenodd" d="M2.27593 4.32349C1.6698 3.03547 3.03075 1.70654 4.30398 2.34315L20.9346 10.6585C22.0402 11.2113 22.0402 12.789 20.9346 13.3418L4.21656 21.7008C2.95785 22.3302 1.60347 21.0359 2.17502 19.7499L4.85644 13.7168C5.03406 13.3171 5.37724 13.0149 5.79613 12.8892L8.98484 11.9326L5.6799 10.6106C5.32737 10.4696 5.04143 10.2002 4.87976 9.85662L2.27593 4.32349ZM3.85676 3.23758C3.43236 3.02537 2.97871 3.46835 3.18075 3.89769L5.78458 9.43082C5.83847 9.54534 5.93378 9.63516 6.05129 9.68216L10.6856 11.5359C10.883 11.6148 11.0088 11.81 10.9994 12.0224C10.9899 12.2348 10.8472 12.4179 10.6436 12.479L6.08348 13.8471C5.94385 13.8889 5.82946 13.9897 5.77025 14.1229L3.08883 20.1561C2.89832 20.5848 3.34977 21.0162 3.76935 20.8064L20.4874 12.4473C20.8559 12.2631 20.8559 11.7372 20.4874 11.5529L3.85676 3.23758Z" fill="black"/>
</svg>
