<svg width="24" height="24" viewBox="0 0 24 24" fill="none" xmlns="http://www.w3.org/2000/svg">
<path d="M9.5 12C9.77614 12 10 12.2239 10 12.5V13.5C10 13.7761 9.77614 14 9.5 14C9.22386 14 9 13.7761 9 13.5V12.5C9 12.2239 9.22386 12 9.5 12Z" fill="black"/>
<path fill-rule="evenodd" clip-rule="evenodd" d="M14.5 1C15.8807 1 17 2.11929 17 3.5V8.5C17 8.77614 16.7761 9 16.5 9C16.2239 9 16 8.77614 16 8.5V3.5C16 2.67157 15.3284 2 14.5 2H4.85645L10.5156 4.51562C11.4182 4.91696 12 5.81197 12 6.7998V19.4229C11.9997 21.2318 10.1375 22.4417 8.48438 21.707L3.48438 19.4844C2.58177 19.083 2 18.188 2 17.2002V1.5C2 1.22386 2.22386 1 2.5 1H14.5ZM3 17.2002C3 17.793 3.34895 18.3305 3.89062 18.5713L8.89062 20.793C9.88244 21.2338 10.9997 20.5081 11 19.4229V6.7998C11 6.20703 10.6511 5.66947 10.1094 5.42871L3 2.26855V17.2002Z" fill="black"/>
<path d="M16.5 12C16.7761 12 17 12.2239 17 12.5V17.5C17 18.8807 15.8807 20 14.5 20H13.5C13.2239 20 13 19.7761 13 19.5C13 19.2239 13.2239 19 13.5 19H14.5C15.3284 19 16 18.3284 16 17.5V12.5C16 12.2239 16.2239 12 16.5 12Z" fill="black"/>
<path d="M18.1465 7.14648C18.3173 6.97562 18.5813 6.95387 18.7754 7.08203L18.8535 7.14648L21.8535 10.1465C22.0488 10.3417 22.0488 10.6583 21.8535 10.8535L18.8535 13.8535C18.6583 14.0488 18.3417 14.0488 18.1465 13.8535C17.9512 13.6583 17.9512 13.3417 18.1465 13.1465L20.293 11H13.5C13.2239 11 13 10.7761 13 10.5C13 10.2239 13.2239 10 13.5 10H20.293L18.1465 7.85352L18.082 7.77539C17.9539 7.58131 17.9756 7.31735 18.1465 7.14648Z" fill="black"/>
</svg>
