<svg width="24" height="24" viewBox="0 0 24 24" fill="none" xmlns="http://www.w3.org/2000/svg">
<path d="M7.14645 3.14648C7.34171 2.95122 7.65822 2.95122 7.85348 3.14648L11.8535 7.14648C12.0487 7.34175 12.0487 7.65825 11.8535 7.85352C11.6582 8.04878 11.3417 8.04878 11.1464 7.85352L7.99996 4.70703V20.5C7.99996 20.7761 7.77611 21 7.49996 21C7.22382 21 6.99996 20.7761 6.99996 20.5V4.70703L3.85348 7.85352L3.77535 7.91797C3.58127 8.04613 3.31731 8.02438 3.14645 7.85352C2.97558 7.68265 2.95383 7.41869 3.08199 7.22461L3.14645 7.14648L7.14645 3.14648Z" fill="black"/>
<path d="M16.5 3C16.7761 3 17 3.22386 17 3.5V19.293L20.1464 16.1465C20.3417 15.9512 20.6582 15.9512 20.8535 16.1465C21.0487 16.3417 21.0487 16.6583 20.8535 16.8535L16.8535 20.8535C16.6582 21.0488 16.3417 21.0488 16.1464 20.8535L12.1464 16.8535L12.082 16.7754C11.9538 16.5813 11.9756 16.3173 12.1464 16.1465C12.3173 15.9756 12.5813 15.9539 12.7754 16.082L12.8535 16.1465L16 19.293V3.5C16 3.22386 16.2238 3 16.5 3Z" fill="black"/>
</svg>
