<svg width="24" height="24" viewBox="0 0 24 24" fill="none" xmlns="http://www.w3.org/2000/svg">
<path fill-rule="evenodd" clip-rule="evenodd" d="M12 2C12.2024 2 12.3847 2.12248 12.4619 2.30957L15.2403 9.03809L22.5 9.60254L22.461 10.0996L22.7861 10.4814L17.2442 15.2031L18.9522 22.2822C18.9994 22.4788 18.9233 22.6848 18.7598 22.8037C18.5961 22.9227 18.3766 22.9311 18.2041 22.8252L12 19.0146L5.79592 22.8252C5.62345 22.9311 5.40398 22.9227 5.24025 22.8037C5.07669 22.6848 5.0006 22.4788 5.04787 22.2822L6.7549 15.2031L1.21388 10.4814C1.05989 10.3502 1.00002 10.1388 1.06252 9.94629C1.12507 9.75378 1.29821 9.61822 1.50002 9.60254L8.75881 9.03809L11.5381 2.30957L11.5713 2.24219C11.6607 2.09339 11.8228 2 12 2ZM9.56545 9.7041L9.5342 9.7666C9.45219 9.90605 9.30673 9.99882 9.14259 10.0117L2.78322 10.5049L7.63771 14.6426C7.78085 14.7647 7.84285 14.9567 7.79884 15.1396L6.30373 21.3389L11.7383 18.002L11.8008 17.9697C11.9492 17.9052 12.1214 17.9158 12.2617 18.002L17.6953 21.3389L16.2012 15.1396C16.1572 14.9567 16.2192 14.7647 16.3623 14.6426L21.2158 10.5049L14.8574 10.0117C14.6933 9.99882 14.5478 9.90605 14.4658 9.7666L14.4346 9.7041L12 3.80859L9.56545 9.7041Z" fill="black"/>
<path d="M22.5 9.60254C22.7018 9.61822 22.875 9.75378 22.9375 9.94629C23 10.1388 22.9401 10.3502 22.7861 10.4814L22.4619 10.1006L22.5 9.60254Z" fill="black"/>
</svg>
