<svg width="24" height="24" viewBox="0 0 24 24" fill="none" xmlns="http://www.w3.org/2000/svg">
<path d="M11.9995 19.0005C12.2757 19.0005 12.4995 19.2243 12.4995 19.5005V21.5005C12.4992 21.7764 12.2755 22.0005 11.9995 22.0005C11.7237 22.0002 11.4998 21.7763 11.4995 21.5005V19.5005C11.4995 19.2245 11.7236 19.0007 11.9995 19.0005Z" fill="black"/>
<path d="M6.34326 16.9497C6.53853 16.7545 6.85506 16.7545 7.05029 16.9497C7.2455 17.1449 7.24547 17.4615 7.05029 17.6567L5.63623 19.0708C5.44098 19.2661 5.12446 19.266 4.9292 19.0708C4.73394 18.8755 4.73394 18.559 4.9292 18.3638L6.34326 16.9497Z" fill="black"/>
<path d="M16.9497 16.9497C17.145 16.7545 17.4615 16.7545 17.6567 16.9497L19.0708 18.3638C19.2661 18.559 19.2661 18.8755 19.0708 19.0708C18.8755 19.2661 18.559 19.2661 18.3638 19.0708L16.9497 17.6567C16.7545 17.4615 16.7545 17.145 16.9497 16.9497Z" fill="black"/>
<path fill-rule="evenodd" clip-rule="evenodd" d="M11.9995 6.00049C15.3132 6.00049 17.9995 8.68678 17.9995 12.0005C17.9992 15.314 15.3131 18.0005 11.9995 18.0005C8.68618 18.0002 5.99978 15.3138 5.99951 12.0005C5.99951 8.68693 8.68601 6.00074 11.9995 6.00049ZM11.9995 7.00049C9.2383 7.00074 6.99951 9.23922 6.99951 12.0005C6.99978 14.7615 9.23846 17.0002 11.9995 17.0005C14.7608 17.0005 16.9992 14.7617 16.9995 12.0005C16.9995 9.23906 14.7609 7.00049 11.9995 7.00049Z" fill="black"/>
<path d="M4.49951 11.5005C4.77565 11.5005 4.99951 11.7243 4.99951 12.0005C4.99925 12.2764 4.77549 12.5005 4.49951 12.5005H2.49951C2.22374 12.5002 1.99978 12.2763 1.99951 12.0005C1.99951 11.7245 2.22358 11.5007 2.49951 11.5005H4.49951Z" fill="black"/>
<path d="M21.4995 11.5005C21.7757 11.5005 21.9995 11.7243 21.9995 12.0005C21.9992 12.2764 21.7755 12.5005 21.4995 12.5005H19.4995C19.2237 12.5002 18.9998 12.2763 18.9995 12.0005C18.9995 11.7245 19.2236 11.5007 19.4995 11.5005H21.4995Z" fill="black"/>
<path d="M4.9292 4.9292C5.12446 4.73394 5.44097 4.73394 5.63623 4.9292L7.05029 6.34326C7.24545 6.53853 7.24552 6.85507 7.05029 7.05029C6.85507 7.24552 6.53853 7.24545 6.34326 7.05029L4.9292 5.63623C4.73394 5.44097 4.73394 5.12446 4.9292 4.9292Z" fill="black"/>
<path d="M18.3638 4.9292C18.559 4.73394 18.8755 4.73394 19.0708 4.9292C19.266 5.12446 19.2661 5.44098 19.0708 5.63623L17.6567 7.05029C17.4615 7.24547 17.1449 7.2455 16.9497 7.05029C16.7545 6.85506 16.7545 6.53853 16.9497 6.34326L18.3638 4.9292Z" fill="black"/>
<path d="M11.9995 2.00049C12.2757 2.00049 12.4995 2.22435 12.4995 2.50049V4.50049C12.4992 4.77641 12.2755 5.00049 11.9995 5.00049C11.7237 5.00024 11.4998 4.77625 11.4995 4.50049V2.50049C11.4995 2.2245 11.7236 2.00074 11.9995 2.00049Z" fill="black"/>
</svg>
