<svg width="24" height="24" viewBox="0 0 24 24" fill="none" xmlns="http://www.w3.org/2000/svg">
<path fill-rule="evenodd" clip-rule="evenodd" d="M12 5C13.6569 5 15 6.34315 15 8C15 9.65685 13.6569 11 12 11C10.3431 11 9 9.65685 9 8C9 6.34315 10.3431 5 12 5ZM12 6C10.8954 6 10 6.89543 10 8C10 9.10457 10.8954 10 12 10C13.1046 10 14 9.10457 14 8C14 6.89543 13.1046 6 12 6Z" fill="black"/>
<path fill-rule="evenodd" clip-rule="evenodd" d="M14.5 1C15.8807 1 17 2.11929 17 3.5V4H17.0586C18.1345 4.00005 19.0903 4.68831 19.4307 5.70898L20.8721 10.0342C20.9569 10.2889 21 10.5557 21 10.8242V16.5C21 17.8807 19.8807 19 18.5 19H18C18 19.9569 17.3275 20.7544 16.4297 20.9512C16.2381 21.5589 15.6711 22 15 22H9.5C8.8324 22 8.26676 21.5638 8.07227 20.9609C7.05873 20.786 6.25347 20.0034 6.0498 19H5.5C4.11929 19 3 17.8807 3 16.5V10.8242C3.00004 10.5557 3.04306 10.2889 3.12793 10.0342L4.56934 5.70898C4.90968 4.68831 5.86547 4.00005 6.94141 4H7V3.5C7 2.11929 8.11929 1 9.5 1H14.5ZM7.5 17C7.22386 17 7 17.2239 7 17.5V18.5C7 19.3284 7.67157 20 8.5 20H16C16.5523 20 17 19.5523 17 19V17.5C17 17.2239 16.7761 17 16.5 17H7.5ZM6.94141 5C6.2959 5.00005 5.72279 5.41306 5.51855 6.02539L4.07715 10.3506C4.02626 10.5033 4.00004 10.6632 4 10.8242V16.5C4 17.3284 4.67157 18 5.5 18H6V17.5C6 16.8471 6.41766 16.293 7 16.0869V5H6.94141ZM17 16.0869C17.5823 16.293 18 16.8471 18 17.5V18H18.5C19.3284 18 20 17.3284 20 16.5V10.8242C20 10.6632 19.9737 10.5033 19.9229 10.3506L18.4814 6.02539C18.2772 5.41306 17.7041 5.00005 17.0586 5H17V16.0869ZM8 16H16V15H8V16ZM9.5 2C8.67157 2 8 2.67157 8 3.5V14H16V3.5C16 2.67157 15.3284 2 14.5 2H9.5Z" fill="black"/>
</svg>
