<svg width="24" height="24" viewBox="0 0 24 24" fill="none" xmlns="http://www.w3.org/2000/svg">
<path fill-rule="evenodd" clip-rule="evenodd" d="M13.7559 2.0127C14.8496 2.12387 15.7351 2.94035 15.9502 4H18.5C19.3284 4 20 4.67157 20 5.5C20 6.15281 19.5822 6.70597 19 6.91211V19.5C19 20.8807 17.8807 22 16.5 22H7.5C6.11929 22 5 20.8807 5 19.5V6.91211C4.41782 6.70597 4 6.15281 4 5.5C4 4.67157 4.67157 4 5.5 4H8.0498C8.28142 2.85886 9.29051 2 10.5 2H13.5L13.7559 2.0127ZM6 19.5C6 20.3284 6.67157 21 7.5 21H16.5C17.3284 21 18 20.3284 18 19.5V7H6V19.5ZM5.5 5C5.22386 5 5 5.22386 5 5.5C5 5.77614 5.22386 6 5.5 6H18.5C18.7761 6 19 5.77614 19 5.5C19 5.22386 18.7761 5 18.5 5H5.5ZM10.3467 3.00781C9.7612 3.06726 9.27663 3.46383 9.08691 4H14.9131C14.7234 3.46383 14.2388 3.06726 13.6533 3.00781L13.5 3H10.5L10.3467 3.00781Z" fill="black"/>
</svg>
