<svg width="24" height="24" viewBox="0 0 24 24" fill="none" xmlns="http://www.w3.org/2000/svg">
<path d="M7.14645 7.14645C7.34171 6.95118 7.65822 6.95118 7.85348 7.14645C8.04874 7.34171 8.04874 7.65822 7.85348 7.85348L4.70699 11H14.5C18.0898 11 21 13.9101 21 17.5C21 17.7761 20.7761 18 20.5 18C20.2238 18 20 17.7761 20 17.5C20 14.4624 17.5375 12 14.5 12H4.70699L7.85348 15.1464L7.91793 15.2246C8.0461 15.4186 8.02434 15.6826 7.85348 15.8535C7.68261 16.0243 7.41865 16.0461 7.22457 15.9179L7.14645 15.8535L3.14645 11.8535C2.95118 11.6582 2.95118 11.3417 3.14645 11.1464L7.14645 7.14645Z" fill="black"/>
</svg>
