<svg width="24" height="24" viewBox="0 0 24 24" fill="none" xmlns="http://www.w3.org/2000/svg">
<path d="M10.5 13C10.7761 13 11 13.2239 11 13.5V16.5C11 16.7761 10.7761 17 10.5 17C10.2239 17 10 16.7761 10 16.5V13.5C10 13.2239 10.2239 13 10.5 13Z" fill="black"/>
<path fill-rule="evenodd" clip-rule="evenodd" d="M16.5 2C18.9853 2 21 4.01472 21 6.5V8.5C21 8.77614 20.7761 9 20.5 9C20.2239 9 20 8.77614 20 8.5V6.5C20 4.567 18.433 3 16.5 3C14.567 3 13 4.567 13 6.5V9H15.5C16.8807 9 18 10.1193 18 11.5V18.5C18 19.8807 16.8807 21 15.5 21H5.5C4.11929 21 3 19.8807 3 18.5V11.5C3 10.1193 4.11929 9 5.5 9H12V6.5C12 4.01472 14.0147 2 16.5 2ZM5.5 10C4.67157 10 4 10.6716 4 11.5V18.5C4 19.3284 4.67157 20 5.5 20H15.5C16.3284 20 17 19.3284 17 18.5V11.5C17 10.6716 16.3284 10 15.5 10H5.5Z" fill="black"/>
</svg>
