<svg width="24" height="24" viewBox="0 0 24 24" fill="none" xmlns="http://www.w3.org/2000/svg">
<path d="M17.5 13C17.7761 13 18 13.2239 18 13.5V17H21.5C21.7761 17 22 17.2239 22 17.5C22 17.7761 21.7761 18 21.5 18H18V21.5C18 21.7761 17.7761 22 17.5 22C17.2239 22 17 21.7761 17 21.5V18H13.5C13.2239 18 13 17.7761 13 17.5C13 17.2239 13.2239 17 13.5 17H17V13.5C17 13.2239 17.2239 13 17.5 13Z" fill="black"/>
<path fill-rule="evenodd" clip-rule="evenodd" d="M7.29883 3C7.86637 3.00009 8.41717 3.19331 8.86035 3.54785L10.6758 5H18.5C19.8807 5 21 6.11929 21 7.5V15.5C21 15.7761 20.7761 16 20.5 16C20.2239 16 20 15.7761 20 15.5V7.5C20 6.67157 19.3284 6 18.5 6H10.6514L9.78125 6.58008C9.3706 6.85384 8.88806 6.99998 8.39453 7H2V17.5C2 18.3284 2.67157 19 3.5 19H15.5C15.7761 19 16 19.2239 16 19.5C16 19.7761 15.7761 20 15.5 20H3.5C2.11929 20 1 18.8807 1 17.5V5.5C1 4.11929 2.11929 3 3.5 3H7.29883ZM3.5 4C2.67157 4 2 4.67157 2 5.5V6H8.39453C8.69064 5.99998 8.98018 5.9123 9.22656 5.74805L9.65332 5.46289L8.23535 4.3291C7.96948 4.11641 7.6393 4.00009 7.29883 4H3.5Z" fill="black"/>
</svg>
