<svg width="24" height="24" viewBox="0 0 24 24" fill="none" xmlns="http://www.w3.org/2000/svg">
<path d="M13 18.0002C13 18.5525 12.5523 19.0002 12 19.0002C11.4477 19.0002 11 18.5525 11 18.0002C11 17.4479 11.4477 17.0002 12 17.0002C12.5523 17.0002 13 17.4479 13 18.0002Z" fill="black"/>
<path d="M12.5278 15.501L12.9446 7.99867C12.9747 7.45643 12.5431 7.00021 12 7.00021C11.4569 7.00021 11.0254 7.45643 11.0555 7.99867L11.4723 15.501C11.4878 15.7811 11.7195 16.0002 12 16.0002C12.2805 16.0002 12.5122 15.7811 12.5278 15.501Z" fill="black"/>
<path fill-rule="evenodd" clip-rule="evenodd" d="M10.6997 2.75864C11.2764 1.75558 12.7236 1.75559 13.3004 2.75864L23.0719 19.7525C23.6469 20.7525 22.925 22.0002 21.7715 22.0002H2.22855C1.07502 22.0002 0.35319 20.7525 0.928188 19.7525L10.6997 2.75864ZM12.4335 3.25711C12.2412 2.92276 11.7588 2.92276 11.5666 3.25711L1.79509 20.251C1.60343 20.5843 1.84404 21.0002 2.22855 21.0002H21.7715C22.156 21.0002 22.3966 20.5843 22.2049 20.251L12.4335 3.25711Z" fill="black"/>
</svg>
