<svg width="24" height="24" viewBox="0 0 24 24" fill="none" xmlns="http://www.w3.org/2000/svg">
<path d="M17.5 13C17.7761 13 18 13.2239 18 13.5V17H21.5C21.7761 17 22 17.2239 22 17.5C22 17.7761 21.7761 18 21.5 18H18V21.5C18 21.7761 17.7761 22 17.5 22C17.2239 22 17 21.7761 17 21.5V18H13.5C13.2239 18 13 17.7761 13 17.5C13 17.2239 13.2239 17 13.5 17H17V13.5C17 13.2239 17.2239 13 17.5 13Z" fill="black"/>
<path d="M1.5 15C1.77614 15 2 15.2239 2 15.5V16.5C2 17.3284 2.67157 18 3.5 18H4.5C4.77614 18 5 18.2239 5 18.5C5 18.7761 4.77614 19 4.5 19H3.5C2.11929 19 1 17.8807 1 16.5V15.5C1 15.2239 1.22386 15 1.5 15Z" fill="black"/>
<path d="M8.5 18C8.77614 18 9 18.2239 9 18.5C9 18.7761 8.77614 19 8.5 19H6.5C6.22386 19 6 18.7761 6 18.5C6 18.2239 6.22386 18 6.5 18H8.5Z" fill="black"/>
<path d="M11.5 18C11.7761 18 12 18.2239 12 18.5C12 18.7761 11.7761 19 11.5 19H10.5C10.2239 19 10 18.7761 10 18.5C10 18.2239 10.2239 18 10.5 18H11.5Z" fill="black"/>
<path d="M1.5 10C1.77614 10 2 10.2239 2 10.5V13.5C2 13.7761 1.77614 14 1.5 14C1.22386 14 1 13.7761 1 13.5V10.5C1 10.2239 1.22386 10 1.5 10Z" fill="black"/>
<path d="M18.5 10C18.7761 10 19 10.2239 19 10.5V11.5C19 11.7761 18.7761 12 18.5 12C18.2239 12 18 11.7761 18 11.5V10.5C18 10.2239 18.2239 10 18.5 10Z" fill="black"/>
<path d="M1.5 6C1.77614 6 2 6.22386 2 6.5V8.5C2 8.77614 1.77614 9 1.5 9C1.22386 9 1 8.77614 1 8.5V6.5C1 6.22386 1.22386 6 1.5 6Z" fill="black"/>
<path d="M18.5 6C18.7761 6 19 6.22386 19 6.5V8.5C19 8.77614 18.7761 9 18.5 9C18.2239 9 18 8.77614 18 8.5V6.5C18 6.22386 18.2239 6 18.5 6Z" fill="black"/>
<path d="M3.5 1C3.77614 1 4 1.22386 4 1.5C4 1.77614 3.77614 2 3.5 2C2.67157 2 2 2.67157 2 3.5V4.5C2 4.77614 1.77614 5 1.5 5C1.22386 5 1 4.77614 1 4.5V3.5C1 2.11929 2.11929 1 3.5 1Z" fill="black"/>
<path d="M16.5 1C17.8807 1 19 2.11929 19 3.5V4.5C19 4.77614 18.7761 5 18.5 5C18.2239 5 18 4.77614 18 4.5V3.5C18 2.67157 17.3284 2 16.5 2H15.5C15.2239 2 15 1.77614 15 1.5C15 1.22386 15.2239 1 15.5 1H16.5Z" fill="black"/>
<path d="M8.5 1C8.77614 1 9 1.22386 9 1.5C9 1.77614 8.77614 2 8.5 2H5.5C5.22386 2 5 1.77614 5 1.5C5 1.22386 5.22386 1 5.5 1H8.5Z" fill="black"/>
<path d="M13.5 1C13.7761 1 14 1.22386 14 1.5C14 1.77614 13.7761 2 13.5 2H10.5C10.2239 2 10 1.77614 10 1.5C10 1.22386 10.2239 1 10.5 1H13.5Z" fill="black"/>
</svg>
