<svg width="24" height="24" viewBox="0 0 24 24" fill="none" xmlns="http://www.w3.org/2000/svg">
<path d="M20.1465 11.1465C20.3417 10.9512 20.6583 10.9512 20.8535 11.1465L21.2676 11.5605C21.7363 12.0293 21.9999 12.6652 22 13.3281V19.5C22 20.8807 20.8807 22 19.5 22H5.5C4.67157 22 4 21.3284 4 20.5C4 20.2239 4.22386 20 4.5 20C4.74171 20 4.94371 20.1714 4.99023 20.3994L5.00977 20.6006C5.05629 20.8286 5.25829 21 5.5 21H19.5C20.3284 21 21 20.3284 21 19.5V13.3281C20.9999 12.9304 20.8418 12.5488 20.5605 12.2676L20.1465 11.8535C19.9512 11.6583 19.9512 11.3417 20.1465 11.1465Z" fill="black"/>
<path fill-rule="evenodd" clip-rule="evenodd" d="M6.5 2C7.88071 2 9 3.11929 9 4.5V11C9 12.1046 8.10457 13 7 13C5.89543 13 5 12.1046 5 11V8.5C5 8.22386 5.22386 8 5.5 8C5.77614 8 6 8.22386 6 8.5V11C6 11.5523 6.44772 12 7 12C7.55228 12 8 11.5523 8 11V4.5C8 3.67157 7.32843 3 6.5 3C5.67157 3 5 3.67157 5 4.5V5H6.5C6.77614 5 7 5.22386 7 5.5C7 5.77614 6.77614 6 6.5 6H3.5C2.67157 6 2 6.67157 2 7.5V16.5C2 17.3284 2.67157 18 3.5 18H16.5C17.3284 18 18 17.3284 18 16.5V10H16.5C15.1193 10 14 8.88071 14 7.5V6H10.5C10.2239 6 10 5.77614 10 5.5C10 5.22386 10.2239 5 10.5 5H14.5C14.6326 5 14.7597 5.05272 14.8535 5.14648L14.9453 5.23828C14.9491 5.24202 14.9533 5.24528 14.957 5.24902C14.9608 5.25276 14.964 5.25701 14.9678 5.26074L15.209 5.50195C15.2127 5.5057 15.217 5.50895 15.2207 5.5127C15.2244 5.51644 15.2277 5.52067 15.2314 5.52441L15.335 5.62793C15.3387 5.63167 15.3429 5.63493 15.3467 5.63867C15.3504 5.64241 15.3537 5.64666 15.3574 5.65039L15.415 5.70801C15.4188 5.71175 15.423 5.71501 15.4268 5.71875C15.4305 5.72249 15.4338 5.72673 15.4375 5.73047L15.8691 6.16211C15.8729 6.16585 15.8771 6.16911 15.8809 6.17285C15.8846 6.1766 15.8879 6.18083 15.8916 6.18457C15.8953 6.18831 15.8996 6.19157 15.9033 6.19531C15.9071 6.19905 15.9103 6.20329 15.9141 6.20703C15.9178 6.21077 15.922 6.21404 15.9258 6.21777C15.9295 6.22151 15.9328 6.22575 15.9365 6.22949C15.9403 6.23323 15.9445 6.2365 15.9482 6.24023C15.952 6.24397 15.9553 6.24822 15.959 6.25195L16.0371 6.33008C16.0408 6.33379 16.0451 6.33711 16.0488 6.34082C16.0525 6.34453 16.0559 6.34884 16.0596 6.35254L16.126 6.41895C16.1297 6.42264 16.134 6.426 16.1377 6.42969C16.1414 6.43337 16.1448 6.43773 16.1484 6.44141L16.291 6.58398C16.2947 6.58762 16.2991 6.59109 16.3027 6.59473C16.3064 6.59837 16.3098 6.6028 16.3135 6.60645L16.3564 6.64941C16.3601 6.65303 16.3645 6.65654 16.3682 6.66016C16.3718 6.66378 16.3753 6.66825 16.3789 6.67188L16.6045 6.89746C16.6079 6.90088 16.6118 6.90381 16.6152 6.90723C16.6187 6.91065 16.6216 6.91455 16.625 6.91797L16.7412 7.03418C16.7446 7.03759 16.7485 7.04054 16.752 7.04395C16.7554 7.04737 16.7583 7.05127 16.7617 7.05469L16.8447 7.1377C16.8481 7.14111 16.8521 7.14405 16.8555 7.14746C16.8589 7.15088 16.8618 7.15479 16.8652 7.1582C16.8687 7.16162 16.8726 7.16456 16.876 7.16797C16.8794 7.17138 16.8823 7.1753 16.8857 7.17871C16.8892 7.18212 16.8931 7.18507 16.8965 7.18848C16.8999 7.19188 16.9029 7.19582 16.9062 7.19922L17.0869 7.37988C17.0902 7.38319 17.0944 7.38635 17.0977 7.38965C17.1009 7.39294 17.1041 7.39711 17.1074 7.40039L17.2246 7.51758C17.2277 7.52067 17.2313 7.52328 17.2344 7.52637C17.2375 7.52946 17.2401 7.53304 17.2432 7.53613L17.3105 7.60352C17.3136 7.60661 17.3172 7.60922 17.3203 7.6123C17.3234 7.61539 17.326 7.61899 17.3291 7.62207C17.3323 7.62522 17.3357 7.62869 17.3389 7.63184C17.342 7.63493 17.3455 7.63754 17.3486 7.64062C17.3517 7.64372 17.3543 7.64731 17.3574 7.65039L17.5049 7.79785C17.5079 7.80087 17.5116 7.80363 17.5146 7.80664C17.5177 7.80965 17.5204 7.8134 17.5234 7.81641L17.5498 7.84277C17.5528 7.84576 17.5566 7.84859 17.5596 7.85156C17.5625 7.85454 17.5654 7.85836 17.5684 7.86133L17.6562 7.94922C17.659 7.95199 17.6623 7.95427 17.665 7.95703C17.6678 7.9598 17.6701 7.96306 17.6729 7.96582L17.6992 7.99219C17.702 7.99496 17.7052 7.99724 17.708 8C17.7108 8.00277 17.7131 8.00603 17.7158 8.00879L17.75 8.04297C17.7528 8.04574 17.756 8.04802 17.7588 8.05078C17.7616 8.05354 17.7638 8.05681 17.7666 8.05957L17.8164 8.10938C17.8191 8.11211 17.8225 8.11446 17.8252 8.11719C17.8279 8.11991 17.8303 8.12326 17.833 8.12598C17.8356 8.12858 17.8382 8.13119 17.8408 8.13379C17.8435 8.13649 17.8469 8.1389 17.8496 8.1416C17.8523 8.14431 17.8547 8.14769 17.8574 8.15039L17.999 8.29199C18.0015 8.29444 18.0044 8.29639 18.0068 8.29883C18.0093 8.30127 18.0112 8.3042 18.0137 8.30664L18.1523 8.44531C18.1547 8.44765 18.1578 8.44982 18.1602 8.45215C18.1625 8.45448 18.1647 8.45764 18.167 8.45996L18.3252 8.61816C18.3273 8.62024 18.33 8.62196 18.332 8.62402C18.3341 8.62609 18.3358 8.6288 18.3379 8.63086L18.4658 8.75879C18.4676 8.76058 18.4699 8.76189 18.4717 8.76367C18.4735 8.76546 18.4748 8.76775 18.4766 8.76953L18.5029 8.7959C18.5047 8.79764 18.5071 8.79906 18.5088 8.80078C18.5105 8.80251 18.512 8.80493 18.5137 8.80664L18.6514 8.94434C18.6527 8.94569 18.6549 8.9469 18.6562 8.94824C18.6576 8.94957 18.6588 8.9518 18.6602 8.95312L18.6758 8.96875C18.6769 8.96989 18.6786 8.97055 18.6797 8.97168C18.6808 8.97282 18.6815 8.97445 18.6826 8.97559L18.7314 9.02441C18.7325 9.02548 18.7343 9.02629 18.7354 9.02734C18.7364 9.0284 18.7372 9.03021 18.7383 9.03125L18.7754 9.06836C18.7762 9.06917 18.7775 9.06951 18.7783 9.07031C18.7791 9.07113 18.7795 9.07243 18.7803 9.07324L18.7988 9.0918C18.7995 9.09252 18.8011 9.09305 18.8018 9.09375C18.8025 9.09446 18.803 9.09598 18.8037 9.09668L18.8174 9.11035L18.8193 9.11133L18.8203 9.11328L18.8398 9.13281L18.8418 9.13379L18.8428 9.13574L18.8535 9.14648C18.9473 9.24025 19 9.36739 19 9.5V16.5C19 17.8807 17.8807 19 16.5 19H3.5C2.11929 19 1 17.8807 1 16.5V7.5C1 6.11929 2.11929 5 3.5 5H4V4.5C4 3.11929 5.11929 2 6.5 2ZM15 7.5C15 8.32843 15.6716 9 16.5 9H17.293L17.1504 8.85742C17.1477 8.85472 17.1443 8.85232 17.1416 8.84961C17.1389 8.84691 17.1365 8.84353 17.1338 8.84082C17.1312 8.83822 17.1286 8.83562 17.126 8.83301C17.1233 8.83029 17.1199 8.82792 17.1172 8.8252C17.1145 8.82246 17.1121 8.81915 17.1094 8.81641L17.0596 8.7666C17.0568 8.76384 17.0535 8.76155 17.0508 8.75879C17.048 8.75603 17.0457 8.75277 17.043 8.75L17.0088 8.71582C17.006 8.71306 17.0028 8.71077 17 8.70801C16.9972 8.70525 16.995 8.70199 16.9922 8.69922L16.9658 8.67285C16.9631 8.67009 16.9598 8.66781 16.957 8.66504C16.9543 8.66228 16.952 8.65902 16.9492 8.65625L16.8613 8.56836C16.8584 8.5654 16.8545 8.56254 16.8516 8.55957C16.8486 8.5566 16.8458 8.55279 16.8428 8.5498L16.8164 8.52344C16.8134 8.52043 16.8097 8.51766 16.8066 8.51465C16.8036 8.51164 16.8009 8.5079 16.7979 8.50488L16.6504 8.35742C16.6473 8.35434 16.6437 8.35172 16.6406 8.34863C16.6375 8.34554 16.6349 8.34196 16.6318 8.33887C16.6287 8.33572 16.6252 8.33225 16.6221 8.3291C16.619 8.32602 16.6154 8.3234 16.6123 8.32031C16.6092 8.31722 16.6066 8.31364 16.6035 8.31055L16.5361 8.24316C16.533 8.24007 16.5295 8.23747 16.5264 8.23438C16.5233 8.23129 16.5207 8.2277 16.5176 8.22461L16.4004 8.10742C16.3971 8.10414 16.3929 8.10094 16.3896 8.09766C16.3864 8.09436 16.3832 8.09022 16.3799 8.08691L16.1992 7.90625C16.1958 7.90286 16.1919 7.89988 16.1885 7.89648C16.1851 7.89308 16.1821 7.88915 16.1787 7.88574C16.1753 7.88233 16.1714 7.87939 16.168 7.87598C16.1646 7.87257 16.1616 7.86865 16.1582 7.86523C16.1548 7.86182 16.1509 7.85889 16.1475 7.85547C16.144 7.85205 16.1411 7.84815 16.1377 7.84473L16.0547 7.76172C16.0513 7.7583 16.0474 7.75537 16.0439 7.75195C16.0405 7.74855 16.0376 7.74462 16.0342 7.74121L15.918 7.625C15.9146 7.62158 15.9106 7.61865 15.9072 7.61523C15.9038 7.61182 15.9009 7.60791 15.8975 7.60449L15.6719 7.37891C15.6683 7.37529 15.6638 7.37179 15.6602 7.36816C15.6565 7.36455 15.653 7.36006 15.6494 7.35645L15.6064 7.31348C15.6028 7.30984 15.5984 7.30638 15.5947 7.30273C15.5911 7.2991 15.5876 7.29465 15.584 7.29102L15.4414 7.14844C15.4377 7.14476 15.4334 7.14138 15.4297 7.1377C15.426 7.134 15.4226 7.12967 15.4189 7.12598L15.3525 7.05957C15.3488 7.05587 15.3445 7.05253 15.3408 7.04883C15.3371 7.04511 15.3338 7.04083 15.3301 7.03711L15.252 6.95898C15.2482 6.95526 15.244 6.95197 15.2402 6.94824C15.2365 6.94451 15.2332 6.94026 15.2295 6.93652C15.2258 6.93279 15.2215 6.92952 15.2178 6.92578C15.214 6.92205 15.2108 6.9178 15.207 6.91406C15.2033 6.91033 15.1991 6.90706 15.1953 6.90332C15.1916 6.89958 15.1883 6.89534 15.1846 6.8916C15.1808 6.88786 15.1766 6.8846 15.1729 6.88086C15.1691 6.87712 15.1659 6.87288 15.1621 6.86914L15 6.70703V7.5Z" fill="black"/>
</svg>
