<svg width="24" height="24" viewBox="0 0 24 24" fill="none" xmlns="http://www.w3.org/2000/svg">
<path d="M22.5 8C22.7761 8 23 8.22386 23 8.5V16.5C23 17.8807 21.8807 19 20.5 19H5.5C5.22386 19 5 18.7761 5 18.5C5 18.2239 5.22386 18 5.5 18H20.5C21.3284 18 22 17.3284 22 16.5V8.5C22 8.22386 22.2239 8 22.5 8Z" fill="black"/>
<path d="M20.5 6C20.7761 6 21 6.22386 21 6.5V14.5C21 15.8807 19.8807 17 18.5 17H3.5C3.22386 17 3 16.7761 3 16.5C3 16.2239 3.22386 16 3.5 16H18.5C19.3284 16 20 15.3284 20 14.5V6.5C20 6.22386 20.2239 6 20.5 6Z" fill="black"/>
<path fill-rule="evenodd" clip-rule="evenodd" d="M10 7C11.3807 7 12.5 8.11929 12.5 9.5C12.5 10.8807 11.3807 12 10 12C8.61929 12 7.5 10.8807 7.5 9.5C7.5 8.11929 8.61929 7 10 7ZM10 8C9.17157 8 8.5 8.67157 8.5 9.5C8.5 10.3284 9.17157 11 10 11C10.8284 11 11.5 10.3284 11.5 9.5C11.5 8.67157 10.8284 8 10 8Z" fill="black"/>
<path fill-rule="evenodd" clip-rule="evenodd" d="M16.5 4C17.8807 4 19 5.11929 19 6.5V12.5C19 13.8807 17.8807 15 16.5 15H3.5C2.11929 15 1 13.8807 1 12.5V6.5C1 5.11929 2.11929 4 3.5 4H16.5ZM3.5 5C2.67157 5 2 5.67157 2 6.5V12.5C2 13.3284 2.67157 14 3.5 14H16.5C17.3284 14 18 13.3284 18 12.5V6.5C18 5.67157 17.3284 5 16.5 5H3.5Z" fill="black"/>
</svg>
