<svg width="24" height="24" viewBox="0 0 24 24" fill="none" xmlns="http://www.w3.org/2000/svg">
<path d="M10.5 13C10.7761 13 11 13.2239 11 13.5V14.5C11 14.7761 10.7761 15 10.5 15H9.5C9.22386 15 9 14.7761 9 14.5V13.5L9.00977 13.3994C9.05629 13.1714 9.25829 13 9.5 13H10.5Z" fill="black"/>
<path d="M14.5 13C14.7761 13 15 13.2239 15 13.5V14.5C15 14.7761 14.7761 15 14.5 15H13.5C13.2239 15 13 14.7761 13 14.5V13.5L13.0098 13.3994C13.0563 13.1714 13.2583 13 13.5 13H14.5Z" fill="black"/>
<path d="M10.5 9C10.7761 9 11 9.22386 11 9.5V10.5C11 10.7761 10.7761 11 10.5 11H9.5C9.22386 11 9 10.7761 9 10.5V9.5L9.00977 9.39941C9.05629 9.17145 9.25829 9 9.5 9H10.5Z" fill="black"/>
<path d="M14.5 9C14.7761 9 15 9.22386 15 9.5V10.5C15 10.7761 14.7761 11 14.5 11H13.5C13.2239 11 13 10.7761 13 10.5V9.5L13.0098 9.39941C13.0563 9.17145 13.2583 9 13.5 9H14.5Z" fill="black"/>
<path d="M10.5 5C10.7761 5 11 5.22386 11 5.5V6.5C11 6.77614 10.7761 7 10.5 7H9.5C9.22386 7 9 6.77614 9 6.5V5.5L9.00977 5.39941C9.05629 5.17145 9.25829 5 9.5 5H10.5Z" fill="black"/>
<path d="M14.5 5C14.7761 5 15 5.22386 15 5.5V6.5C15 6.77614 14.7761 7 14.5 7H13.5C13.2239 7 13 6.77614 13 6.5V5.5L13.0098 5.39941C13.0563 5.17145 13.2583 5 13.5 5H14.5Z" fill="black"/>
<path fill-rule="evenodd" clip-rule="evenodd" d="M15.5 2C16.8807 2 18 3.11929 18 4.5V6H19.5C20.8807 6 22 7.11929 22 8.5V21.5C22 21.7761 21.7761 22 21.5 22H13.5C13.2239 22 13 21.7761 13 21.5V18.5C13 18.2239 12.7761 18 12.5 18H11.5C11.2239 18 11 18.2239 11 18.5V21.5C11 21.7761 10.7761 22 10.5 22H2.5C2.22386 22 2 21.7761 2 21.5V8.5C2 7.11929 3.11929 6 4.5 6H6V4.5C6 3.11929 7.11929 2 8.5 2H15.5ZM4.5 7C3.67157 7 3 7.67157 3 8.5V21H6V7H4.5ZM8.5 3C7.67157 3 7 3.67157 7 4.5V21H10V18.5C10 17.6716 10.6716 17 11.5 17H12.5C13.3284 17 14 17.6716 14 18.5V21H17V4.5C17 3.67157 16.3284 3 15.5 3H8.5ZM18 21H21V8.5C21 7.67157 20.3284 7 19.5 7H18V21Z" fill="black"/>
</svg>
