<svg width="24" height="24" viewBox="0 0 24 24" fill="none" xmlns="http://www.w3.org/2000/svg">
<path d="M6.5 17C6.77614 17 7 17.2239 7 17.5V18.5C7 18.7761 6.77614 19 6.5 19H5.5C5.22386 19 5 18.7761 5 18.5V17.5C5 17.2239 5.22386 17 5.5 17H6.5Z" fill="black"/>
<path d="M9.5 17C9.77614 17 10 17.2239 10 17.5V18.5C10 18.7761 9.77614 19 9.5 19H8.5C8.22386 19 8 18.7761 8 18.5V17.5C8 17.2239 8.22386 17 8.5 17H9.5Z" fill="black"/>
<path d="M12.5 17C12.7761 17 13 17.2239 13 17.5V18.5C13 18.7761 12.7761 19 12.5 19H11.5C11.2239 19 11 18.7761 11 18.5V17.5C11 17.2239 11.2239 17 11.5 17H12.5Z" fill="black"/>
<path d="M6.5 14C6.77614 14 7 14.2239 7 14.5V15.5C7 15.7761 6.77614 16 6.5 16H5.5C5.22386 16 5 15.7761 5 15.5V14.5C5 14.2239 5.22386 14 5.5 14H6.5Z" fill="black"/>
<path d="M9.5 14C9.77614 14 10 14.2239 10 14.5V15.5C10 15.7761 9.77614 16 9.5 16H8.5C8.22386 16 8 15.7761 8 15.5V14.5C8 14.2239 8.22386 14 8.5 14H9.5Z" fill="black"/>
<path d="M12.5 14C12.7761 14 13 14.2239 13 14.5V15.5C13 15.7761 12.7761 16 12.5 16H11.5C11.2239 16 11 15.7761 11 15.5V14.5C11 14.2239 11.2239 14 11.5 14H12.5Z" fill="black"/>
<path d="M15.5 14C15.7761 14 16 14.2239 16 14.5V15.5C16 15.7761 15.7761 16 15.5 16H14.5C14.2239 16 14 15.7761 14 15.5V14.5C14 14.2239 14.2239 14 14.5 14H15.5Z" fill="black"/>
<path d="M18.5 14C18.7761 14 19 14.2239 19 14.5V15.5C19 15.7761 18.7761 16 18.5 16H17.5C17.2239 16 17 15.7761 17 15.5V14.5C17 14.2239 17.2239 14 17.5 14H18.5Z" fill="black"/>
<path d="M15.5 11C15.7761 11 16 11.2239 16 11.5V12.5C16 12.7761 15.7761 13 15.5 13H14.5C14.2239 13 14 12.7761 14 12.5V11.5C14 11.2239 14.2239 11 14.5 11H15.5Z" fill="black"/>
<path d="M18.5 11C18.7761 11 19 11.2239 19 11.5V12.5C19 12.7761 18.7761 13 18.5 13H17.5C17.2239 13 17 12.7761 17 12.5V11.5C17 11.2239 17.2239 11 17.5 11H18.5Z" fill="black"/>
<path fill-rule="evenodd" clip-rule="evenodd" d="M17.5 2C17.7761 2 18 2.22386 18 2.5V3H19.7139L19.9482 3.01172C21.1007 3.12888 22 4.10275 22 5.28613V19.5C22 20.8807 20.8807 22 19.5 22H4.5C3.20566 22 2.14082 21.0164 2.0127 19.7559L2 19.5V5.5C2 4.11929 3.11929 3 4.5 3H6V2.5C6 2.22386 6.22386 2 6.5 2C6.77614 2 7 2.22386 7 2.5V3H17V2.5C17 2.22386 17.2239 2 17.5 2ZM3 19.5L3.00781 19.6533C3.08461 20.4097 3.72334 21 4.5 21H19.5C20.3284 21 21 20.3284 21 19.5V8H3V19.5ZM4.5 4C3.67157 4 3 4.67157 3 5.5V7H21V5.28613C21 4.62043 20.494 4.07267 19.8457 4.00684L19.7139 4H18V5.5C18 5.77614 17.7761 6 17.5 6C17.2239 6 17 5.77614 17 5.5V4H7V5.5C7 5.77614 6.77614 6 6.5 6C6.22386 6 6 5.77614 6 5.5V4H4.5Z" fill="black"/>
</svg>
