<svg width="24" height="24" viewBox="0 0 24 24" fill="none" xmlns="http://www.w3.org/2000/svg">
<path d="M7.5 15C8.32843 15 9 15.6716 9 16.5C9 17.3284 8.32843 18 7.5 18C6.67157 18 6 17.3284 6 16.5C6 15.6716 6.67157 15 7.5 15Z" fill="black"/>
<path d="M17.5 16C17.7761 16 18 16.2239 18 16.5C18 16.7761 17.7761 17 17.5 17H10.5C10.2239 17 10 16.7761 10 16.5C10 16.2239 10.2239 16 10.5 16H17.5Z" fill="black"/>
<path d="M7.5 10C8.32843 10 9 10.6716 9 11.5C9 12.3284 8.32843 13 7.5 13C6.67157 13 6 12.3284 6 11.5C6 10.6716 6.67157 10 7.5 10Z" fill="black"/>
<path d="M17.5 11C17.7761 11 18 11.2239 18 11.5C18 11.7761 17.7761 12 17.5 12H10.5C10.2239 12 10 11.7761 10 11.5C10 11.2239 10.2239 11 10.5 11H17.5Z" fill="black"/>
<path d="M7.5 5C8.32843 5 9 5.67157 9 6.5C9 7.32843 8.32843 8 7.5 8C6.67157 8 6 7.32843 6 6.5C6 5.67157 6.67157 5 7.5 5Z" fill="black"/>
<path d="M17.5 6C17.7761 6 18 6.22386 18 6.5C18 6.77614 17.7761 7 17.5 7H10.5C10.2239 7 10 6.77614 10 6.5C10 6.22386 10.2239 6 10.5 6H17.5Z" fill="black"/>
<path fill-rule="evenodd" clip-rule="evenodd" d="M18.5 1C19.8807 1 21 2.11929 21 3.5V20.5C21 21.8807 19.8807 23 18.5 23H5.5C4.11929 23 3 21.8807 3 20.5V3.5C3 2.11929 4.11929 1 5.5 1H18.5ZM5.5 2C4.67157 2 4 2.67157 4 3.5V20.5C4 21.3284 4.67157 22 5.5 22H18.5C19.3284 22 20 21.3284 20 20.5V3.5C20 2.67157 19.3284 2 18.5 2H5.5Z" fill="black"/>
</svg>
