<svg width="24" height="24" viewBox="0 0 24 24" fill="none" xmlns="http://www.w3.org/2000/svg">
<path fill-rule="evenodd" clip-rule="evenodd" d="M15.4268 4C19.6286 4.00018 22.2423 8.47183 20.3223 12.0977C21.8585 12.4676 23 13.8503 23 15.5C23 17.433 21.433 19 19.5 19H4.5C2.567 19 1 17.433 1 15.5C1 13.7367 2.30383 12.2778 4 12.0352V11.7109C4.00012 8.4599 7.38268 6.43559 10.1895 7.75391C10.9433 5.52596 13.0416 4 15.4268 4ZM15.4268 5C13.4136 5 11.6505 6.32732 11.084 8.24316L11.0332 8.43066L10.9854 8.62109C10.9459 8.77878 10.8322 8.90813 10.6807 8.9668C10.529 9.02543 10.3579 9.00621 10.2227 8.91602C7.99029 7.42777 5.00012 9.02801 5 11.7109V12.5C5 12.7761 4.77614 13 4.5 13C3.11929 13 2 14.1193 2 15.5C2 16.8807 3.11929 18 4.5 18H19.5C20.8807 18 22 16.8807 22 15.5C22 14.1193 20.8807 13 19.5 13C19.3182 13 19.1506 12.9012 19.0625 12.7422C18.9746 12.5833 18.98 12.3894 19.0762 12.2354L19.2666 11.9297L19.4316 11.6436C21.0148 8.67171 18.8726 5.00018 15.4268 5Z" fill="black"/>
</svg>
