<svg width="24" height="24" viewBox="0 0 24 24" fill="none" xmlns="http://www.w3.org/2000/svg">
<path d="M14.1465 7.14648C14.3417 6.95122 14.6583 6.95122 14.8535 7.14648L18.8535 11.1465C19.0488 11.3417 19.0488 11.6583 18.8535 11.8535L14.8535 15.8535C14.6583 16.0488 14.3417 16.0488 14.1465 15.8535C13.9512 15.6583 13.9512 15.3417 14.1465 15.1465L17.293 12H5.5C5.22386 12 5 11.7761 5 11.5C5 11.2239 5.22386 11 5.5 11H17.293L14.1465 7.85352C13.9512 7.65825 13.9512 7.34175 14.1465 7.14648Z" fill="black"/>
<path fill-rule="evenodd" clip-rule="evenodd" d="M12 1C18.0751 1 23 5.92487 23 12C23 18.0751 18.0751 23 12 23C5.92487 23 1 18.0751 1 12C1 5.92487 5.92487 1 12 1ZM12 2C6.47715 2 2 6.47715 2 12C2 17.5228 6.47715 22 12 22C17.5228 22 22 17.5228 22 12C22 6.47715 17.5228 2 12 2Z" fill="black"/>
</svg>
