<svg width="24" height="24" viewBox="0 0 24 24" fill="none" xmlns="http://www.w3.org/2000/svg">
<path d="M7.12646 3.26578C11.9481 0.572802 18.0398 2.29864 20.7329 7.12028C21.5966 8.66675 22.0065 10.345 22.0044 12.0002C21.9998 15.5001 20.1533 18.8976 16.8784 20.7267C15.3356 21.5883 13.6606 21.9985 12.0093 21.9982C8.50551 21.9974 5.10303 20.1505 3.27197 16.8722C3.24281 16.82 3.21612 16.7666 3.18799 16.714L2.40478 19.4797C2.32953 19.7453 2.05329 19.8996 1.7876 19.8244C1.52206 19.749 1.36764 19.4728 1.44287 19.2072L2.59912 15.1252L2.63623 15.0304C2.74325 14.8243 2.98406 14.7148 3.21631 14.7804L7.29834 15.9367C7.56401 16.0119 7.71828 16.2882 7.64306 16.5539C7.56781 16.8196 7.29157 16.9739 7.02588 16.8986L3.95752 16.0295C4.0173 16.1484 4.07942 16.2675 4.14502 16.3849C5.79246 19.3344 8.85385 20.9967 12.0103 20.9972C13.4953 20.9974 15.0011 20.6299 16.3911 19.8537C19.3373 18.2081 21.0001 15.1518 21.0044 11.9992C21.0063 10.5107 20.6381 9.00087 19.8599 7.60758C17.436 3.26805 11.9533 1.71501 7.61377 4.13883C6.10186 4.9834 4.92881 6.19837 4.14404 7.6066C4.00957 7.8475 3.70543 7.93415 3.46435 7.79996C3.22323 7.66556 3.13673 7.36145 3.27099 7.12028C4.14348 5.55449 5.44784 4.20346 7.12646 3.26578Z" fill="black"/>
<path d="M11.5005 5.00016C11.7764 5.00042 12.0005 5.22418 12.0005 5.50016V12.2492L15.8003 15.0998C16.0207 15.2655 16.0661 15.5792 15.9009 15.8C15.7354 16.0206 15.4216 16.0655 15.2007 15.9005L11.2007 12.9005C11.0749 12.8062 11.0006 12.6574 11.0005 12.5002V5.50016C11.0005 5.22402 11.2243 5.00016 11.5005 5.00016Z" fill="black"/>
</svg>
