<svg width="24" height="24" viewBox="0 0 24 24" fill="none" xmlns="http://www.w3.org/2000/svg">
<path d="M12.5 20C12.7761 20 13 20.2239 13 20.5C13 20.7761 12.7761 21 12.5 21H10.5C10.2239 21 10 20.7761 10 20.5C10 20.2239 10.2239 20 10.5 20H12.5Z" fill="black"/>
<path fill-rule="evenodd" clip-rule="evenodd" d="M16.5 1C17.8807 1 19 2.11929 19 3.5V20.5C19 21.8807 17.8807 23 16.5 23H6.5C5.11929 23 4 21.8807 4 20.5V3.5C4 2.11929 5.11929 1 6.5 1H16.5ZM5 20.5C5 21.3284 5.67157 22 6.5 22H16.5C17.3284 22 18 21.3284 18 20.5V19H5V20.5ZM6.5 2C5.67157 2 5 2.67157 5 3.5V18H18V3.5C18 2.67157 17.3284 2 16.5 2H6.5Z" fill="black"/>
</svg>
