<svg width="24" height="24" viewBox="0 0 24 24" fill="none" xmlns="http://www.w3.org/2000/svg">
<path d="M20.5 10C20.7761 10 21 10.2239 21 10.5V12.5C21 12.7761 20.7761 13 20.5 13C20.2239 13 20 12.7761 20 12.5V10.5C20 10.2239 20.2239 10 20.5 10Z" fill="black"/>
<path fill-rule="evenodd" clip-rule="evenodd" d="M20.5 3C21.8807 3 23 4.11929 23 5.5V17.5C23 18.8807 21.8807 20 20.5 20H3.5C2.11929 20 1 18.8807 1 17.5V5.5C1 4.11929 2.11929 3 3.5 3H20.5ZM3.5 4C2.67157 4 2 4.67157 2 5.5V17.5C2 18.3284 2.67157 19 3.5 19H18V4H3.5ZM19 19H20.5C21.3284 19 22 18.3284 22 17.5V5.5C22 4.67157 21.3284 4 20.5 4H19V19Z" fill="black"/>
</svg>
