<svg width="24" height="24" viewBox="0 0 24 24" fill="none" xmlns="http://www.w3.org/2000/svg">
<path fill-rule="evenodd" clip-rule="evenodd" d="M14.5 1C14.6326 1 14.7597 1.05272 14.8535 1.14648L19.8535 6.14648C19.9473 6.24025 20 6.36739 20 6.5V11.0869C20.5823 11.293 21 11.8471 21 12.5V19.5C21 20.8807 19.8807 22 18.5 22H4.5C3.11929 22 2 20.8807 2 19.5V15.5C2 14.8471 2.41766 14.293 3 14.0869V3.5C3 2.11929 4.11929 1 5.5 1H14.5ZM15.5703 12C15.0688 12 14.6005 12.2507 14.3223 12.668L13.5098 13.8867C13.0461 14.5822 12.2655 15 11.4297 15H3.5C3.22386 15 3 15.2239 3 15.5V19.5C3 20.3284 3.67157 21 4.5 21H18.5C19.3284 21 20 20.3284 20 19.5V12.5C20 12.2239 19.7761 12 19.5 12H15.5703ZM5.5 2C4.67157 2 4 2.67157 4 3.5V14H11.4297C11.9312 14 12.3995 13.7493 12.6777 13.332L13.4902 12.1133C13.9539 11.4178 14.7345 11 15.5703 11H19V7H16.5C15.1193 7 14 5.88071 14 4.5V2H5.5ZM15 4.5C15 5.32843 15.6716 6 16.5 6H18.293L15 2.70703V4.5Z" fill="black"/>
</svg>
