<svg width="24" height="24" viewBox="0 0 24 24" fill="none" xmlns="http://www.w3.org/2000/svg">
<path d="M20.5 16C20.7761 16 21 16.2239 21 16.5V18.5C21 19.8807 19.8807 21 18.5 21H5.5C4.11929 21 3 19.8807 3 18.5V16.5C3 16.2239 3.22386 16 3.5 16C3.77614 16 4 16.2239 4 16.5V18.5C4 19.3284 4.67157 20 5.5 20H18.5C19.3284 20 20 19.3284 20 18.5V16.5C20 16.2239 20.2239 16 20.5 16Z" fill="black"/>
<path d="M12 2C12.2761 2.00004 12.5 2.22388 12.5 2.5V16.293L15.6465 13.1465C15.8418 12.9513 16.1583 12.9512 16.3535 13.1465C16.5487 13.3417 16.5487 13.6583 16.3535 13.8535L12.3535 17.8535C12.1583 18.0488 11.8418 18.0487 11.6465 17.8535L7.64648 13.8535C7.45122 13.6583 7.45122 13.3417 7.64648 13.1465C7.84175 12.9513 8.15827 12.9512 8.35352 13.1465L11.5 16.293V2.5C11.5 2.22386 11.7239 2 12 2Z" fill="black"/>
</svg>
