<svg width="8" height="8" viewBox="0 0 8 8" fill="none" xmlns="http://www.w3.org/2000/svg">
<path d="M7.85355 1.14645C8.04882 1.34171 8.04882 1.65829 7.85355 1.85355L1.85355 7.85355C1.65829 8.04882 1.34171 8.04882 1.14645 7.85355C0.951184 7.65829 0.951184 7.34171 1.14645 7.14645L7.14645 1.14645C7.34171 0.951184 7.65829 0.951184 7.85355 1.14645Z" fill="black"/>
<path d="M7.85355 5.14645C8.04882 5.34171 8.04882 5.65829 7.85355 5.85355L5.85355 7.85355C5.65829 8.04882 5.34171 8.04882 5.14645 7.85355C4.95118 7.65829 4.95118 7.34171 5.14645 7.14645L7.14645 5.14645C7.34171 4.95118 7.65829 4.95118 7.85355 5.14645Z" fill="black"/>
</svg>
