<svg width="24" height="24" viewBox="0 0 24 24" fill="none" xmlns="http://www.w3.org/2000/svg">
<path fill-rule="evenodd" clip-rule="evenodd" d="M16.7323 2.56045C17.7086 1.58434 19.2912 1.58434 20.2675 2.56045L21.4393 3.73233C22.4155 4.7086 22.4155 6.29121 21.4393 7.26748L6.8534 21.8534C6.7836 21.9232 6.69434 21.9708 6.59754 21.9901L1.59754 22.9901C1.43373 23.0228 1.26449 22.9715 1.14637 22.8534C1.02825 22.7353 0.97702 22.5661 1.00965 22.4022L2.00965 17.4022L2.02918 17.331C2.054 17.2618 2.094 17.1988 2.14637 17.1464L16.7323 2.56045ZM2.95985 17.746L2.13661 21.8622L6.25282 21.039L18.7929 8.4999L15.4999 5.20694L2.95985 17.746ZM19.5604 3.26748C18.9747 2.6819 18.0251 2.6819 17.4393 3.26748L16.2069 4.4999L19.4999 7.79287L20.7323 6.56045C21.3179 5.9747 21.3179 5.02511 20.7323 4.43936L19.5604 3.26748Z" fill="black"/>
</svg>
