<svg width="24" height="24" viewBox="0 0 24 24" fill="none" xmlns="http://www.w3.org/2000/svg">
<g clip-path="url(#clip0_6504_3761)">
<path fill-rule="evenodd" clip-rule="evenodd" d="M11.9072 2.00876C11.9989 1.99146 12.0946 1.99972 12.1826 2.03415L23.6826 6.53415C23.8735 6.60897 23.9992 6.79302 24 6.99802C24.0008 7.20316 23.876 7.38766 23.6856 7.46384L19 9.33787V16.5C19 17.641 18.0189 18.5152 16.8057 19.0752C15.55 19.6547 13.8504 20 12 20C10.1496 20 8.45003 19.6547 7.19434 19.0752C6.75341 18.8717 6.34366 18.626 6 18.3418V19.5C6 19.6326 5.94729 19.7597 5.85352 19.8535L3.85352 21.8535C3.71052 21.9965 3.49543 22.0393 3.3086 21.9619C3.1218 21.8845 3 21.7022 3 21.5V10.5C3 9.76631 3.52672 9.15629 4.22266 9.02634L0.314457 7.46384C0.123991 7.38766 -0.00076764 7.20316 3.55513e-06 6.99802C0.00080409 6.79302 0.126541 6.60897 0.317386 6.53415L11.8174 2.03415L11.9072 2.00876ZM4.5 9.99998C4.22386 9.99998 4 10.2238 4 10.5V20.2929L5 19.2929V10.5C5 10.2238 4.77615 9.99998 4.5 9.99998ZM5.70996 9.61619C5.89154 9.86417 6 10.1691 6 10.5V16.5C6 17.0158 6.4741 17.6411 7.61328 18.167C8.71013 18.6732 10.2606 19 12 19C13.7394 19 15.2899 18.6732 16.3867 18.167C17.5259 17.6411 18 17.0158 18 16.5V9.72751L12.1797 11.9668C12.0642 12.0112 11.9359 12.0112 11.8203 11.9668L5.70996 9.61619ZM1.8584 7.00486L5.57813 8.49216L11.3027 6.04001C11.5565 5.93125 11.8511 6.04898 11.96 6.30271C12.0687 6.55649 11.951 6.85112 11.6973 6.95994L6.91602 9.00779L12 10.9638L18.3203 8.53318L22.1406 7.00486L12 3.03708L1.8584 7.00486Z" fill="black"/>
</g>
<defs>
<clipPath id="clip0_6504_3761">
<rect width="24" height="24" fill="white"/>
</clipPath>
</defs>
</svg>
