<svg width="24" height="24" viewBox="0 0 24 24" fill="none" xmlns="http://www.w3.org/2000/svg">
<path d="M3.5 3C3.22386 3 3 3.22386 3 3.5V19.5C3 19.7761 3.22386 20 3.5 20C3.77614 20 4 19.7761 4 19.5V3.5C4 3.22386 3.77614 3 3.5 3Z" fill="black"/>
<path d="M16.8535 7.64648C16.6583 7.45122 16.3417 7.45122 16.1465 7.64648C15.9512 7.84175 15.9512 8.15825 16.1465 8.35352L19.293 11.5H5.5C5.22386 11.5 5 11.7239 5 12C5 12.2761 5.22386 12.5 5.5 12.5H19.293L16.1465 15.6465L16.082 15.7246C15.9539 15.9187 15.9756 16.1827 16.1465 16.3535C16.3173 16.5244 16.5813 16.5461 16.7754 16.418L16.8535 16.3535L20.8535 12.3535C21.0488 12.1583 21.0488 11.8417 20.8535 11.6465L16.8535 7.64648Z" fill="black"/>
</svg>
