<svg width="24" height="24" viewBox="0 0 24 24" fill="none" xmlns="http://www.w3.org/2000/svg">
<path d="M20.5 3C20.7761 3 21 3.22386 21 3.5V19.5C21 19.7761 20.7761 20 20.5 20C20.2238 20 20 19.7761 20 19.5V3.5C20 3.22386 20.2238 3 20.5 3Z" fill="black"/>
<path d="M7.14645 7.64648C7.34171 7.45122 7.65822 7.45122 7.85348 7.64648C8.04874 7.84175 8.04874 8.15825 7.85348 8.35352L4.70699 11.5H18.5C18.7761 11.5 19 11.7239 19 12C19 12.2761 18.7761 12.5 18.5 12.5H4.70699L7.85348 15.6465L7.91793 15.7246C8.04609 15.9187 8.02434 16.1827 7.85348 16.3535C7.68261 16.5244 7.41865 16.5461 7.22457 16.418L7.14645 16.3535L3.14645 12.3535C2.95118 12.1583 2.95118 11.8417 3.14645 11.6465L7.14645 7.64648Z" fill="black"/>
</svg>
