<svg width="24" height="24" viewBox="0 0 24 24" fill="none" xmlns="http://www.w3.org/2000/svg">
<path fill-rule="evenodd" clip-rule="evenodd" d="M15.5 1C15.6326 1 15.7597 1.05272 15.8535 1.14648L20.8535 6.14648C20.9473 6.24025 21 6.36739 21 6.5V8.5C21 8.77614 20.7761 9 20.5 9C20.2239 9 20 8.77614 20 8.5V7H17.5C16.1193 7 15 5.88071 15 4.5V2H5.5C4.67157 2 4 2.67157 4 3.5V20.5C4 21.3284 4.67157 22 5.5 22H18.5C19.3284 22 20 21.3284 20 20.5V16.5C20 16.2239 20.2239 16 20.5 16C20.7761 16 21 16.2239 21 16.5V20.5C21 21.8807 19.8807 23 18.5 23H5.5C4.11929 23 3 21.8807 3 20.5V3.5C3 2.11929 4.11929 1 5.5 1H15.5ZM16 4.5C16 5.32843 16.6716 6 17.5 6H19.293L16 2.70703V4.5Z" fill="black"/>
<path d="M18.1465 9.14648C18.3173 8.97562 18.5813 8.95387 18.7754 9.08203L18.8535 9.14648L21.8535 12.1465C22.0488 12.3417 22.0488 12.6583 21.8535 12.8535L18.8535 15.8535C18.6583 16.0488 18.3417 16.0488 18.1465 15.8535C17.9512 15.6583 17.9512 15.3417 18.1465 15.1465L20.293 13H9.5C9.22386 13 9 12.7761 9 12.5C9 12.2239 9.22386 12 9.5 12H20.293L18.1465 9.85352L18.082 9.77539C17.9539 9.58131 17.9756 9.31735 18.1465 9.14648Z" fill="black"/>
</svg>
