<svg width="24" height="24" viewBox="0 0 24 24" fill="none" xmlns="http://www.w3.org/2000/svg">
<path d="M5.5 16C5.77614 16 6 16.2239 6 16.5V17.5C6 17.7761 5.77614 18 5.5 18H4.5C4.22386 18 4 17.7761 4 17.5V16.5L4.00977 16.3994C4.05629 16.1714 4.25829 16 4.5 16H5.5Z" fill="black"/>
<path d="M9.5 16C9.77614 16 10 16.2239 10 16.5V17.5C10 17.7761 9.77614 18 9.5 18H8.5C8.22386 18 8 17.7761 8 17.5V16.5L8.00977 16.3994C8.05629 16.1714 8.25829 16 8.5 16H9.5Z" fill="black"/>
<path d="M13.5 16C13.7761 16 14 16.2239 14 16.5V17.5C14 17.7761 13.7761 18 13.5 18H12.5C12.2239 18 12 17.7761 12 17.5V16.5L12.0098 16.3994C12.0563 16.1714 12.2583 16 12.5 16H13.5Z" fill="black"/>
<path d="M5.5 13C5.77614 13 6 13.2239 6 13.5V14.5C6 14.7761 5.77614 15 5.5 15H4.5C4.22386 15 4 14.7761 4 14.5V13.5L4.00977 13.3994C4.05629 13.1714 4.25829 13 4.5 13H5.5Z" fill="black"/>
<path d="M9.5 13C9.77614 13 10 13.2239 10 13.5V14.5C10 14.7761 9.77614 15 9.5 15H8.5C8.22386 15 8 14.7761 8 14.5V13.5L8.00977 13.3994C8.05629 13.1714 8.25829 13 8.5 13H9.5Z" fill="black"/>
<path d="M13.5 13C13.7761 13 14 13.2239 14 13.5V14.5C14 14.7761 13.7761 15 13.5 15H12.5C12.2239 15 12 14.7761 12 14.5V13.5L12.0098 13.3994C12.0563 13.1714 12.2583 13 12.5 13H13.5Z" fill="black"/>
<path fill-rule="evenodd" clip-rule="evenodd" d="M5 3C6.10457 3 7 3.89543 7 5V10H9V9.5C9 8.11929 10.1193 7 11.5 7H19C20.1046 7 21 7.89543 21 9V10H21.5C22.3284 10 23 10.6716 23 11.5V20.5C23 20.7761 22.7761 21 22.5 21H1.5C1.22386 21 1 20.7761 1 20.5V11.5C1 10.6716 1.67157 10 2.5 10H3V5C3 3.89543 3.89543 3 5 3ZM5 4C4.44772 4 4 4.44772 4 5V10.5C4 10.7761 3.77614 11 3.5 11H2.5C2.22386 11 2 11.2239 2 11.5V20H22V11.5C22 11.2239 21.7761 11 21.5 11H20.5C20.2239 11 20 10.7761 20 10.5V9C20 8.44772 19.5523 8 19 8H11.5C10.6716 8 10 8.67157 10 9.5V10.5C10 10.7761 9.77614 11 9.5 11H6.5C6.22386 11 6 10.7761 6 10.5V5C6 4.44772 5.55228 4 5 4Z" fill="black"/>
</svg>
