<svg width="24" height="24" viewBox="0 0 24 24" fill="none" xmlns="http://www.w3.org/2000/svg">
<path fill-rule="evenodd" clip-rule="evenodd" d="M15.5 1C15.6326 1 15.7597 1.05272 15.8535 1.14648L20.8535 6.14648C20.9473 6.24025 21 6.36739 21 6.5V20.5C21 21.8807 19.8807 23 18.5 23H5.5C4.11929 23 3 21.8807 3 20.5V3.5C3 2.11929 4.11929 1 5.5 1H15.5ZM5.5 2C4.67157 2 4 2.67157 4 3.5V20.5C4 21.3284 4.67157 22 5.5 22H18.5C19.3284 22 20 21.3284 20 20.5V7H17.5C16.1193 7 15 5.88071 15 4.5V2H5.5ZM16 4.5C16 5.32843 16.6716 6 17.5 6H19.293L16 2.70703V4.5Z" fill="black"/>
</svg>
