<svg width="24" height="24" viewBox="0 0 24 24" fill="none" xmlns="http://www.w3.org/2000/svg">
<path fill-rule="evenodd" clip-rule="evenodd" d="M20.5 4C21.8807 4 23 5.11929 23 6.5V16.5C23 17.8807 21.8807 19 20.5 19H3.5C2.11929 19 1 17.8807 1 16.5V13.5C1 12.1193 2.11929 11 3.5 11H8V6.5C8 5.11929 9.11929 4 10.5 4H20.5ZM10.5 5C9.67157 5 9 5.67157 9 6.5V11.5C9 11.7761 8.77614 12 8.5 12H3.5C2.67157 12 2 12.6716 2 13.5V16.5C2 17.3284 2.67157 18 3.5 18H20.5C21.3284 18 22 17.3284 22 16.5V12H15.5C15.2239 12 15 11.7761 15 11.5V5H10.5ZM16 11H22V6.5C22 5.67157 21.3284 5 20.5 5H16V11Z" fill="black"/>
</svg>
