<svg width="24" height="24" viewBox="0 0 24 24" fill="none" xmlns="http://www.w3.org/2000/svg">
<path fill-rule="evenodd" clip-rule="evenodd" d="M7.5 6C8.88071 6 10 7.11929 10 8.5C10 9.88071 8.88071 11 7.5 11C6.11929 11 5 9.88071 5 8.5C5 7.11929 6.11929 6 7.5 6ZM7.5 7C6.67157 7 6 7.67157 6 8.5C6 9.32843 6.67157 10 7.5 10C8.32843 10 9 9.32843 9 8.5C9 7.67157 8.32843 7 7.5 7Z" fill="black"/>
<path d="M15.5 10C15.7761 10 16 10.2239 16 10.5C16 10.7761 15.7761 11 15.5 11H11.5C11.2239 11 11 10.7761 11 10.5C11 10.2239 11.2239 10 11.5 10H15.5Z" fill="black"/>
<path d="M18.5 8C18.7761 8 19 8.22386 19 8.5C19 8.77614 18.7761 9 18.5 9H11.5C11.2239 9 11 8.77614 11 8.5C11 8.22386 11.2239 8 11.5 8H18.5Z" fill="black"/>
<path d="M18.5 6C18.7761 6 19 6.22386 19 6.5C19 6.77614 18.7761 7 18.5 7H11.5C11.2239 7 11 6.77614 11 6.5C11 6.22386 11.2239 6 11.5 6H18.5Z" fill="black"/>
<path fill-rule="evenodd" clip-rule="evenodd" d="M22.5 2C22.7761 2 23 2.22386 23 2.5C23 2.77614 22.7761 3 22.5 3H22V13.5C22 14.8807 20.8807 16 19.5 16H14.293L18.8359 20.1299L18.9043 20.2051C19.0415 20.3927 19.0324 20.6571 18.8701 20.8359C18.7076 21.0147 18.445 21.0493 18.2451 20.9307L18.1641 20.8701L12.8066 16H12.5V21.5C12.5 21.7761 12.2761 22 12 22C11.7239 22 11.5 21.7761 11.5 21.5V16H11.1934L5.83594 20.8701C5.6316 21.0556 5.31555 21.0402 5.12988 20.8359C4.94441 20.6316 4.95983 20.3155 5.16406 20.1299L9.70703 16H4.5C3.11929 16 2 14.8807 2 13.5V3H1.5C1.22386 3 1 2.77614 1 2.5C1 2.22386 1.22386 2 1.5 2H22.5ZM3 13.5C3 14.3284 3.67157 15 4.5 15H19.5C20.3284 15 21 14.3284 21 13.5V3H3V13.5Z" fill="black"/>
</svg>
