<svg width="24" height="24" viewBox="0 0 24 24" fill="none" xmlns="http://www.w3.org/2000/svg">
<path fill-rule="evenodd" clip-rule="evenodd" d="M15.5977 1.00977C15.6939 1.02894 15.7831 1.07608 15.8535 1.14648L20.8535 6.14648C20.9473 6.24025 21 6.36739 21 6.5V20.5C21 21.8807 19.8807 23 18.5 23H5.5C4.11929 23 3 21.8807 3 20.5V3.5C3 2.11929 4.11929 1 5.5 1H15.5L15.5977 1.00977ZM12 4.08691C12.5823 4.29297 13 4.84707 13 5.5V9.5C13 10.1528 12.5822 10.706 12 10.9121V12H12.5C12.7761 12 13 12.2239 13 12.5C13 12.7761 12.7761 13 12.5 13H12V14H12.5C12.7761 14 13 14.2239 13 14.5C13 14.7761 12.7761 15 12.5 15H12V16H12.5C12.7761 16 13 16.2239 13 16.5C13 16.7761 12.7761 17 12.5 17H12V18H12.5C12.7761 18 13 18.2239 13 18.5C13 18.7761 12.7761 19 12.5 19H12V22H18.5C19.3284 22 20 21.3284 20 20.5V7H17.5C16.1193 7 15 5.88071 15 4.5V2H12V4.08691ZM5.5 2C4.67157 2 4 2.67157 4 3.5V20.5C4 21.3284 4.67157 22 5.5 22H11V20H10.5C10.2239 20 10 19.7761 10 19.5C10 19.2239 10.2239 19 10.5 19H11V18H10.5C10.2239 18 10 17.7761 10 17.5C10 17.2239 10.2239 17 10.5 17H11V16H10.5C10.2239 16 10 15.7761 10 15.5C10 15.2239 10.2239 15 10.5 15H11V14H10.5C10.2239 14 10 13.7761 10 13.5C10 13.2239 10.2239 13 10.5 13H11V10.9121C10.464 10.7223 10.0672 10.2387 10.0078 9.65332L10 9.5V5.5C10 4.84707 10.4177 4.29297 11 4.08691V2H5.5ZM11.5 5C11.2239 5 11 5.22386 11 5.5V9.5L11.0098 9.60059C11.0563 9.82855 11.2583 10 11.5 10C11.7761 10 12 9.77614 12 9.5V5.5C12 5.22386 11.7761 5 11.5 5ZM16 4.5C16 5.32843 16.6716 6 17.5 6H19.293L16 2.70703V4.5Z" fill="black"/>
</svg>
