<svg width="24" height="24" viewBox="0 0 24 24" fill="none" xmlns="http://www.w3.org/2000/svg">
<path fill-rule="evenodd" clip-rule="evenodd" d="M19.5 4C20.3284 4 21 4.67157 21 5.5C21 6.15283 20.5821 6.70595 20 6.91211V17.0869C20.5823 17.293 21 17.8471 21 18.5C21 19.3285 20.3283 19.9999 19.5 20H3.5C2.67157 20 2 19.3284 2 18.5C2 17.8471 2.41766 17.293 3 17.0869V6.91211C2.41782 6.70597 2 6.15281 2 5.5C2 4.67157 2.67157 4 3.5 4H19.5ZM3.5 18C3.22386 18 3 18.2239 3 18.5C3 18.7761 3.22386 19 3.5 19H4V18H3.5ZM5 19H6V18H5V19ZM7 19H8V18H7V19ZM9 19H10V18H9V19ZM11 19H12V18H11V19ZM13 19H14V18H13V19ZM15 19H16V18H15V19ZM17 19H18V18H17V19ZM19 19H19.5C19.7762 18.9999 20 18.776 20 18.5C20 18.2239 19.7761 18 19.5 18H19V19ZM4 7V17H11V7H4ZM12 7V17H19V7H12ZM3.5 5C3.22386 5 3 5.22386 3 5.5C3 5.77614 3.22386 6 3.5 6H4V5H3.5ZM5 6H6V5H5V6ZM7 6H8V5H7V6ZM9 6H10V5H9V6ZM11 6H12V5H11V6ZM13 6H14V5H13V6ZM15 6H16V5H15V6ZM17 6H18V5H17V6ZM19 6H19.5C19.7762 5.99993 20 5.77602 20 5.5C20 5.22386 19.7761 5 19.5 5H19V6Z" fill="black"/>
</svg>
