<svg width="24" height="24" viewBox="0 0 24 24" fill="none" xmlns="http://www.w3.org/2000/svg">
<path fill-rule="evenodd" clip-rule="evenodd" d="M19.3297 2C20.7008 2 21.354 3.68808 20.3395 4.61035L14.5416 9.87988C14.4374 9.97463 14.3786 10.1092 14.3786 10.25V20.5C14.3786 21.3283 13.7068 21.9998 12.8786 22H11.9547C11.1265 21.9998 10.4547 21.3283 10.4547 20.5V10.25C10.4547 10.1092 10.3959 9.97463 10.2916 9.87988L4.49379 4.61035C3.47933 3.68808 4.13252 2 5.50356 2H19.3297ZM5.50356 3C5.04657 3 4.82859 3.56268 5.16664 3.87012L10.9645 9.14062C11.2769 9.42487 11.4547 9.8276 11.4547 10.25V20.5C11.4547 20.776 11.6788 20.9998 11.9547 21H12.8786C13.1545 20.9998 13.3786 20.776 13.3786 20.5V10.25C13.3786 9.82761 13.5564 9.42487 13.8688 9.14062L19.6666 3.87012L19.7233 3.80957C19.9764 3.49446 19.7582 3 19.3297 3H5.50356Z" fill="black"/>
</svg>
