<svg width="24" height="24" viewBox="0 0 24 24" fill="none" xmlns="http://www.w3.org/2000/svg">
<path fill-rule="evenodd" clip-rule="evenodd" d="M7.29883 3C7.86637 3.00009 8.41717 3.19331 8.86035 3.54785L10.6758 5H20.5C21.8807 5 23 6.11929 23 7.5V18.5C23 19.8807 21.8807 21 20.5 21H3.5C2.11929 21 1 19.8807 1 18.5V5.5C1 4.11929 2.11929 3 3.5 3H7.29883ZM9.78125 6.58008C9.3706 6.85384 8.88806 6.99998 8.39453 7H2V18.5C2 19.3284 2.67157 20 3.5 20H20.5C21.3284 20 22 19.3284 22 18.5V7.5C22 6.67157 21.3284 6 20.5 6H10.6514L9.78125 6.58008ZM3.5 4C2.67157 4 2 4.67157 2 5.5V6H8.39453C8.69064 5.99998 8.98018 5.9123 9.22656 5.74805L9.65332 5.46289L8.23535 4.3291C7.96948 4.11641 7.6393 4.00009 7.29883 4H3.5Z" fill="black"/>
</svg>
