<svg width="24" height="24" viewBox="0 0 24 24" fill="none" xmlns="http://www.w3.org/2000/svg">
<path fill-rule="evenodd" clip-rule="evenodd" d="M0 5.5C0 4.11929 1.11929 3 2.5 3H6.29844C6.86612 3 7.41689 3.1932 7.86018 3.54783L9.26452 4.6713C9.53049 4.88408 9.86095 5 10.2016 5H18.5C19.8807 5 21 6.11929 21 7.5V8H21.2639C23.1224 8 24.3311 9.95578 23.5 11.618L20 18.618C19.5765 19.465 18.7109 20 17.7639 20H0.5C0.223858 20 0 19.7761 0 19.5V5.5ZM20 8V7.5C20 6.67157 19.3284 6 18.5 6H10.2016C9.63388 6 9.08311 5.8068 8.63982 5.45217L7.23548 4.3287C6.96951 4.11592 6.63905 4 6.29844 4H2.5C1.67157 4 1 4.67157 1 5.5V17.382L5 9.38197C5.42348 8.53501 6.28914 8 7.23607 8H20ZM1.30902 19H17.7639C18.3321 19 18.8515 18.679 19.1056 18.1708L22.6056 11.1708C23.1042 10.1735 22.379 9 21.2639 9H7.23607C6.66791 9 6.14852 9.321 5.89443 9.82918L1.30902 19Z" fill="black"/>
</svg>
