<svg width="24" height="24" viewBox="0 0 24 24" fill="none" xmlns="http://www.w3.org/2000/svg">
<path fill-rule="evenodd" clip-rule="evenodd" d="M12 3C14.0238 3 15.577 4.9716 15.5771 7.28906C15.5771 8.08784 15.3954 8.83789 15.0771 9.48047L14.9326 9.74902C14.8002 9.97596 14.648 10.1864 14.4814 10.3789C14.6969 10.4974 14.905 10.6296 15.1025 10.7764L15.3691 10.9883C16.6728 12.0868 17.5 13.8001 17.5 15.7109V18.5C17.5 19.8807 16.3807 21 15 21H9C7.61929 21 6.5 19.8807 6.5 18.5V15.7109C6.5 13.6727 7.44072 11.8587 8.89746 10.7764L9.06641 10.6562C9.2121 10.5563 9.36281 10.464 9.51758 10.3789C9.39688 10.2394 9.28374 10.0907 9.18066 9.93262L9.06738 9.74902C8.66009 9.05097 8.42285 8.20189 8.42285 7.28906C8.42304 4.9716 9.97615 3 12 3ZM12 4C10.6996 4 9.42303 5.33554 9.42285 7.28906C9.42285 8.02999 9.61605 8.70432 9.93164 9.24512L10.0186 9.38672C10.1083 9.52432 10.2062 9.65152 10.3105 9.76758L10.3213 9.78027C10.6995 10.201 10.6123 10.8496 10.1602 11.1611L10.0654 11.2188C9.96626 11.2711 9.86864 11.3276 9.77344 11.3877L9.49414 11.5791C8.29882 12.4672 7.5 13.9795 7.5 15.7109V18.5C7.5 19.3284 8.17157 20 9 20H15C15.8284 20 16.5 19.3284 16.5 18.5V15.7109C16.5 14.0878 15.7981 12.6571 14.7256 11.7529L14.5059 11.5791C14.415 11.5116 14.3218 11.4478 14.2266 11.3877L13.9346 11.2188C13.4012 10.937 13.2754 10.2289 13.6787 9.78027L13.6895 9.76758L13.792 9.64844C13.8919 9.52482 13.984 9.38967 14.0684 9.24512L14.1807 9.03613C14.429 8.53469 14.5771 7.93739 14.5771 7.28906C14.577 5.33554 13.3004 4 12 4Z" fill="black"/>
<path d="M4.5 8C5.18798 8 5.78536 8.3698 6.19434 8.9043C6.60375 9.43952 6.8457 10.1617 6.8457 10.9521C6.84563 11.2282 6.6218 11.4521 6.3457 11.4521C6.06981 11.4519 5.84578 11.2281 5.8457 10.9521C5.8457 10.361 5.66447 9.85698 5.40039 9.51172C5.13562 9.16569 4.80935 9 4.5 9C4.19065 9 3.86438 9.16569 3.59961 9.51172C3.33553 9.85698 3.1543 10.361 3.1543 10.9521C3.15432 11.4081 3.26398 11.8183 3.43945 12.1426L3.53809 12.3066C3.57287 12.3583 3.60973 12.4069 3.64746 12.4521L3.65918 12.4668C3.95074 12.8166 3.87958 13.3336 3.52148 13.5947L3.44629 13.6436C3.39179 13.6746 3.33776 13.7074 3.28516 13.7432L3.12988 13.8584C2.46271 14.3931 2 15.3205 2 16.4014V18.5C2 18.7761 2.22386 19 2.5 19H5C5.27614 19 5.5 19.2239 5.5 19.5C5.5 19.7761 5.27614 20 5 20H2.5C1.67157 20 1 19.3284 1 18.5V16.4014C1 15.0432 1.58104 13.8184 2.50488 13.0781L2.72266 12.917C2.7281 12.9133 2.73379 12.9099 2.73926 12.9062C2.72953 12.8924 2.71849 12.8793 2.70898 12.8652L2.55957 12.6182C2.30144 12.141 2.15432 11.5661 2.1543 10.9521C2.1543 10.1617 2.39625 9.43952 2.80566 8.9043C3.21464 8.3698 3.81202 8 4.5 8Z" fill="black"/>
<path d="M19.5 8C20.1878 8.00017 20.7855 8.36992 21.1943 8.9043C21.6037 9.43952 21.8467 10.1617 21.8467 10.9521C21.8467 11.4893 21.7334 11.9965 21.5322 12.4346L21.4404 12.6182C21.3861 12.7186 21.3239 12.8136 21.2598 12.9053C21.3404 12.9594 21.4191 13.0172 21.4951 13.0781L21.665 13.2227C22.4898 13.9722 23 15.1284 23 16.4014V18.5C23 19.3283 22.3282 19.9997 21.5 20H19C18.7241 19.9998 18.5 19.776 18.5 19.5C18.5 19.224 18.7241 19.0002 19 19H21.5C21.7759 18.9997 22 18.776 22 18.5V16.4014C22 15.3881 21.5937 14.5093 20.9932 13.9629L20.8701 13.8584C20.8195 13.8178 20.7676 13.7791 20.7148 13.7432L20.5537 13.6436C20.1318 13.4034 20.0302 12.8398 20.3408 12.4668L20.3535 12.4521L20.4619 12.3066C20.4966 12.2552 20.5294 12.2001 20.5605 12.1426L20.624 12.0166C20.7625 11.7147 20.8467 11.3508 20.8467 10.9521C20.8467 10.361 20.6645 9.85698 20.4004 9.51172C20.1358 9.16587 19.8092 9.00017 19.5 9C19.1909 9.00016 18.8652 9.16602 18.6006 9.51172C18.3364 9.85699 18.1543 10.3608 18.1543 10.9521C18.1542 11.2281 17.9302 11.4519 17.6543 11.4521C17.3782 11.4521 17.1544 11.2282 17.1543 10.9521C17.1543 10.1616 17.3971 9.43955 17.8066 8.9043C18.2155 8.37004 18.8123 8.00016 19.5 8Z" fill="black"/>
</svg>
