<svg width="24" height="24" viewBox="0 0 24 24" fill="none" xmlns="http://www.w3.org/2000/svg">
<path fill-rule="evenodd" clip-rule="evenodd" d="M5.49996 16C5.7761 16 5.99996 16.2238 5.99996 16.5V21.5C5.99996 21.7761 5.7761 22 5.49996 22H2.49996C2.22382 22 1.99996 21.7761 1.99996 21.5V16.5L2.00973 16.3994C2.05625 16.1714 2.25825 16 2.49996 16H5.49996ZM2.99996 21H4.99996V17H2.99996V21Z" fill="black"/>
<path fill-rule="evenodd" clip-rule="evenodd" d="M10.5 11C10.7761 11 11 11.2238 11 11.5V21.5C11 21.7761 10.7761 22 10.5 22H7.49996C7.22382 22 6.99996 21.7761 6.99996 21.5V11.5L7.00973 11.3994C7.05625 11.1714 7.25825 11 7.49996 11H10.5ZM7.99996 21H9.99996V12H7.99996V21Z" fill="black"/>
<path fill-rule="evenodd" clip-rule="evenodd" d="M15.5 13C15.7761 13 16 13.2238 16 13.5V21.5C16 21.7761 15.7761 22 15.5 22H12.5C12.2238 22 12 21.7761 12 21.5V13.5L12.0097 13.3994C12.0563 13.1714 12.2582 13 12.5 13H15.5ZM13 21H15V14H13V21Z" fill="black"/>
<path fill-rule="evenodd" clip-rule="evenodd" d="M20.5 7.99996C20.7761 7.99996 21 8.22382 21 8.49996V21.5C21 21.7761 20.7761 22 20.5 22H17.5C17.2238 22 17 21.7761 17 21.5V8.49996L17.0097 8.39938C17.0563 8.17141 17.2582 7.99996 17.5 7.99996H20.5ZM18 21H20V8.99996H18V21Z" fill="black"/>
<path d="M21.1464 1.14645C21.3417 0.951185 21.6582 0.951185 21.8535 1.14645C22.0487 1.34171 22.0487 1.65822 21.8535 1.85348L13.8535 9.85348C13.6582 10.0487 13.3417 10.0487 13.1464 9.85348L9.49996 6.20699L1.85348 13.8535C1.65822 14.0487 1.34171 14.0487 1.14645 13.8535C0.951185 13.6582 0.951185 13.3417 1.14645 13.1464L9.14645 5.14645L9.22457 5.08199C9.41865 4.95383 9.68261 4.97558 9.85348 5.14645L13.5 8.79293L21.1464 1.14645Z" fill="black"/>
</svg>
