<svg width="24" height="24" viewBox="0 0 24 24" fill="none" xmlns="http://www.w3.org/2000/svg">
<path fill-rule="evenodd" clip-rule="evenodd" d="M2 4.5C2 3.11929 3.11929 2 4.5 2H8.5C9.88071 2 11 3.11929 11 4.5V8.5C11 9.88071 9.88071 11 8.5 11H4.5C3.11929 11 2 9.88071 2 8.5V4.5ZM4.5 3C3.67157 3 3 3.67157 3 4.5V8.5C3 9.32843 3.67157 10 4.5 10H8.5C9.32843 10 10 9.32843 10 8.5V4.5C10 3.67157 9.32843 3 8.5 3H4.5Z" fill="black"/>
<path fill-rule="evenodd" clip-rule="evenodd" d="M13 4.5C13 3.11929 14.1193 2 15.5 2H19.5C20.8807 2 22 3.11929 22 4.5V8.5C22 9.88071 20.8807 11 19.5 11H15.5C14.1193 11 13 9.88071 13 8.5V4.5ZM15.5 3C14.6716 3 14 3.67157 14 4.5V8.5C14 9.32843 14.6716 10 15.5 10H19.5C20.3284 10 21 9.32843 21 8.5V4.5C21 3.67157 20.3284 3 19.5 3H15.5Z" fill="black"/>
<path fill-rule="evenodd" clip-rule="evenodd" d="M2 15.5C2 14.1193 3.11929 13 4.5 13H8.5C9.88071 13 11 14.1193 11 15.5V19.5C11 20.8807 9.88071 22 8.5 22H4.5C3.11929 22 2 20.8807 2 19.5V15.5ZM4.5 14C3.67157 14 3 14.6716 3 15.5V19.5C3 20.3284 3.67157 21 4.5 21H8.5C9.32843 21 10 20.3284 10 19.5V15.5C10 14.6716 9.32843 14 8.5 14H4.5Z" fill="black"/>
<path fill-rule="evenodd" clip-rule="evenodd" d="M13 15.5C13 14.1193 14.1193 13 15.5 13H19.5C20.8807 13 22 14.1193 22 15.5V19.5C22 20.8807 20.8807 22 19.5 22H15.5C14.1193 22 13 20.8807 13 19.5V15.5ZM15.5 14C14.6716 14 14 14.6716 14 15.5V19.5C14 20.3284 14.6716 21 15.5 21H19.5C20.3284 21 21 20.3284 21 19.5V15.5C21 14.6716 20.3284 14 19.5 14H15.5Z" fill="black"/>
</svg>
