<svg width="24" height="24" viewBox="0 0 24 24" fill="none" xmlns="http://www.w3.org/2000/svg">
<path fill-rule="evenodd" clip-rule="evenodd" d="M15.5 2C16.8807 2 18 3.11929 18 4.5V8.5C18 9.88071 16.8807 11 15.5 11H12V13H15.5C16.8807 13 18 14.1193 18 15.5V16H18.5C19.8807 16 21 17.1193 21 18.5V19.5C21 20.8807 19.8807 22 18.5 22H16.5C15.1193 22 14 20.8807 14 19.5V18.5C14 17.1193 15.1193 16 16.5 16H17V15.5C17 14.6716 16.3284 14 15.5 14H7.5C6.67157 14 6 14.6716 6 15.5V16H6.5C7.88071 16 9 17.1193 9 18.5V19.5C9 20.8807 7.88071 22 6.5 22H4.5C3.11929 22 2 20.8807 2 19.5V18.5C2 17.1193 3.11929 16 4.5 16H5V15.5C5 14.1193 6.11929 13 7.5 13H11V11H7.5C6.11929 11 5 9.88071 5 8.5V4.5C5 3.11929 6.11929 2 7.5 2H15.5ZM4.5 17C3.67157 17 3 17.6716 3 18.5V19.5C3 20.3284 3.67157 21 4.5 21H6.5C7.32843 21 8 20.3284 8 19.5V18.5C8 17.6716 7.32843 17 6.5 17H4.5ZM16.5 17C15.6716 17 15 17.6716 15 18.5V19.5C15 20.3284 15.6716 21 16.5 21H18.5C19.3284 21 20 20.3284 20 19.5V18.5C20 17.6716 19.3284 17 18.5 17H16.5ZM7.5 3C6.67157 3 6 3.67157 6 4.5V8.5C6 9.32843 6.67157 10 7.5 10H15.5C16.3284 10 17 9.32843 17 8.5V4.5C17 3.67157 16.3284 3 15.5 3H7.5Z" fill="black"/>
</svg>
