<svg width="24" height="24" viewBox="0 0 24 24" fill="none" xmlns="http://www.w3.org/2000/svg">
<path d="M11.5615 8.50929C12.4995 8.69509 13.3948 9.15231 14.1211 9.87843C16.0737 11.8311 16.0737 14.9971 14.1211 16.9497L10.5859 20.4849C8.63329 22.4375 5.46724 22.4375 3.51462 20.4849C1.56227 18.5322 1.56209 15.3661 3.51462 13.4136L6.69724 10.2319C6.89252 10.0369 7.20909 10.0368 7.40427 10.2319C7.59939 10.4271 7.59928 10.7437 7.40427 10.939L4.22165 14.1216C2.66006 15.6836 2.65997 18.2159 4.22165 19.7778C5.78375 21.3399 8.31678 21.3399 9.87888 19.7778L13.414 16.2427C14.9761 14.6806 14.9761 12.1476 13.414 10.5855C12.8324 10.0039 12.1176 9.63935 11.3681 9.49074C11.0975 9.43715 10.9205 9.1744 10.9736 8.90382C11.0272 8.63301 11.2907 8.45577 11.5615 8.50929Z" fill="black"/>
<path d="M13.414 3.51417C15.3666 1.56169 18.5327 1.56167 20.4853 3.51417C22.4379 5.46676 22.4378 8.63283 20.4853 10.5855L17.3037 13.7671C17.1084 13.9624 16.7909 13.9624 16.5957 13.7671C16.4008 13.5718 16.4006 13.2552 16.5957 13.0601L19.7783 9.87843C21.3403 8.31633 21.3404 5.78327 19.7783 4.22121C18.2162 2.65923 15.6831 2.65925 14.1211 4.22121L10.5859 7.75734C9.02384 9.31941 9.0239 11.8515 10.5859 13.4136C11.1678 13.9954 11.883 14.3607 12.6328 14.5093C12.9033 14.5631 13.0797 14.8256 13.0263 15.0962C12.9727 15.367 12.7093 15.5443 12.4385 15.4907C11.5003 15.3049 10.6052 14.8469 9.87888 14.1206C7.92634 12.168 7.92629 9.0029 9.87888 7.05031L13.414 3.51417Z" fill="black"/>
</svg>
