<svg width="24" height="24" viewBox="0 0 24 24" fill="none" xmlns="http://www.w3.org/2000/svg">
<path fill-rule="evenodd" clip-rule="evenodd" d="M12 2C9.79086 2 8 3.79086 8 6V11C8 13.2091 9.79086 15 12 15C14.2091 15 16 13.2091 16 11V6C16 3.79086 14.2091 2 12 2ZM9 6C9 4.34315 10.3431 3 12 3C13.6569 3 15 4.34315 15 6V11C15 12.6569 13.6569 14 12 14C10.3431 14 9 12.6569 9 11V6Z" fill="black"/>
<path d="M5.5 11C5.77614 11 6 11.2239 6 11.5C6 14.5376 8.46243 17 11.5 17H12.5C15.5376 17 18 14.5376 18 11.5C18 11.2239 18.2239 11 18.5 11C18.7761 11 19 11.2239 19 11.5C19 15.0899 16.0899 18 12.5 18V21H15.5C15.7761 21 16 21.2239 16 21.5C16 21.7761 15.7761 22 15.5 22H8.5C8.22386 22 8 21.7761 8 21.5C8 21.2239 8.22386 21 8.5 21H11.5V18C7.91015 18 5 15.0899 5 11.5C5 11.2239 5.22386 11 5.5 11Z" fill="black"/>
</svg>
