<svg width="24" height="24" viewBox="0 0 24 24" fill="none" xmlns="http://www.w3.org/2000/svg">
<path d="M6.5 15C7.88071 15 9 16.1193 9 17.5V21.5C9 21.7761 8.77614 22 8.5 22C8.22386 22 8 21.7761 8 21.5V17.5C8 16.6716 7.32843 16 6.5 16H2.5C2.22386 16 2 15.7761 2 15.5C2 15.2239 2.22386 15 2.5 15H6.5Z" fill="black"/>
<path d="M21.5 15C21.7761 15 22 15.2239 22 15.5C22 15.7761 21.7761 16 21.5 16H17.5C16.6716 16 16 16.6716 16 17.5V21.5C16 21.7761 15.7761 22 15.5 22C15.2239 22 15 21.7761 15 21.5V17.5C15 16.1193 16.1193 15 17.5 15H21.5Z" fill="black"/>
<path d="M8.5 2C8.77614 2 9 2.22386 9 2.5V6.5C9 7.88071 7.88071 9 6.5 9H2.5C2.22386 9 2 8.77614 2 8.5C2 8.22386 2.22386 8 2.5 8H6.5C7.32843 8 8 7.32843 8 6.5V2.5C8 2.22386 8.22386 2 8.5 2Z" fill="black"/>
<path d="M15.5 2C15.7761 2 16 2.22386 16 2.5V6.5C16 7.32843 16.6716 8 17.5 8H21.5C21.7761 8 22 8.22386 22 8.5C22 8.77614 21.7761 9 21.5 9H17.5C16.1193 9 15 7.88071 15 6.5V2.5C15 2.22386 15.2239 2 15.5 2Z" fill="black"/>
</svg>
