<svg width="24" height="24" viewBox="0 0 24 24" fill="none" xmlns="http://www.w3.org/2000/svg">
<path fill-rule="evenodd" clip-rule="evenodd" d="M13.994 1.18362C14.1275 1.02043 14.349 0.957972 14.5477 1.02835C18.9358 2.5826 22.0809 6.76798 22.0809 11.6905C22.0809 17.9365 17.0174 23 10.7714 23C6.8241 23 3.3496 20.9772 1.32703 17.9141L1.13563 17.6153C1.11581 17.5831 1.08023 17.5219 1.07117 17.5069C0.962504 17.326 0.979656 17.096 1.11316 16.9326C1.24668 16.7695 1.4681 16.707 1.66688 16.7774C2.74307 17.1585 3.9013 17.3672 5.10926 17.3672L5.63953 17.3535C11.0868 17.0775 15.4188 12.5735 15.4188 7.05764C15.4188 5.11858 14.8824 3.30654 13.952 1.75784C13.8434 1.57697 13.8605 1.34701 13.994 1.18362ZM15.4647 2.51272C16.0767 3.90401 16.4188 5.44096 16.4188 7.05764C16.4188 13.1085 11.6668 18.0496 5.69129 18.3526L5.10926 18.3672C4.28407 18.3672 3.47931 18.2786 2.70398 18.1104C4.59347 20.4815 7.50536 22 10.7714 22C16.4651 22 21.0809 17.3842 21.0809 11.6905C21.0809 7.68831 18.7988 4.22072 15.4647 2.51272Z" fill="black"/>
</svg>
