<svg width="24" height="24" viewBox="0 0 24 24" fill="none" xmlns="http://www.w3.org/2000/svg">
<path d="M5.93942 8.54879C6.10094 8.41973 6.33129 8.4514 6.4775 8.59762C6.71041 8.83055 6.61969 9.2431 6.39645 9.48531C6.15049 9.75219 5.99996 10.1083 5.99996 10.5V13.5C6.00005 14.3283 6.67159 15 7.49996 15H9.49996C9.61921 15 9.73457 15.0425 9.82516 15.1201L16 20.4121V19.3281C16 18.8826 16.5385 18.6596 16.8535 18.9746C16.9472 19.0683 17 19.1955 17 19.3281V21.5C16.9999 21.6951 16.8862 21.8725 16.7089 21.9541C16.5317 22.0356 16.323 22.0067 16.1748 21.8798L9.31539 16H7.49996C6.11931 16 5.00005 14.8806 4.99996 13.5V10.5C4.99996 9.71002 5.36708 9.00655 5.93942 8.54879Z" fill="black"/>
<path d="M2.14645 2.14645C2.34171 1.95118 2.65822 1.95118 2.85348 2.14645L21.8535 21.1464C22.0487 21.3417 22.0487 21.6582 21.8535 21.8535C21.6582 22.0487 21.3417 22.0487 21.1464 21.8535L2.14645 2.85348C1.95118 2.65822 1.95118 2.34171 2.14645 2.14645Z" fill="black"/>
<path d="M16.1748 2.12008C16.323 1.99318 16.5316 1.96431 16.7089 2.04586C16.8863 2.12749 17 2.30476 17 2.49996V13.6718C16.9998 14.1171 16.4614 14.3402 16.1464 14.0254C16.0527 13.9316 16 13.8044 16 13.6718V3.58688L10.8095 8.03512C10.6113 8.20503 10.3155 8.19423 10.1308 8.00973C9.92493 7.80384 9.93807 7.46582 10.1591 7.27633L16.1748 2.12008Z" fill="black"/>
</svg>
