<svg width="24" height="24" viewBox="0 0 24 24" fill="none" xmlns="http://www.w3.org/2000/svg">
<path d="M9.29177 11.4135L2.95974 17.7465L2.1365 21.8627L6.25271 21.0395L12.5847 14.7064L13.2927 15.4145L6.8533 21.8539C6.78356 21.9236 6.69409 21.9713 6.59744 21.9906L1.59744 22.9906C1.43384 23.0232 1.26436 22.9717 1.14626 22.8539C1.02829 22.7359 0.977157 22.5664 1.00955 22.4027L2.00955 17.4027L2.02908 17.3314C2.05386 17.2624 2.09399 17.1992 2.14626 17.1469L8.58572 10.7074L9.29177 11.4135Z" fill="black"/>
<path d="M2.14626 2.14688C2.34153 1.95161 2.65803 1.95161 2.8533 2.14688L21.8533 21.1469C22.0483 21.3422 22.0485 21.6587 21.8533 21.8539C21.6581 22.0488 21.3415 22.0488 21.1463 21.8539L2.14626 2.85391C1.95108 2.65873 1.95125 2.34216 2.14626 2.14688Z" fill="black"/>
<path fill-rule="evenodd" clip-rule="evenodd" d="M16.7322 2.56094C17.7085 1.58483 19.2911 1.58483 20.2674 2.56094L21.4392 3.73281C22.4149 4.70913 22.4152 6.29186 21.4392 7.26797L15.4138 13.2934L14.7058 12.5854L18.7927 8.50039L15.4998 5.20742L11.4129 9.29238L10.7068 8.58633L16.7322 2.56094ZM19.5603 3.26797C18.9746 2.68239 18.025 2.68239 17.4392 3.26797L16.2068 4.50039L19.4998 7.79336L20.7322 6.56094C21.3176 5.97535 21.3173 5.02563 20.7322 4.43985L19.5603 3.26797Z" fill="black"/>
</svg>
