<svg width="24" height="24" viewBox="0 0 24 24" fill="none" xmlns="http://www.w3.org/2000/svg">
<path fill-rule="evenodd" clip-rule="evenodd" d="M12.3769 2H11.6231C10.7267 2 10 2.72669 10 3.62311C10 3.89486 9.80682 4.17565 9.47393 4.31721C8.71862 4.63841 7.84172 5.20029 7.156 6.19202C6.46898 7.18562 6 8.57301 6 10.5C6 10.967 6.00675 11.3998 6.01316 11.7992L6.01368 11.8313C6.01992 12.2197 6.02561 12.574 6.02457 12.9034C6.02242 13.5842 5.99102 14.125 5.88783 14.5834C5.78705 15.0312 5.61844 15.3964 5.33805 15.7267C5.0529 16.0626 4.63181 16.3863 3.99162 16.7176C3.41828 17.0143 3 17.6034 3 18.2947C3 19.2365 3.76347 20 4.70526 20H9.55011C9.51724 20.1617 9.5 20.3289 9.5 20.5C9.5 21.8807 10.6193 23 12 23C13.3807 23 14.5 21.8807 14.5 20.5C14.5 20.3289 14.4828 20.1617 14.4499 20H19.2947C20.2365 20 21 19.2365 21 18.2947C21 17.6034 20.5817 17.0143 20.0084 16.7176C19.3682 16.3863 18.9471 16.0626 18.662 15.7267C18.3816 15.3964 18.2129 15.0312 18.1122 14.5834C18.009 14.125 17.9776 13.5842 17.9754 12.9034C17.9744 12.574 17.9801 12.2198 17.9863 11.8315L17.9868 11.7992C17.9932 11.3998 18 10.967 18 10.5C18 8.57301 17.531 7.18562 16.844 6.19202C16.1583 5.20029 15.2814 4.63841 14.5261 4.31721C14.1932 4.17565 14 3.89486 14 3.62311C14 2.72669 13.2733 2 12.3769 2ZM13.4148 20H10.5852C10.5301 20.1561 10.5 20.3242 10.5 20.5C10.5 21.3284 11.1716 22 12 22C12.8284 22 13.5 21.3284 13.5 20.5C13.5 20.3242 13.4699 20.1561 13.4148 20ZM19.2947 19H4.70526C4.31575 19 4 18.6842 4 18.2947C4 18.0218 4.16818 17.7522 4.45123 17.6058C5.16426 17.2368 5.7046 16.8401 6.10042 16.3738C6.50098 15.902 6.73286 15.3831 6.86342 14.803C6.99157 14.2336 7.02236 13.6029 7.02456 12.9065C7.02563 12.5674 7.01981 12.2046 7.01363 11.8202L7.01303 11.7831C7.00662 11.3835 7 10.958 7 10.5C7 8.74067 7.42577 7.56017 7.97852 6.76075C8.53257 5.95944 9.24047 5.50315 9.86526 5.23746C10.4809 4.97567 11 4.38206 11 3.62311C11 3.27897 11.279 3 11.6231 3H12.3769C12.721 3 13 3.27897 13 3.62311C13 4.38206 13.5191 4.97567 14.1347 5.23746C14.7595 5.50315 15.4674 5.95944 16.0215 6.76075C16.5742 7.56017 17 8.74067 17 10.5C17 10.958 16.9934 11.3835 16.987 11.7831L16.9864 11.8201C16.9802 12.2044 16.9744 12.5674 16.9754 12.9065C16.9776 13.6029 17.0084 14.2336 17.1366 14.803C17.2671 15.3831 17.499 15.902 17.8996 16.3738C18.2954 16.8401 18.8357 17.2368 19.5488 17.6058C19.8318 17.7522 20 18.0218 20 18.2947C20 18.6842 19.6842 19 19.2947 19Z" fill="black"/>
</svg>
