<svg width="24" height="24" viewBox="0 0 24 24" fill="none" xmlns="http://www.w3.org/2000/svg">
<path d="M2.14648 2.14645C2.34175 1.95118 2.65825 1.95118 2.85352 2.14645L21.8535 21.1464C22.0488 21.3417 22.0488 21.6582 21.8535 21.8535C21.6583 22.0487 21.3417 22.0487 21.1465 21.8535L2.14648 2.85348C1.95122 2.65822 1.95122 2.34171 2.14648 2.14645Z" fill="black"/>
<path d="M5.63574 8.30758C5.81568 8.16482 6.07196 8.19301 6.23438 8.35543C6.4592 8.58071 6.40706 8.95817 6.16504 9.165C5.46489 9.76317 5.00005 10.653 5 11.7109V12.5C5 12.7761 4.77614 13 4.5 13C3.11929 13 2 14.1192 2 15.5C2 16.8807 3.11929 18 4.5 18H15.6719C15.8045 18 15.9316 18.0527 16.0254 18.1464C16.3403 18.4614 16.1173 18.9999 15.6719 19H4.5C2.567 19 1 17.433 1 15.5C1 13.7367 2.30383 12.2777 4 12.0351V11.7109C4.00005 10.2768 4.65901 9.0825 5.63574 8.30758Z" fill="black"/>
<path d="M15.4268 3.99996C19.6286 4.00015 22.2423 8.4718 20.3223 12.0976C21.8585 12.4675 23 13.8502 23 15.5C23 16.8466 22.239 18.0145 21.124 18.5996C20.9616 18.6848 20.7644 18.6433 20.6348 18.5136C20.384 18.2621 20.508 17.8133 20.8105 17.6269C21.5241 17.1872 22 16.3999 22 15.5C22 14.1192 20.8807 13 19.5 13C19.3182 13 19.1506 12.9011 19.0625 12.7421C18.9746 12.5833 18.98 12.3893 19.0762 12.2353L19.2666 11.9296L19.4316 11.6435C21.0148 8.67167 18.8726 5.00015 15.4268 4.99996C13.6559 4.99996 12.0785 6.02693 11.3389 7.57809C11.2036 7.86167 10.8558 7.99612 10.585 7.83688C10.3812 7.71695 10.2895 7.46739 10.3867 7.25192C11.2679 5.29982 13.2252 3.99996 15.4268 3.99996Z" fill="black"/>
</svg>
