<svg width="24" height="24" viewBox="0 0 24 24" fill="none" xmlns="http://www.w3.org/2000/svg">
<path fill-rule="evenodd" clip-rule="evenodd" d="M12 1C12.0534 1 12.1064 1.00207 12.1592 1.00488C18.1609 1.09004 23 5.97803 23 12C23 13.2848 22.7796 14.5195 22.374 15.667C22.3131 15.8391 22.167 15.9548 22 15.9883V16H21.25C20.9739 16 20.75 15.7761 20.75 15.5C20.75 15.2239 20.9739 15 21.25 15H21.54C21.8375 14.0533 22 13.0462 22 12C22 10.9548 21.8395 9.94706 21.542 9H17.2969C17.4288 9.95514 17.5 10.9618 17.5 12C17.5 12.8805 17.4499 13.737 17.3545 14.5576C17.3226 14.8318 17.074 15.0288 16.7998 14.9971C16.5256 14.9652 16.3286 14.7166 16.3604 14.4424C16.4513 13.6606 16.5 12.8425 16.5 12C16.5 10.9529 16.4247 9.94568 16.2871 9H7.71289C7.5753 9.94568 7.5 10.9529 7.5 12C7.5 13.0471 7.5753 14.0543 7.71289 15H13.75C14.0261 15 14.25 15.2239 14.25 15.5C14.25 15.7761 14.0261 16 13.75 16H7.88574C8.13136 17.2152 8.48423 18.3032 8.91602 19.21C9.80006 21.0663 10.9236 22 12 22C12.2761 22 12.5 22.2239 12.5 22.5C12.5 22.7761 12.2761 23 12 23C11.9463 23 11.8929 22.998 11.8398 22.9951C5.83857 22.9094 1 18.0216 1 12C1 5.97836 5.83857 1.09056 11.8398 1.00488C11.8929 1.00203 11.9463 1 12 1ZM2.83496 16C4.02655 18.7264 6.39719 20.8167 9.30371 21.6289C8.81025 21.0823 8.37587 20.4023 8.0127 19.6396C7.51856 18.602 7.12802 17.3663 6.86719 16H2.83496ZM2.45801 9C2.16055 9.94706 2 10.9548 2 12C2 13.0452 2.16055 14.0529 2.45801 15H6.70312C6.5712 14.0449 6.5 13.0382 6.5 12C6.5 10.9618 6.5712 9.95514 6.70312 9H2.45801ZM9.30371 2.37012C6.39707 3.18225 4.02658 5.27353 2.83496 8H6.86719C7.12802 6.63369 7.51856 5.39805 8.0127 4.36035C8.37599 3.59743 8.81005 2.91684 9.30371 2.37012ZM12 2C10.9236 2 9.80006 2.93369 8.91602 4.79004C8.48423 5.69679 8.13136 6.78482 7.88574 8H16.1143C15.8686 6.78482 15.5158 5.69679 15.084 4.79004C14.1999 2.93369 13.0764 2 12 2ZM14.6953 2.37012C15.1892 2.91692 15.6239 3.5972 15.9873 4.36035C16.4814 5.39805 16.872 6.63369 17.1328 8H21.165C19.9733 5.27324 17.6024 3.18207 14.6953 2.37012Z" fill="black"/>
<path fill-rule="evenodd" clip-rule="evenodd" d="M17.4883 16C19.8911 16.0002 21.9025 17.327 22.9404 19.2637C23.0194 19.4111 23.0194 19.5889 22.9404 19.7363C21.9025 21.673 19.8911 22.9998 17.4883 23C15.0829 22.9999 13.0964 21.6709 12.0596 19.7363C11.9806 19.5889 11.9806 19.4111 12.0596 19.2637C13.0964 17.3291 15.0829 16.0001 17.4883 16ZM17.4883 17C15.5734 17.0001 13.9794 18.0001 13.0762 19.5C13.9794 20.9999 15.5734 21.9999 17.4883 22C17.4905 22 17.4929 21.9991 17.4951 21.999C16.1166 21.9964 15 20.8791 15 19.5C15 18.1209 16.1166 17.0026 17.4951 17C17.4929 17 17.4905 17 17.4883 17ZM17.5225 17.001C18.8927 17.0132 20 18.1269 20 19.5C20 20.8731 18.8927 21.9858 17.5225 21.998C19.4241 21.986 21.0239 20.9889 21.9229 19.5C21.0239 18.0111 19.4241 17.013 17.5225 17.001Z" fill="black"/>
</svg>
