<svg width="24" height="24" viewBox="0 0 24 24" fill="none" xmlns="http://www.w3.org/2000/svg">
<path fill-rule="evenodd" clip-rule="evenodd" d="M8 2C10.1755 2 11.8848 4.0578 11.8848 6.52637C11.8848 7.49436 11.6244 8.39321 11.1787 9.13086C11.029 9.37861 10.8569 9.60723 10.668 9.81543C10.9141 9.94425 11.1507 10.0903 11.376 10.252L11.667 10.4746C13.0908 11.6334 14 13.4455 14 15.4736V19.5C14 20.8807 12.8807 22 11.5 22H4.5C3.11929 22 2 20.8807 2 19.5V15.4736C2.00002 13.3105 3.0342 11.393 4.62402 10.252L4.80859 10.125C4.9773 10.0132 5.1514 9.90949 5.33105 9.81543C5.19246 9.66267 5.06317 9.49878 4.94531 9.32422L4.82129 9.13086C4.37563 8.39322 4.11524 7.49436 4.11523 6.52637C4.11523 4.0578 5.82446 2 8 2ZM8 3C6.51866 3 5.11523 4.45658 5.11523 6.52637C5.11524 7.31557 5.32813 8.03462 5.67773 8.61328L5.77441 8.76465C5.87402 8.91216 5.98247 9.049 6.09863 9.17383L6.10645 9.18262C6.50949 9.61612 6.41889 10.2983 5.94238 10.6182L5.8418 10.6768C5.73143 10.733 5.62342 10.7939 5.51758 10.8584L5.20703 11.0635C3.87965 12.016 3.00002 13.6315 3 15.4736V19.5C3 20.3284 3.67157 21 4.5 21H11.5C12.3284 21 13 20.3284 13 19.5V15.4736C13 13.7465 12.2267 12.219 11.0361 11.25L10.793 11.0635C10.692 10.9911 10.5883 10.9229 10.4824 10.8584L10.1582 10.6768C9.59561 10.39 9.46365 9.64501 9.89355 9.18262L9.90137 9.17383L10.0146 9.04492C10.1257 8.91218 10.2288 8.768 10.3223 8.61328L10.4473 8.38965C10.722 7.85361 10.8848 7.21676 10.8848 6.52637C10.8848 4.45658 9.48134 3 8 3Z" fill="black"/>
<path d="M17.501 7C19.1508 7.00051 20.4619 8.47292 20.4619 10.2549C20.4619 10.8646 20.3096 11.4366 20.043 11.9258L19.9219 12.1299C19.8478 12.2452 19.7655 12.3543 19.6787 12.458C19.7966 12.5231 19.9124 12.592 20.0234 12.667L20.2422 12.8242C21.3106 13.6425 22.001 14.9295 22.001 16.377V19.5C22.001 20.3281 21.329 20.9995 20.501 21H15.501C15.2248 21 15.001 20.7761 15.001 20.5C15.001 20.2239 15.2248 20 15.501 20H20.501C20.7767 19.9995 21.001 19.7759 21.001 19.5V16.377C21.001 15.2554 20.4673 14.2558 19.6348 13.6182L19.4639 13.4961C19.3934 13.4485 19.321 13.4028 19.2471 13.3604L19.0186 13.2412C18.5214 13.0026 18.4037 12.3429 18.7939 11.9482L18.9453 11.7783C18.9929 11.7187 19.0379 11.6555 19.0801 11.5898L19.165 11.4473C19.3517 11.1047 19.4619 10.6972 19.4619 10.2549C19.4619 8.93234 18.51 8.00053 17.501 8C16.4916 8 15.5391 8.93196 15.5391 10.2549C15.5391 10.7603 15.6835 11.2202 15.9209 11.5898L16.0566 11.7783C16.1043 11.838 16.1545 11.8951 16.207 11.9482L16.2744 12.0244C16.5609 12.3963 16.4642 12.9388 16.0713 13.1914L15.9824 13.2412C15.8276 13.3155 15.6784 13.4007 15.5371 13.4961C15.3083 13.6505 14.9973 13.59 14.8428 13.3613C14.6884 13.1325 14.7487 12.8215 14.9775 12.667C15.0884 12.5922 15.2037 12.5229 15.3213 12.458C15.2703 12.3971 15.2205 12.3345 15.1738 12.2695L15.0791 12.1299C14.7382 11.5989 14.5391 10.9516 14.5391 10.2549C14.5391 8.47261 15.8508 7 17.501 7Z" fill="black"/>
</svg>
