<svg width="24" height="24" viewBox="0 0 24 24" fill="none" xmlns="http://www.w3.org/2000/svg">
<path fill-rule="evenodd" clip-rule="evenodd" d="M12 2C14.4836 2 16.5 4.23675 16.5 7C16.5 8.07707 16.1933 9.07445 15.6719 9.89062C15.5324 10.109 15.3775 10.3144 15.209 10.5049L15.0361 10.6904L15.2656 10.8066C15.4935 10.927 15.7137 11.0602 15.9258 11.2041L16.2666 11.4502C17.9289 12.7301 19 14.74 19 17V19.5C19 20.8807 17.8807 22 16.5 22H7.5C6.11929 22 5 20.8807 5 19.5V17C5 14.5891 6.21904 12.4631 8.07422 11.2041L8.28906 11.0635C8.43404 10.9727 8.58252 10.8869 8.73438 10.8066L8.96387 10.6904C8.78642 10.5101 8.62225 10.314 8.47266 10.1045L8.32812 9.89062C7.80674 9.07445 7.5 8.07707 7.5 7C7.5 4.23675 9.51637 2 12 2ZM12 3C10.1619 3 8.5 4.69098 8.5 7C8.5 7.88685 8.75246 8.69755 9.1709 9.35254L9.28613 9.52344C9.40577 9.69105 9.53654 9.84678 9.67676 9.98926L9.75977 10.085C10.1125 10.5453 9.9963 11.2161 9.50879 11.5303L9.39844 11.5918C9.19917 11.6879 9.00576 11.7943 8.81934 11.9111L8.63574 12.0312C7.04315 13.1121 6 14.9343 6 17V19.5C6 20.3284 6.67157 21 7.5 21H16.5C17.3284 21 18 20.3284 18 19.5V17C18 15.0633 17.0832 13.3405 15.6562 12.2422L15.3643 12.0312C15.1826 11.908 14.9938 11.7945 14.7988 11.6914L14.6016 11.5918C13.9843 11.2942 13.8425 10.4777 14.3232 9.98926L14.46 9.84277C14.5936 9.69173 14.7171 9.52779 14.8291 9.35254C15.2475 8.69755 15.5 7.88685 15.5 7C15.5 4.69098 13.8381 3 12 3Z" fill="black"/>
</svg>
