<svg width="23" height="24" viewBox="0 0 23 24" fill="none" xmlns="http://www.w3.org/2000/svg">
<path fill-rule="evenodd" clip-rule="evenodd" d="M14.5 7C15.8807 7 17 8.11929 17 9.5C17 10.8807 15.8807 12 14.5 12C13.1193 12 12 10.8807 12 9.5C12 8.11929 13.1193 7 14.5 7ZM14.5 8C13.6716 8 13 8.67157 13 9.5C13 10.3284 13.6716 11 14.5 11C15.3284 11 16 10.3284 16 9.5C16 8.67157 15.3284 8 14.5 8Z" fill="black"/>
<path fill-rule="evenodd" clip-rule="evenodd" d="M16.5 5C17.8807 5 19 6.11929 19 7.5V19.5C19 20.8807 17.8807 22 16.5 22H4.5C3.11929 22 2 20.8807 2 19.5V7.5C2 6.11929 3.11929 5 4.5 5H16.5ZM9.60547 14.3076C8.31778 12.652 6.92121 12.3528 5.73145 12.5791C4.56985 12.8002 3.55294 13.5342 3 14.1777V19.5C3 20.3284 3.67157 21 4.5 21H16.5C17.3284 21 18 20.3284 18 19.5V16.752C17.6493 16.5137 17.3463 16.4296 17.0811 16.4268C16.7628 16.4234 16.4348 16.5364 16.0791 16.7607C15.7209 16.9868 15.3615 17.3084 14.9863 17.6836C14.8001 17.8698 14.6147 18.0643 14.4258 18.2627C14.2382 18.4596 14.046 18.662 13.8535 18.8545C13.7598 18.948 13.6324 19.001 13.5 19.001C13.329 19.001 13.2076 18.9164 13.1758 18.8945C13.1249 18.8595 13.0809 18.8195 13.0479 18.7871C12.98 18.7206 12.9038 18.6332 12.8242 18.5361C12.6626 18.3389 12.4419 18.0488 12.1621 17.6758C11.5983 16.9241 10.7685 15.803 9.60547 14.3076ZM4.5 6C3.67157 6 3 6.67157 3 7.5V12.8027C3.67499 12.2632 4.55811 11.7844 5.54395 11.5967C7.11239 11.2981 8.88243 11.7493 10.3945 13.6934C11.5645 15.1976 12.4018 16.327 12.9629 17.0752C13.1871 17.3742 13.3649 17.607 13.501 17.7793C13.5664 17.711 13.6345 17.6433 13.7012 17.5732C13.8889 17.3762 14.083 17.1729 14.2793 16.9766C14.6695 16.5863 15.0919 16.2015 15.5459 15.915C16.0026 15.627 16.5187 15.4208 17.0908 15.4268C17.3954 15.43 17.6982 15.4938 18 15.6191V7.5C18 6.67157 17.3284 6 16.5 6H4.5Z" fill="black"/>
<path d="M19.5 2C20.8807 2 22 3.11929 22 4.5V16.5C22 17.3284 21.3284 18 20.5 18C20.2239 18 20 17.7761 20 17.5C20 17.2583 20.1714 17.0563 20.3994 17.0098L20.6006 16.9902C20.8286 16.9437 21 16.7417 21 16.5V4.5C21 3.67157 20.3284 3 19.5 3H7.5C7.25829 3 7.05629 3.17145 7.00977 3.39941L6.99023 3.60059C6.94371 3.82855 6.74171 4 6.5 4C6.22386 4 6 3.77614 6 3.5C6 2.67157 6.67157 2 7.5 2H19.5Z" fill="black"/>
</svg>
