<svg width="24" height="24" viewBox="0 0 24 24" fill="none" xmlns="http://www.w3.org/2000/svg">
<path fill-rule="evenodd" clip-rule="evenodd" d="M11.2666 4.05762C11.4303 3.97125 11.6283 3.98275 11.7812 4.08692L22.7812 11.5869C22.9179 11.6801 23 11.8347 23 12C23 12.1653 22.9179 12.32 22.7812 12.4131L11.7812 19.9131C11.6283 20.0173 11.4303 20.0288 11.2666 19.9424C11.1027 19.8558 11 19.6853 11 19.5V12.9453L0.78125 19.9131C0.628259 20.0173 0.4303 20.0288 0.266602 19.9424C0.102746 19.8558 0 19.6853 0 19.5V4.5C0 4.31467 0.102746 4.14422 0.266602 4.05762C0.4303 3.97125 0.628259 3.98275 0.78125 4.08692L11 11.0537V4.5C11 4.31467 11.1027 4.14422 11.2666 4.05762ZM1 18.5537L10.6133 12L1 5.44531V18.5537ZM12 18.5537L21.6133 12L12 5.44531V18.5537Z" fill="black"/>
</svg>
