<svg width="24" height="24" viewBox="0 0 24 24" fill="none" xmlns="http://www.w3.org/2000/svg">
<path d="M22.5 3C22.7761 3 23 3.22386 23 3.5V20.5C23 20.7761 22.7761 21 22.5 21C22.2239 21 22 20.7761 22 20.5V3.5C22 3.22386 22.2239 3 22.5 3Z" fill="black"/>
<path fill-rule="evenodd" clip-rule="evenodd" d="M11.2764 4.05273C11.4456 3.9681 11.6483 3.98619 11.7998 4.09961L21.7998 11.5996C21.9257 11.694 22 11.8426 22 12C22 12.1574 21.9257 12.306 21.7998 12.4004L11.7998 19.9004C11.6483 20.0138 11.4456 20.0319 11.2764 19.9473C11.107 19.8626 11 19.6894 11 19.5V13L1.7998 19.9004C1.64833 20.0138 1.44564 20.0319 1.27637 19.9473C1.10698 19.8626 1 19.6894 1 19.5V4.5C1 4.31061 1.10698 4.13743 1.27637 4.05273C1.44564 3.9681 1.64833 3.98619 1.7998 4.09961L11 10.999V4.5C11 4.31061 11.107 4.13743 11.2764 4.05273ZM2 18.499L10.667 12L2 5.5V18.499ZM12 18.499L20.667 12L12 5.5V18.499Z" fill="black"/>
</svg>
