<svg width="24" height="24" viewBox="0 0 24 24" fill="none" xmlns="http://www.w3.org/2000/svg">
<path d="M1.5 4C1.77614 4 2 4.22386 2 4.5V21.5C2 21.7761 1.77614 22 1.5 22C1.22386 22 1 21.7761 1 21.5V4.5C1 4.22386 1.22386 4 1.5 4Z" fill="black"/>
<path fill-rule="evenodd" clip-rule="evenodd" d="M22.2002 5.09961C22.3517 4.98619 22.5544 4.9681 22.7236 5.05273C22.893 5.13743 23 5.31061 23 5.5V20.5C23 20.6894 22.893 20.8626 22.7236 20.9473C22.5544 21.0319 22.3517 21.0138 22.2002 20.9004L13 14V20.5C13 20.6894 12.893 20.8626 12.7236 20.9473C12.5544 21.0319 12.3517 21.0138 12.2002 20.9004L2.2002 13.4004C2.07429 13.306 2 13.1574 2 13C2 12.8426 2.07429 12.694 2.2002 12.5996L12.2002 5.09961C12.3517 4.98619 12.5544 4.9681 12.7236 5.05273C12.893 5.13743 13 5.31061 13 5.5V11.999L22.2002 5.09961ZM3.33301 13L12 19.499V6.5L3.33301 13ZM13.333 13L22 19.499V6.5L13.333 13Z" fill="black"/>
</svg>
