<svg width="24" height="24" viewBox="0 0 24 24" fill="none" xmlns="http://www.w3.org/2000/svg">
<path d="M17.5 10C17.7761 10 18 10.2239 18 10.5C18 10.7761 17.7761 11 17.5 11C17.2239 11 17 10.7761 17 10.5C17 10.2239 17.2239 10 17.5 10Z" fill="black"/>
<path fill-rule="evenodd" clip-rule="evenodd" d="M15.5 2C16.8807 2 18 3.11929 18 4.5V6H19.5C20.8807 6 22 7.11929 22 8.5V15.5C22 16.8807 20.8807 18 19.5 18H18V19.5C18 20.8807 16.8807 22 15.5 22H8.5C7.11929 22 6 20.8807 6 19.5V18H4.5C3.11929 18 2 16.8807 2 15.5V8.5C2 7.11929 3.11929 6 4.5 6H6V4.5C6 3.11929 7.11929 2 8.5 2H15.5ZM8.5 16C7.67157 16 7 16.6716 7 17.5V19.5C7 20.3284 7.67157 21 8.5 21H15.5C16.3284 21 17 20.3284 17 19.5V17.5C17 16.6716 16.3284 16 15.5 16H8.5ZM4.5 7C3.67157 7 3 7.67157 3 8.5V15.5C3 16.3284 3.67157 17 4.5 17H6.0498C6.28142 15.8589 7.29051 15 8.5 15H15.5C16.7095 15 17.7186 15.8589 17.9502 17H19.5C20.3284 17 21 16.3284 21 15.5V8.5C21 7.67157 20.3284 7 19.5 7H17.9502C17.7186 8.14114 16.7095 9 15.5 9H8.5C7.29051 9 6.28142 8.14114 6.0498 7H4.5ZM8.5 3C7.67157 3 7 3.67157 7 4.5V6.5C7 7.32843 7.67157 8 8.5 8H15.5C16.3284 8 17 7.32843 17 6.5V4.5C17 3.67157 16.3284 3 15.5 3H8.5Z" fill="black"/>
</svg>
