<svg width="24" height="24" viewBox="0 0 24 24" fill="none" xmlns="http://www.w3.org/2000/svg">
<path fill-rule="evenodd" clip-rule="evenodd" d="M11.8916 3.01177C11.9987 2.988 12.1118 3.00033 12.2129 3.0479L20.7129 7.0479L20.7754 7.08306C20.9142 7.17469 21 7.33058 21 7.50005V17.5001C21 17.6937 20.8881 17.8697 20.7129 17.9522L12.2129 21.9522C12.0781 22.0157 11.9219 22.0157 11.7871 21.9522L3.28711 17.9522C3.11192 17.8697 3 17.6937 3 17.5001V7.50005C3 7.30641 3.11192 7.13039 3.28711 7.0479L11.7871 3.0479L11.8916 3.01177ZM4 17.1827L11.5 20.712V11.8165L4 8.28716V17.1827ZM12.5 11.8165V20.712L20 17.1827V8.28716L12.5 11.8165ZM4.67285 7.50005L12 10.9473L19.3262 7.50005L12 4.05181L4.67285 7.50005Z" fill="black"/>
</svg>
