<svg width="24" height="24" viewBox="0 0 24 24" fill="none" xmlns="http://www.w3.org/2000/svg">
<path fill-rule="evenodd" clip-rule="evenodd" d="M12 1C18.0751 1 23 5.92487 23 12C23 15.963 20.9043 19.4365 17.7627 21.3721C17.5276 21.5169 17.2191 21.4431 17.0742 21.208C17.0247 21.1275 17.0026 21.0383 17.002 20.9502H17C17 15.4543 14.7374 14.3299 13.9688 14.2822C13.7625 14.2693 13.5857 14.1306 13.5234 13.9336C13.4612 13.7363 13.5267 13.5205 13.6885 13.3916C14.4691 12.7691 15 11.716 15 10.5C15 8.5022 13.5962 7 12 7C10.4038 7 9 8.5022 9 10.5C9 11.716 9.53089 12.7691 10.3115 13.3916L9.99902 13.7822L10 13.7832L10.3115 13.3916C10.4733 13.5205 10.5388 13.7363 10.4766 13.9336C10.4143 14.1306 10.2375 14.2693 10.0312 14.2822C9.26258 14.3299 7 15.4543 7 20.9502H6.99805C6.99737 21.0383 6.97535 21.1275 6.92578 21.208C6.78093 21.4431 6.47241 21.5169 6.2373 21.3721C3.09575 19.4365 1 15.963 1 12C1 5.92487 5.92487 1 12 1ZM12 2C6.47715 2 2 6.47715 2 12C2 15.2813 3.58076 18.1936 6.02344 20.0176C6.22251 16.0089 7.70292 14.1491 9.04297 13.5293C8.39113 12.7241 8 11.6584 8 10.5C8 8.07952 9.73023 6 12 6C14.2698 6 16 8.07952 16 10.5C16 11.6586 15.6081 12.7241 14.9561 13.5293C16.2963 14.1487 17.7764 16.0082 17.9756 20.0176C20.4186 18.1936 22 15.2816 22 12C22 6.47715 17.5228 2 12 2Z" fill="black"/>
</svg>
