<svg width="24" height="24" viewBox="0 0 24 24" fill="none" xmlns="http://www.w3.org/2000/svg">
<path d="M16.5 13C16.7761 13 17 13.2239 17 13.5V16H19.5C19.7761 16 20 16.2239 20 16.5C20 16.7761 19.7761 17 19.5 17H16.5C16.2239 17 16 16.7761 16 16.5V13.5C16 13.2239 16.2239 13 16.5 13Z" fill="black"/>
<path fill-rule="evenodd" clip-rule="evenodd" d="M16.5 11C19.5376 11 22 13.4624 22 16.5C22 19.5376 19.5376 22 16.5 22C13.4624 22 11 19.5376 11 16.5C11 13.4624 13.4624 11 16.5 11ZM16.5 12C14.0147 12 12 14.0147 12 16.5C12 18.9853 14.0147 21 16.5 21C18.9853 21 21 18.9853 21 16.5C21 14.0147 18.9853 12 16.5 12Z" fill="black"/>
<path d="M15.5 1C16.8807 1 18 2.11929 18 3.5V9.5C18 9.77614 17.7761 10 17.5 10C17.2239 10 17 9.77614 17 9.5V3.5C17 2.67157 16.3284 2 15.5 2H3.5C2.67157 2 2 2.67157 2 3.5V17.5C2 18.3284 2.67157 19 3.5 19H9.5C9.77614 19 10 19.2239 10 19.5C10 19.7761 9.77614 20 9.5 20H3.5C2.11929 20 1 18.8807 1 17.5V3.5C1 2.11929 2.11929 1 3.5 1H15.5Z" fill="black"/>
<path d="M10 14C10.2761 14 10.5 14.2239 10.5 14.5C10.5 14.7761 10.2761 15 10 15H4.5C4.22386 15 4 14.7761 4 14.5C4 14.2239 4.22386 14 4.5 14H10Z" fill="black"/>
<path d="M14.5 10C14.7761 10 15 10.2239 15 10.5C15 10.7761 14.7761 11 14.5 11H4.5C4.22386 11 4 10.7761 4 10.5C4 10.2239 4.22386 10 4.5 10H14.5Z" fill="black"/>
<path d="M14.5 6C14.7761 6 15 6.22386 15 6.5C15 6.77614 14.7761 7 14.5 7H4.5C4.22386 7 4 6.77614 4 6.5C4 6.22386 4.22386 6 4.5 6H14.5Z" fill="black"/>
</svg>
