<svg width="24" height="24" viewBox="0 0 24 24" fill="none" xmlns="http://www.w3.org/2000/svg">
<path fill-rule="evenodd" clip-rule="evenodd" d="M12 2C13.6569 2 15 3.34315 15 5C15 6.06876 14.4391 7.00376 13.5977 7.53516L18.6777 16.3096C19.0769 16.113 19.5249 16 20 16C21.6569 16 23 17.3431 23 19C23 20.6569 21.6569 22 20 22C18.3431 22 17 20.6569 17 19H7C7 20.6569 5.65685 22 4 22C2.34315 22 1 20.6569 1 19C1 17.3431 2.34315 16 4 16C4.47474 16 4.92227 16.1132 5.32129 16.3096L10.4014 7.53516C9.56032 7.00369 9 6.06846 9 5C9 3.34315 10.3431 2 12 2ZM4 17C2.89543 17 2 17.8954 2 19C2 20.1046 2.89543 21 4 21C5.10457 21 6 20.1046 6 19C6 17.8954 5.10457 17 4 17ZM20 17C18.8954 17 18 17.8954 18 19C18 20.1046 18.8954 21 20 21C21.1046 21 22 20.1046 22 19C22 17.8954 21.1046 17 20 17ZM12.667 7.92285C12.4523 7.97164 12.2295 8 12 8C11.7702 8 11.547 7.97178 11.332 7.92285L6.13672 16.8965C6.44165 17.2062 6.67817 17.5817 6.82617 18H17.1738C17.3218 17.5819 17.5576 17.2061 17.8623 16.8965L12.667 7.92285ZM12 3C10.8954 3 10 3.89543 10 5C10 6.10457 10.8954 7 12 7C13.1046 7 14 6.10457 14 5C14 3.89543 13.1046 3 12 3Z" fill="black"/>
</svg>
