<svg width="24" height="24" viewBox="0 0 24 24" fill="none" xmlns="http://www.w3.org/2000/svg">
<path d="M17.5 18.0002C17.7761 18.0002 18 18.2241 18 18.5002C18 18.7764 17.7761 19.0002 17.5 19.0002H6.5C6.22386 19.0002 6 18.7764 6 18.5002C6 18.2241 6.22386 18.0002 6.5 18.0002H17.5Z" fill="black"/>
<path fill-rule="evenodd" clip-rule="evenodd" d="M18.5 16.0002C19.8807 16.0002 21 17.1195 21 18.5002C21 19.8809 19.8807 21.0002 18.5 21.0002H5.5C4.11929 21.0002 3 19.8809 3 18.5002C3 17.1195 4.11929 16.0002 5.5 16.0002H18.5ZM5.5 17.0002C4.67157 17.0002 4 17.6718 4 18.5002C4 19.3286 4.67157 20.0002 5.5 20.0002H18.5C19.3284 20.0002 20 19.3286 20 18.5002C20 17.6718 19.3284 17.0002 18.5 17.0002H5.5Z" fill="black"/>
<path d="M11.7246 2.08224C11.9187 1.95407 12.1827 1.97583 12.3535 2.14669L16.3535 6.14669L16.418 6.22482C16.5461 6.4189 16.5244 6.68286 16.3535 6.85372C16.1827 7.02459 15.9187 7.04634 15.7246 6.91818L15.6465 6.85372L12.5 3.70724V14.5002C12.5 14.7763 12.2761 15.0002 12 15.0002C11.7239 15.0002 11.5 14.7763 11.5 14.5002V3.70724L8.35352 6.85372C8.15825 7.04899 7.84175 7.04899 7.64648 6.85372C7.45122 6.65846 7.45122 6.34195 7.64648 6.14669L11.6465 2.14669L11.7246 2.08224Z" fill="black"/>
</svg>
