<svg width="24" height="24" viewBox="0 0 24 24" fill="none" xmlns="http://www.w3.org/2000/svg">
<path d="M18.5 8C18.7761 8 19 8.22386 19 8.5C19 8.77614 18.7761 9 18.5 9H17.5C17.2239 9 17 8.77614 17 8.5C17 8.22386 17.2239 8 17.5 8H18.5Z" fill="black"/>
<path fill-rule="evenodd" clip-rule="evenodd" d="M17.5 4C18.3284 4 19 4.67157 19 5.5C19 6.32843 18.3284 7 17.5 7H13.5C12.6716 7 12 6.32843 12 5.5C12 4.67157 12.6716 4 13.5 4H17.5ZM13.5 5C13.2239 5 13 5.22386 13 5.5C13 5.77614 13.2239 6 13.5 6H17.5C17.7761 6 18 5.77614 18 5.5C18 5.22386 17.7761 5 17.5 5H13.5Z" fill="black"/>
<path fill-rule="evenodd" clip-rule="evenodd" d="M18.5 2C19.8807 2 21 3.11929 21 4.5V8.5C21 9.88071 19.8807 11 18.5 11H17V15H21C22.1046 15 23 15.8954 23 17V17.5C23 18.1528 22.5822 18.706 22 18.9121V19.5C22 20.8807 20.8807 22 19.5 22H4.5C3.11929 22 2 20.8807 2 19.5V18.9121C1.41782 18.706 1 18.1528 1 17.5V17C1 15.8954 1.89543 15 3 15H14V11H12.5C11.1193 11 10 9.88071 10 8.5V4.5C10 3.11929 11.1193 2 12.5 2H18.5ZM3 19.5C3 20.3284 3.67157 21 4.5 21H19.5C20.3284 21 21 20.3284 21 19.5V19H3V19.5ZM3 16C2.44772 16 2 16.4477 2 17V17.5C2 17.7761 2.22386 18 2.5 18H21.5C21.7761 18 22 17.7761 22 17.5V17C22 16.4477 21.5523 16 21 16H3ZM15 15H16V11H15V15ZM12.5 3C11.6716 3 11 3.67157 11 4.5V8.5C11 9.32843 11.6716 10 12.5 10H18.5C19.3284 10 20 9.32843 20 8.5V4.5C20 3.67157 19.3284 3 18.5 3H12.5Z" fill="black"/>
</svg>
