<svg width="24" height="24" viewBox="0 0 24 24" fill="none" xmlns="http://www.w3.org/2000/svg">
<path fill-rule="evenodd" clip-rule="evenodd" d="M10.9059 2.12335C11.2538 1.9882 11.6467 1.96906 12.0823 2.04179C12.8368 2.16773 13.2786 2.69745 13.4954 3.33322C13.7047 3.94694 13.7272 4.70533 13.6564 5.46226C13.5433 6.67177 13.1783 8.00873 12.7688 9.03497H18.5C19.8807 9.03497 21 10.1543 21 11.535V12.535C21 12.9453 20.899 13.3494 20.7059 13.7114L17.5059 19.68C17.0714 20.4947 16.2233 21 15.3 21H4.5C3.11929 21 2 19.8807 2 18.5V11.535C2 10.1543 3.11929 9.03497 4.5 9.03497H6.368C8.34461 7.88809 8.90962 6.21965 9.33253 4.76961C9.3517 4.70389 9.37075 4.63801 9.38977 4.57224C9.47637 4.27273 9.5623 3.97557 9.65558 3.70665C9.76957 3.37803 9.90654 3.05436 10.0976 2.7801C10.2938 2.49832 10.5531 2.2604 10.9059 2.12335ZM6 10.035H4.5C3.67157 10.035 3 10.7065 3 11.535V18.5C3 19.3284 3.67157 20 4.5 20H6V10.035ZM7 20H15.3C15.854 20 16.3628 19.6988 16.6235 19.21L19.8235 13.2408C19.9394 13.0236 20 12.7812 20 12.535V11.535C20 10.7065 19.3284 10.035 18.5 10.035H12C11.8267 10.035 11.6658 9.94524 11.5747 9.79784C11.4836 9.65043 11.4753 9.46637 11.5528 9.31138C12.0265 8.36388 12.5306 6.76088 12.6608 5.36914C12.7262 4.6697 12.6918 4.07493 12.549 3.65598C12.4136 3.25907 12.2081 3.07661 11.9177 3.02814C11.6034 2.97567 11.4025 3.00326 11.268 3.0555C11.1384 3.10583 11.0266 3.19596 10.9181 3.35163C10.8045 3.51482 10.7032 3.73799 10.6004 4.03437C10.5165 4.27613 10.4396 4.54183 10.3534 4.83994C10.3336 4.9081 10.3134 4.97795 10.2925 5.0496C9.8643 6.51787 9.22458 8.47265 7 9.82269V20Z" fill="black"/>
</svg>
