<svg width="24" height="24" viewBox="0 0 24 24" fill="none" xmlns="http://www.w3.org/2000/svg">
<path d="M16.1465 7.14645C16.3417 6.95118 16.6583 6.95118 16.8535 7.14645L20.8535 11.1464C21.0488 11.3417 21.0488 11.6582 20.8535 11.8535L16.8535 15.8535L16.7754 15.9179C16.5813 16.0461 16.3173 16.0243 16.1465 15.8535C15.9756 15.6826 15.9539 15.4186 16.082 15.2246L16.1465 15.1464L19.293 12H9.5C6.46243 12 4 14.4624 4 17.5C4 17.7761 3.77614 18 3.5 18C3.22386 18 3 17.7761 3 17.5C3 13.9101 5.91015 11 9.5 11H19.293L16.1465 7.85348C15.9512 7.65822 15.9512 7.34171 16.1465 7.14645Z" fill="black"/>
</svg>
