<svg width="24" height="24" viewBox="0 0 24 24" fill="none" xmlns="http://www.w3.org/2000/svg">
<path d="M17.5 4C17.7761 4 18 4.22386 18 4.5C18 4.77614 17.7761 5 17.5 5H17V19H17.5C17.7761 19 18 19.2239 18 19.5C18 19.7761 17.7761 20 17.5 20H15.5C15.2239 20 15 19.7761 15 19.5C15 19.2239 15.2239 19 15.5 19H16V5H15.5C15.2239 5 15 4.77614 15 4.5C15 4.22386 15.2239 4 15.5 4H17.5Z" fill="black"/>
<path d="M14.5 6C14.7761 6 15 6.22386 15 6.5C15 6.77614 14.7761 7 14.5 7H3.5C2.67157 7 2 7.67157 2 8.5V15.5C2 16.3284 2.67157 17 3.5 17H14.5C14.7761 17 15 17.2239 15 17.5C15 17.7761 14.7761 18 14.5 18H3.5C2.11929 18 1 16.8807 1 15.5V8.5C1 7.11929 2.11929 6 3.5 6H14.5Z" fill="black"/>
<path d="M20.5 6C21.8807 6 23 7.11929 23 8.5V15.5C23 16.8807 21.8807 18 20.5 18H18.5C18.2239 18 18 17.7761 18 17.5C18 17.2239 18.2239 17 18.5 17H20.5C21.3284 17 22 16.3284 22 15.5V8.5C22 7.67157 21.3284 7 20.5 7H18.5C18.2239 7 18 6.77614 18 6.5C18 6.22386 18.2239 6 18.5 6H20.5Z" fill="black"/>
<path d="M14.5 8C14.7761 8 15 8.22386 15 8.5C15 8.77614 14.7761 9 14.5 9H4.5C4.22386 9 4 9.22386 4 9.5V14.5C4 14.7761 4.22386 15 4.5 15H14.5C14.7761 15 15 15.2239 15 15.5C15 15.7761 14.7761 16 14.5 16H4.5C3.67157 16 3 15.3284 3 14.5V9.5C3 8.67157 3.67157 8 4.5 8H14.5Z" fill="black"/>
</svg>
