<svg width="24" height="24" viewBox="0 0 24 24" fill="none" xmlns="http://www.w3.org/2000/svg">
<path fill-rule="evenodd" clip-rule="evenodd" d="M16.5 7C16.7761 7 17 7.22386 17 7.5V18H17.5C17.7761 18 18 18.2239 18 18.5C18 18.7761 17.7761 19 17.5 19H6.5C6.22386 19 6 18.7761 6 18.5C6 18.2239 6.22386 18 6.5 18H7V15.5C7 15.2239 7.22386 15 7.5 15H10V11.5C10 11.2239 10.2239 11 10.5 11H13V7.5L13.0098 7.39941C13.0563 7.17145 13.2583 7 13.5 7H16.5ZM8 18H10V16H8V18ZM11 18H13V12H11V18ZM14 18H16V8H14V18Z" fill="black"/>
<path fill-rule="evenodd" clip-rule="evenodd" d="M18.5 1C19.8807 1 21 2.11929 21 3.5V20.5C21 21.8807 19.8807 23 18.5 23H5.5C4.11929 23 3 21.8807 3 20.5V3.5C3 2.11929 4.11929 1 5.5 1H18.5ZM5.5 2C4.67157 2 4 2.67157 4 3.5V20.5C4 21.3284 4.67157 22 5.5 22H18.5C19.3284 22 20 21.3284 20 20.5V3.5C20 2.67157 19.3284 2 18.5 2H5.5Z" fill="black"/>
</svg>
