<svg width="24" height="24" viewBox="0 0 24 24" fill="none" xmlns="http://www.w3.org/2000/svg">
<path fill-rule="evenodd" clip-rule="evenodd" d="M11.4102 1.1934C11.7861 0.917607 12.309 0.937168 12.6641 1.25199C14.891 3.22743 17.7705 4.33693 20.7686 4.35941H20.9961C21.2678 4.35835 21.5285 4.46813 21.7178 4.66312C21.907 4.85819 22.0083 5.12196 21.999 5.39359C21.7776 11.8904 19.6568 16.232 17.418 18.9786C16.3821 20.2493 15.3206 21.1797 14.4082 21.8243L14.0264 22.083C13.5317 22.4052 13.094 22.6371 12.7461 22.7881C12.5172 22.8875 12.3647 22.9357 12.2813 22.96C12.0985 23.0133 11.9035 23.0133 11.7207 22.96C11.679 22.9478 11.6201 22.9298 11.543 22.9024L11.2559 22.7881C10.9949 22.675 10.6831 22.5174 10.335 22.3096L9.97561 22.085C9.10951 21.522 8.06821 20.6819 7.02834 19.5108L6.58303 18.9883C4.33589 16.2404 2.20933 11.8939 2.001 5.39164C1.99238 5.12116 2.09306 4.85854 2.28127 4.6641C2.46964 4.46962 2.72927 4.35941 3.00002 4.35941H3.23342C6.23139 4.33693 9.11006 3.22731 11.3369 1.25199L11.4102 1.1934ZM12.001 2.00004C9.59321 4.13593 6.48146 5.33511 3.24123 5.35941H3.00002C3.20135 11.643 5.25028 15.7777 7.35744 18.3545C8.47306 19.7188 9.6129 20.6561 10.5205 21.2461C10.9751 21.5416 11.3641 21.7453 11.6543 21.8711C11.8394 21.9514 11.9514 21.9856 12.001 22C12.0507 21.9855 12.1627 21.9514 12.3477 21.8711C12.6378 21.7452 13.0261 21.5411 13.4805 21.2452C14.3879 20.6542 15.5279 19.7154 16.6436 18.3467C18.7432 15.7708 20.786 11.6394 21 5.35941H20.7608C17.5206 5.33511 14.4088 4.13591 12.001 2.00004Z" fill="black"/>
</svg>
