<svg width="24" height="24" viewBox="0 0 24 24" fill="none" xmlns="http://www.w3.org/2000/svg">
<path fill-rule="evenodd" clip-rule="evenodd" d="M11.3032 2.84311C13.2634 0.883019 16.2286 0.537058 18.7105 1.68881C18.8584 1.75753 18.9641 1.89447 18.9927 2.05503C19.0211 2.21575 18.9684 2.38101 18.853 2.49643L15.6421 5.70737V8.35288H18.2925L21.4995 5.14585C21.615 5.03061 21.7803 4.97867 21.9409 5.00717C22.1016 5.03586 22.2376 5.14231 22.3062 5.29038L21.853 5.49936L21.854 5.50034L22.3062 5.29038C23.4531 7.77026 23.1064 10.7299 21.1489 12.6878C19.154 14.6828 16.1215 15.0046 13.6118 13.7787L7.05518 21.0248C5.94684 22.2492 4.03846 22.2961 2.87061 21.1283C1.70325 19.9605 1.75099 18.0529 2.9751 16.9447L10.2163 10.388C8.98611 7.87693 9.30637 4.84005 11.3032 2.84311ZM17.6079 2.32749C15.6293 1.68067 13.4687 2.09176 12.0103 3.55014C10.2733 5.28714 10.0221 8.02155 11.2749 10.2552C11.3889 10.4585 11.3469 10.7139 11.1743 10.8705L3.646 17.6859C2.84574 18.4104 2.81458 19.6577 3.57764 20.4212C4.34114 21.1847 5.58837 21.1533 6.31299 20.3529L13.1294 12.8226L13.1919 12.764C13.3482 12.6419 13.5657 12.6227 13.7437 12.722C15.976 13.97 18.7069 13.7158 20.4419 11.9808C21.8979 10.5245 22.3093 8.36907 21.6665 6.39292L18.853 9.20639C18.7594 9.3 18.6329 9.35367 18.5005 9.35385L15.1421 9.35288C14.866 9.35278 14.6421 9.12896 14.6421 8.85288V5.49936C14.6423 5.36705 14.695 5.23942 14.7886 5.14585L17.6079 2.32749Z" fill="black"/>
</svg>
