<svg width="24" height="24" viewBox="0 0 24 24" fill="none" xmlns="http://www.w3.org/2000/svg">
<path fill-rule="evenodd" clip-rule="evenodd" d="M11.9999 9C10.3431 9 8.99995 10.3431 8.99995 12C8.99995 13.6569 10.3431 15 11.9999 15C13.6568 15 14.9999 13.6569 14.9999 12C14.9999 10.3431 13.6568 9 11.9999 9ZM9.99995 12C9.99995 10.8954 10.8954 10 11.9999 10C13.1045 10 13.9999 10.8954 13.9999 12C13.9999 13.1046 13.1045 14 11.9999 14C10.8954 14 9.99995 13.1046 9.99995 12Z" fill="black"/>
<path fill-rule="evenodd" clip-rule="evenodd" d="M10.9995 1C10.1711 1 9.49952 1.67157 9.49952 2.5V4.92691C8.62136 5.2373 7.81863 5.70636 7.12568 6.29933L5.02214 5.08485C4.3047 4.67064 3.38731 4.91645 2.9731 5.63389L1.97318 7.36579C1.55897 8.08323 1.80479 9.00061 2.52222 9.41483L4.62469 10.6287C4.54245 11.0736 4.49952 11.532 4.49952 12C4.49952 12.468 4.54245 12.9264 4.6247 13.3713L2.5225 14.585C1.80506 14.9993 1.55925 15.9166 1.97346 16.6341L2.97346 18.3661C3.38768 19.0836 4.30506 19.3294 5.0225 18.9152L7.12584 17.7008C7.81876 18.2937 8.62143 18.7627 9.49952 19.0731V21.5C9.49952 22.3284 10.1711 23 10.9995 23H12.9995C13.8279 23 14.4995 22.3284 14.4995 21.5V19.0731C15.3777 18.7627 16.1805 18.2936 16.8735 17.7005L18.977 18.915C19.6944 19.3292 20.6118 19.0834 21.026 18.3659L22.0259 16.634C22.4401 15.9166 22.1943 14.9992 21.4769 14.585L19.3744 13.3711C19.4566 12.9263 19.4995 12.4679 19.4995 12C19.4995 11.5321 19.4566 11.0739 19.3744 10.6291L21.477 9.41518C22.1944 9.00096 22.4402 8.08358 22.026 7.36614L21.026 5.63409C20.6118 4.91665 19.6944 4.67084 18.977 5.08505L16.8735 6.29948C16.1805 5.70644 15.3778 5.23732 14.4995 4.92691V2.5C14.4995 1.67157 13.8279 1 12.9995 1H10.9995ZM10.4995 2.5C10.4995 2.22386 10.7234 2 10.9995 2H12.9995C13.2757 2 13.4995 2.22386 13.4995 2.5V5.28988C13.4995 5.51109 13.6449 5.70601 13.8569 5.76911C14.8449 6.06314 15.735 6.58614 16.4656 7.27721C16.6262 7.4292 16.8676 7.45758 17.0592 7.347L19.477 5.95107C19.7161 5.813 20.0219 5.89494 20.16 6.13409L21.16 7.86614C21.2981 8.10528 21.2161 8.41108 20.977 8.54915L18.5605 9.94432C18.3691 10.0548 18.273 10.2778 18.324 10.4928C18.4387 10.976 18.4995 11.4806 18.4995 12C18.4995 12.5195 18.4387 13.0241 18.324 13.5074C18.2729 13.7224 18.3691 13.9454 18.5604 14.0559L20.9769 15.451C21.216 15.5891 21.298 15.8949 21.1599 16.134L20.16 17.8659C20.0219 18.1051 19.7161 18.187 19.477 18.049L17.0591 16.653C16.8676 16.5424 16.6262 16.5708 16.4655 16.7228C15.735 17.4139 14.8449 17.9369 13.8569 18.2309C13.6449 18.294 13.4995 18.4889 13.4995 18.7101V21.5C13.4995 21.7761 13.2757 22 12.9995 22H10.9995C10.7234 22 10.4995 21.7761 10.4995 21.5V18.7101C10.4995 18.4889 10.3542 18.294 10.1421 18.2309C9.15429 17.9369 8.26425 17.414 7.53377 16.7231C7.37311 16.5711 7.13171 16.5427 6.94019 16.6533L4.5225 18.0492C4.28336 18.1872 3.97756 18.1053 3.83949 17.8661L2.83949 16.1341C2.70142 15.8949 2.78336 15.5891 3.0225 15.4511L5.43866 14.0561C5.63003 13.9456 5.72618 13.7226 5.67513 13.5076C5.56038 13.0243 5.49952 12.5196 5.49952 12C5.49952 11.4805 5.56038 10.9758 5.67513 10.4924C5.72617 10.2774 5.63002 10.0544 5.43865 9.94393L3.02222 8.5488C2.78308 8.41073 2.70114 8.10494 2.83921 7.86579L3.83912 6.13389C3.9772 5.89474 4.28299 5.8128 4.52214 5.95087L6.94003 7.34685C7.13156 7.45742 7.37297 7.42905 7.53363 7.27707C8.26413 6.58607 9.15423 6.06312 10.1421 5.76911C10.3542 5.70601 10.4995 5.51109 10.4995 5.28988V2.5Z" fill="black"/>
</svg>
