<svg width="24" height="24" viewBox="0 0 24 24" fill="none" xmlns="http://www.w3.org/2000/svg">
<path fill-rule="evenodd" clip-rule="evenodd" d="M18 1C16.3431 1 15 2.34315 15 4C15 4.47178 15.1089 4.91813 15.3029 5.31528L7.10967 9.86709C6.56772 9.33101 5.82252 9 5 9C3.34315 9 2 10.3431 2 12C2 13.6569 3.34315 15 5 15C5.82252 15 6.56772 14.669 7.10967 14.1329L15.3029 18.6847C15.1089 19.0819 15 19.5282 15 20C15 21.6569 16.3431 23 18 23C19.6569 23 21 21.6569 21 20C21 18.3431 19.6569 17 18 17C17.1775 17 16.4323 17.331 15.8903 17.8671L7.69706 13.3153C7.8911 12.9181 8 12.4718 8 12C8 11.5282 7.8911 11.0819 7.69706 10.6847L15.8903 6.13291C16.4323 6.66899 17.1775 7 18 7C19.6569 7 21 5.65685 21 4C21 2.34315 19.6569 1 18 1ZM16 4C16 2.89543 16.8954 2 18 2C19.1046 2 20 2.89543 20 4C20 5.10457 19.1046 6 18 6C16.8954 6 16 5.10457 16 4ZM3 12C3 10.8954 3.89543 10 5 10C6.10457 10 7 10.8954 7 12C7 13.1046 6.10457 14 5 14C3.89543 14 3 13.1046 3 12ZM18 18C16.8954 18 16 18.8954 16 20C16 21.1046 16.8954 22 18 22C19.1046 22 20 21.1046 20 20C20 18.8954 19.1046 18 18 18Z" fill="black"/>
</svg>
