<svg width="24" height="24" viewBox="0 0 24 24" fill="none" xmlns="http://www.w3.org/2000/svg">
<path fill-rule="evenodd" clip-rule="evenodd" d="M8.5 3C8.77614 3 9 3.22386 9 3.5C9 3.77614 8.77614 4 8.5 4H7V6H8.5C8.77614 6 9 6.22386 9 6.5C9 6.77614 8.77614 7 8.5 7H7V9H8.5C8.77614 9 9 9.22386 9 9.5C9 9.77614 8.77614 10 8.5 10H5V11.5C5 12.3284 5.67157 13 6.5 13H17.5C18.3284 13 19 12.3284 19 11.5V10H18.5C17.8471 10 17.293 9.58234 17.0869 9H15.3281C14.6652 8.99992 14.0293 8.73635 13.5605 8.26758C12.5844 7.29131 12.5844 5.70869 13.5605 4.73242C14.0293 4.26365 14.6652 4.00008 15.3281 4H17.0869C17.293 3.41766 17.8471 3 18.5 3H20.5C21.8807 3 23 4.11929 23 5.5V17.5C23 18.8807 21.8807 20 20.5 20H3.5C2.11929 20 1 18.8807 1 17.5V5.5C1 4.11929 2.11929 3 3.5 3H8.5ZM2 17.5C2 18.3284 2.67157 19 3.5 19H20.5C21.3284 19 22 18.3284 22 17.5V10H20V11.5C20 12.8807 18.8807 14 17.5 14H6.5C5.11929 14 4 12.8807 4 11.5V10H2V17.5ZM3.5 4C2.67157 4 2 4.67157 2 5.5V9H6V4H3.5ZM18.5 4C18.2239 4 18 4.22386 18 4.5V8.5C18 8.77614 18.2239 9 18.5 9H22V5.5C22 4.67157 21.3284 4 20.5 4H18.5ZM15.3281 5C14.9304 5.00008 14.5488 5.15822 14.2676 5.43945C13.682 6.0252 13.682 6.9748 14.2676 7.56055C14.5488 7.84178 14.9304 7.99992 15.3281 8H17V5H15.3281Z" fill="black"/>
</svg>
