<svg width="24" height="24" viewBox="0 0 24 24" fill="none" xmlns="http://www.w3.org/2000/svg">
<path d="M17.5 1C18.8807 1 20 2.11929 20 3.5V11C20 11.2761 19.7761 11.5 19.5 11.5C19.2239 11.5 19 11.2761 19 11V3.5C19 2.67157 18.3284 2 17.5 2H4.5C3.67157 2 3 2.67157 3 3.5V20.1191L4.61621 18.1797L4.69043 18.1074C4.77188 18.0432 4.87221 18.0058 4.97754 18.001C5.11781 17.9947 5.25422 18.0472 5.35352 18.1465L8 20.793L10.1465 18.6465C10.3417 18.4512 10.6583 18.4512 10.8535 18.6465C11.0488 18.8417 11.0488 19.1583 10.8535 19.3535L8.35352 21.8535C8.15825 22.0488 7.84175 22.0488 7.64648 21.8535L5.0332 19.2402L2.88379 21.8203C2.74903 21.9818 2.52787 22.0413 2.33008 21.9697C2.13214 21.8981 2 21.7105 2 21.5V3.5C2 2.11929 3.11929 1 4.5 1H17.5Z" fill="black"/>
<path d="M16.8691 12.127C18.3936 12.1273 19.8779 12.8508 20.8066 14.1504L20.9971 13.4746C21.0725 13.2092 21.3488 13.0549 21.6143 13.1299C21.8798 13.2051 22.034 13.4815 21.959 13.7471L21.4307 15.6123L21.3945 15.7041C21.3499 15.7913 21.2802 15.8646 21.1934 15.9131C21.0777 15.9776 20.9409 15.994 20.8135 15.958L18.9473 15.4287L18.8545 15.3916C18.6479 15.2847 18.5367 15.044 18.6025 14.8115C18.6685 14.5792 18.8892 14.4329 19.1211 14.4502L19.2197 14.4668L19.9531 14.6748C19.2146 13.6803 18.0584 13.1272 16.8691 13.127C16.2357 13.1269 15.5927 13.2837 14.999 13.6152C13.7421 14.3174 13.0322 15.6215 13.0303 16.9678C13.0295 17.6026 13.1863 18.2468 13.5186 18.8418C14.5531 20.694 16.8939 21.3568 18.7461 20.3223C19.3915 19.9616 19.8918 19.4434 20.2266 18.8428C20.361 18.6019 20.6652 18.5152 20.9062 18.6494C21.1473 18.7837 21.2346 19.088 21.1006 19.3291C20.6781 20.0873 20.0456 20.7415 19.2334 21.1953C16.899 22.4992 13.9494 21.6635 12.6455 19.3291C12.2278 18.581 12.0293 17.7682 12.0303 16.9668C12.0326 15.2732 12.926 13.6279 14.5117 12.7422C15.2582 12.3253 16.0694 12.1269 16.8691 12.127Z" fill="black"/>
<path d="M12 12C12.2761 12 12.5 12.2239 12.5 12.5C12.5 12.7761 12.2761 13 12 13H5.5C5.22386 13 5 12.7761 5 12.5C5 12.2239 5.22386 12 5.5 12H12Z" fill="black"/>
<path d="M16.5 9C16.7761 9 17 9.22386 17 9.5C17 9.77614 16.7761 10 16.5 10H5.5C5.22386 10 5 9.77614 5 9.5C5 9.22386 5.22386 9 5.5 9H16.5Z" fill="black"/>
<path d="M16.5 6C16.7761 6 17 6.22386 17 6.5C17 6.77614 16.7761 7 16.5 7H5.5C5.22386 7 5 6.77614 5 6.5C5 6.22386 5.22386 6 5.5 6H16.5Z" fill="black"/>
</svg>
