<svg width="24" height="24" viewBox="0 0 24 24" fill="none" xmlns="http://www.w3.org/2000/svg">
<path fill-rule="evenodd" clip-rule="evenodd" d="M9.2375 1.00153C9.92649 0.968931 10.5588 1.33333 10.8771 1.91071L10.9406 2.03767L10.9475 2.05231L10.4963 2.23591L10.4846 2.24177L10.9475 2.05231L12.759 6.47224L12.7609 6.47614L12.8107 6.61774C13.0255 7.33315 12.7362 8.12464 12.0617 8.53083L12.0607 8.52985C11.5134 8.87749 10.9316 9.1638 10.3244 9.38142C9.59907 9.64139 9.22387 10.1644 9.32441 10.6509C9.49876 11.4946 9.87044 12.4349 10.4074 13.3482L10.591 13.649C11.0291 14.3404 11.5347 14.9603 12.0588 15.4478L12.1301 15.5064C12.5028 15.7766 13.1073 15.6972 13.6301 15.2125C14.1281 14.7507 14.7523 14.2784 15.3986 14.0523C15.7268 13.9376 16.0845 13.8776 16.4455 13.9361C16.8155 13.9961 17.1552 14.1753 17.4406 14.482L17.468 14.5133L20.4533 18.3052L20.466 18.3209C20.8612 18.8656 20.9078 19.578 20.5998 20.1646L20.5344 20.2799C20.028 21.0901 19.2484 21.8659 18.341 22.3795C17.4903 22.8609 16.4888 23.1314 15.4807 22.9351L15.2785 22.8892L15.2746 22.8883C11.9299 21.9964 8.95682 19.2948 6.93672 16.1216L6.54609 15.481C4.52701 12.0312 3.44617 7.81818 4.40254 4.22517L4.47285 3.99567C4.86226 2.8714 5.81222 2.11509 6.77558 1.6695L7.11641 1.52302C7.90948 1.20788 8.67359 1.06995 9.08516 1.0152H9.08809L9.08906 1.01423L9.2375 1.00153ZM9.21797 2.00544L9.21894 2.00642H9.21699C8.84953 2.05529 8.17533 2.17868 7.48945 2.45075L7.19551 2.57673C6.36727 2.95979 5.68619 3.54964 5.41719 4.32477L5.36836 4.482C4.50456 7.72708 5.4681 11.6609 7.4084 14.9761L7.78437 15.5904C9.71751 18.6254 12.5068 21.1144 15.5285 21.9215L15.6701 21.9537C16.3823 22.0923 17.1387 21.9097 17.8479 21.5084C18.6043 21.0803 19.264 20.4252 19.6857 19.7506L19.7385 19.649C19.8428 19.4085 19.8155 19.1301 19.6574 18.9107L16.6984 15.1529C16.5616 15.0097 16.4239 14.9459 16.2854 14.9234C16.1346 14.8991 15.95 14.9183 15.7287 14.9957C15.2755 15.1542 14.772 15.5173 14.3098 15.9459C13.6232 16.5825 12.4598 16.9875 11.5549 16.3267L11.3771 16.1802C10.7828 15.6273 10.2239 14.9387 9.74531 14.1832L9.54512 13.855C8.96148 12.8623 8.54565 11.8198 8.3459 10.8531C8.09415 9.63477 9.07297 8.76754 9.98652 8.44001C10.528 8.24596 11.0479 7.99186 11.5354 7.68122L11.5461 7.67438L11.6486 7.59919C11.8664 7.40856 11.936 7.10989 11.8342 6.85212L10.0246 2.44099C9.89209 2.15262 9.57202 1.95969 9.21797 2.00544Z" fill="black"/>
</svg>
