<svg width="24" height="24" viewBox="0 0 24 24" fill="none" xmlns="http://www.w3.org/2000/svg">
<path fill-rule="evenodd" clip-rule="evenodd" d="M6.5 5C7.32843 5 8 5.67157 8 6.5C8 7.32843 7.32843 8 6.5 8C5.67157 8 5 7.32843 5 6.5C5 5.67157 5.67157 5 6.5 5ZM6.5 6C6.22386 6 6 6.22386 6 6.5C6 6.77614 6.22386 7 6.5 7C6.77614 7 7 6.77614 7 6.5C7 6.22386 6.77614 6 6.5 6Z" fill="black"/>
<path fill-rule="evenodd" clip-rule="evenodd" d="M9.67188 2C10.3348 2.00008 10.9707 2.26365 11.4395 2.73242L20.4395 11.7324C21.4156 12.7087 21.4156 14.2913 20.4395 15.2676L15.2676 20.4395C14.2913 21.4156 12.7087 21.4156 11.7324 20.4395L2.73242 11.4395C2.26365 10.9707 2.00008 10.3348 2 9.67188V2.5L2.00977 2.39941C2.05629 2.17145 2.25829 2 2.5 2H9.67188ZM3 9.67188C3.00008 10.0696 3.15822 10.4512 3.43945 10.7324L12.4395 19.7324C13.0252 20.318 13.9748 20.318 14.5605 19.7324L19.7324 14.5605C20.318 13.9748 20.318 13.0252 19.7324 12.4395L10.7324 3.43945C10.4512 3.15822 10.0696 3.00008 9.67188 3H3V9.67188Z" fill="black"/>
</svg>
