<svg width="24" height="24" viewBox="0 0 24 24" fill="none" xmlns="http://www.w3.org/2000/svg">
<path d="M18 15C18.5523 15 19 15.4477 19 16V18C19 18.5523 18.5523 19 18 19H16C15.4477 19 15 18.5523 15 18V16C15 15.4477 15.4477 15 16 15H18Z" fill="black"/>
<path fill-rule="evenodd" clip-rule="evenodd" d="M17.5 2C17.7761 2 18 2.22386 18 2.5V3H19.7139L19.9482 3.01172C21.1007 3.12888 22 4.10275 22 5.28613V19.5C22 20.8807 20.8807 22 19.5 22H4.5C3.20566 22 2.14082 21.0164 2.0127 19.7559L2 19.5V5.5C2 4.11929 3.11929 3 4.5 3H6V2.5C6 2.22386 6.22386 2 6.5 2C6.77614 2 7 2.22386 7 2.5V3H17V2.5C17 2.22386 17.2239 2 17.5 2ZM3 19.5L3.00781 19.6533C3.08461 20.4097 3.72334 21 4.5 21H19.5C20.3284 21 21 20.3284 21 19.5V8H3V19.5ZM4.5 4C3.67157 4 3 4.67157 3 5.5V7H21V5.28613C21 4.62043 20.494 4.07267 19.8457 4.00684L19.7139 4H18V5.5C18 5.77614 17.7761 6 17.5 6C17.2239 6 17 5.77614 17 5.5V4H7V5.5C7 5.77614 6.77614 6 6.5 6C6.22386 6 6 5.77614 6 5.5V4H4.5Z" fill="black"/>
</svg>
