<svg width="24" height="24" viewBox="0 0 24 24" fill="none" xmlns="http://www.w3.org/2000/svg">
<path fill-rule="evenodd" clip-rule="evenodd" d="M9.5 2C10.8807 2 12 3.11929 12 4.5C12 5.88071 10.8807 7 9.5 7H7V12H12.0498C12.2814 10.8589 13.2905 10 14.5 10H19.5C20.8807 10 22 11.1193 22 12.5C22 13.8807 20.8807 15 19.5 15H14.5C13.2905 15 12.2814 14.1411 12.0498 13H7V17.5C7 18.3284 7.67157 19 8.5 19H12.0498C12.2814 17.8589 13.2905 17 14.5 17H19.5C20.8807 17 22 18.1193 22 19.5C22 20.8807 20.8807 22 19.5 22H14.5C13.2905 22 12.2814 21.1411 12.0498 20H8.5C7.11929 20 6 18.8807 6 17.5V7H4.5C3.11929 7 2 5.88071 2 4.5C2 3.11929 3.11929 2 4.5 2H9.5ZM14.5 18C13.6716 18 13 18.6716 13 19.5C13 20.3284 13.6716 21 14.5 21H19.5C20.3284 21 21 20.3284 21 19.5C21 18.6716 20.3284 18 19.5 18H14.5ZM14.5 11C13.6716 11 13 11.6716 13 12.5C13 13.3284 13.6716 14 14.5 14H19.5C20.3284 14 21 13.3284 21 12.5C21 11.6716 20.3284 11 19.5 11H14.5ZM4.5 3C3.67157 3 3 3.67157 3 4.5C3 5.32843 3.67157 6 4.5 6H9.5C10.3284 6 11 5.32843 11 4.5C11 3.67157 10.3284 3 9.5 3H4.5Z" fill="black"/>
</svg>
