<svg width="24" height="24" viewBox="0 0 24 24" fill="none" xmlns="http://www.w3.org/2000/svg">
<path d="M2.14645 2.14645C2.34171 1.95118 2.65822 1.95118 2.85348 2.14645L21.8535 21.1464C22.0487 21.3417 22.0487 21.6582 21.8535 21.8535C21.6582 22.0487 21.3417 22.0487 21.1464 21.8535L2.14645 2.85348C1.95118 2.65822 1.95118 2.34171 2.14645 2.14645Z" fill="black"/>
<path d="M7.05074 9.87887C7.24598 9.68359 7.56252 9.68361 7.75777 9.87887C7.95261 10.0741 7.95285 10.3908 7.75777 10.5859L4.22262 14.122C2.66057 15.6841 2.66054 18.2172 4.22262 19.7793C5.78465 21.3404 8.317 21.3407 9.87887 19.7793L13.415 16.2431C13.6102 16.0479 13.9268 16.0479 14.122 16.2431C14.3168 16.4384 14.3171 16.7551 14.122 16.9502L10.5859 20.4863C8.63351 22.4383 5.46814 22.438 3.51559 20.4863C1.56298 18.5337 1.56302 15.3676 3.51559 13.415L7.05074 9.87887Z" fill="black"/>
<path d="M13.415 3.51559C15.3676 1.56308 18.5327 1.56312 20.4853 3.51559C22.4375 5.46824 22.4378 8.6344 20.4853 10.5869L16.9502 14.122C16.7551 14.3171 16.4384 14.3168 16.2431 14.122C16.0479 13.9268 16.0479 13.6102 16.2431 13.415L19.7783 9.87985C21.3402 8.31789 21.34 5.78475 19.7783 4.22262C18.2162 2.66068 15.6841 2.66064 14.122 4.22262L10.5859 7.75777C10.3908 7.95284 10.0741 7.95261 9.87887 7.75777C9.68364 7.56255 9.68368 7.24599 9.87887 7.05074L13.415 3.51559Z" fill="black"/>
</svg>
