<svg width="24" height="24" viewBox="0 0 24 24" fill="none" xmlns="http://www.w3.org/2000/svg">
<path d="M6.8232 9.25875C6.98701 9.22603 7.15621 9.27741 7.27438 9.39547C7.55664 9.67773 7.41082 10.1607 7.01949 10.2392L4.03317 10.8369C3.98155 10.8473 3.93271 10.8729 3.89547 10.9101C3.79164 11.0144 3.79191 11.1836 3.89547 11.288L12.7109 20.1025C12.8153 20.2067 12.9844 20.2067 13.0888 20.1025C13.1259 20.0652 13.1517 20.0173 13.1621 19.9658L13.7588 16.9795C13.8373 16.5877 14.3209 16.441 14.6035 16.7236C14.7217 16.8418 14.7729 17.0118 14.7402 17.1757L14.1435 20.1621C14.0945 20.4071 13.9734 20.6327 13.7968 20.8095C13.3019 21.3045 12.4989 21.3044 12.0039 20.8095L7.94918 16.7558L2.85348 21.8535C2.65823 22.0483 2.34159 22.0485 2.14645 21.8535C1.95172 21.6583 1.95172 21.3416 2.14645 21.1464L7.24215 16.0488L3.18844 11.9951C2.69436 11.5001 2.69409 10.6979 3.18844 10.2031C3.36529 10.0262 3.59165 9.90554 3.83688 9.85641L6.8232 9.25875Z" fill="black"/>
<path d="M2.14645 2.14645C2.34171 1.95118 2.65822 1.95118 2.85348 2.14645L21.8535 21.1464C22.0487 21.3417 22.0487 21.6582 21.8535 21.8535C21.6582 22.0487 21.3417 22.0487 21.1464 21.8535L2.14645 2.85348C1.95118 2.65822 1.95118 2.34171 2.14645 2.14645Z" fill="black"/>
<path d="M13.2539 2.96774C13.8397 2.38232 14.7893 2.38207 15.375 2.96774L21.0312 8.62399C21.617 9.20977 21.617 10.1603 21.0312 10.7461C20.6974 11.0798 20.225 11.2366 19.7578 11.1699L18.0254 10.9228L15.8886 13.0595C15.6934 13.2547 15.3768 13.2547 15.1816 13.0595C14.9863 12.8643 14.9863 12.5477 15.1816 12.3525L17.4961 10.039C17.6073 9.928 17.7652 9.87521 17.9209 9.89742L19.8994 10.1806C20.055 10.2027 20.213 10.1501 20.3242 10.039C20.5194 9.84376 20.5194 9.52628 20.3242 9.33102L14.6679 3.67477C14.4728 3.47963 14.1562 3.47987 13.9609 3.67477C13.8497 3.78601 13.7971 3.94383 13.8193 4.09957L14.1025 6.07809C14.1247 6.23364 14.0718 6.39164 13.9609 6.50289L11.6464 8.81735C11.4512 9.01255 11.1347 9.01246 10.9394 8.81735C10.7442 8.6221 10.7442 8.30556 10.9394 8.11031L13.0771 5.97262L12.8291 4.2402C12.7624 3.77293 12.9201 3.3015 13.2539 2.96774Z" fill="black"/>
</svg>
