<svg width="24" height="24" viewBox="0 0 24 24" fill="none" xmlns="http://www.w3.org/2000/svg">
<path d="M2.14645 2.14645C2.31731 1.97558 2.58127 1.95383 2.77535 2.08199L2.85348 2.14645L21.8535 21.1464L21.9179 21.2246C22.0461 21.4187 22.0243 21.6826 21.8535 21.8535C21.6826 22.0243 21.4187 22.0461 21.2246 21.9179L21.1464 21.8535L2.14645 2.85348L2.08199 2.77535C1.95383 2.58127 1.97558 2.31731 2.14645 2.14645Z" fill="black"/>
<path d="M11.5 14.8281C11.5 14.3827 12.0385 14.1596 12.3535 14.4746C12.4472 14.5683 12.4999 14.6955 12.5 14.8281V19.2929L14.4824 17.3105C14.6776 17.1153 14.9942 17.1153 15.1894 17.3105C15.3846 17.5057 15.3846 17.8223 15.1894 18.0175L12.3535 20.8535C12.1582 21.0486 11.8417 21.0486 11.6464 20.8535L7.64645 16.8535L7.58199 16.7754C7.45393 16.5813 7.47571 16.3173 7.64645 16.1464C7.81727 15.9757 8.08131 15.954 8.27535 16.082L8.35348 16.1464L11.5 19.2929V14.8281Z" fill="black"/>
<path d="M12 2.99996C12.2761 3.00003 12.5 3.22386 12.5 3.49996V9.17184C12.4999 9.6172 11.9614 9.84018 11.6464 9.52535C11.5527 9.4316 11.5 9.30442 11.5 9.17184V3.49996C11.5 3.22389 11.7239 3.00008 12 2.99996Z" fill="black"/>
</svg>
