<svg width="24" height="24" viewBox="0 0 24 24" fill="none" xmlns="http://www.w3.org/2000/svg">
<path d="M2.14645 2.14645C2.31731 1.97558 2.58127 1.95383 2.77535 2.08199L2.85348 2.14645L21.8535 21.1464L21.9179 21.2246C22.0461 21.4187 22.0243 21.6826 21.8535 21.8535C21.6826 22.0243 21.4187 22.0461 21.2246 21.9179L21.1464 21.8535L2.14645 2.85348L2.08199 2.77535C1.95383 2.58127 1.97558 2.31731 2.14645 2.14645Z" fill="black"/>
<path d="M11.5 14.8281C11.5 14.3827 12.0385 14.1596 12.3535 14.4746C12.4472 14.5683 12.5 14.6955 12.5 14.8281V20.5C12.4999 20.7761 12.2761 21 12 21C11.7238 21 11.5 20.7761 11.5 20.5V14.8281Z" fill="black"/>
<path d="M11.6464 3.14645C11.8417 2.95119 12.1582 2.95119 12.3535 3.14645L16.3535 7.14645C16.5487 7.34171 16.5487 7.65823 16.3535 7.85348C16.1582 8.04869 15.8417 8.04869 15.6464 7.85348L12.5 4.70699V9.17184C12.4999 9.61719 11.9614 9.84023 11.6464 9.52535C11.5527 9.43161 11.5 9.30441 11.5 9.17184V4.70699L9.51754 6.68942C9.32231 6.88463 9.00575 6.88463 8.81051 6.68942C8.61528 6.49418 8.61529 6.17763 8.81051 5.98238L11.6464 3.14645Z" fill="black"/>
</svg>
