<svg width="24" height="24" viewBox="0 0 24 24" fill="none" xmlns="http://www.w3.org/2000/svg">
<path d="M12.3536 3.14645C12.1583 2.95118 11.8417 2.95118 11.6464 3.14645L7.64645 7.14645C7.45118 7.34171 7.45118 7.65829 7.64645 7.85355C7.84171 8.04882 8.15829 8.04882 8.35355 7.85355L11.5 4.70711V18.5C11.5 18.7761 11.7239 19 12 19C12.2761 19 12.5 18.7761 12.5 18.5V4.70711L15.6464 7.85355C15.8417 8.04882 16.1583 8.04882 16.3536 7.85355C16.5488 7.65829 16.5488 7.34171 16.3536 7.14645L12.3536 3.14645Z" fill="black"/>
<path d="M4 16.5C4 16.2239 3.77614 16 3.5 16C3.22386 16 3 16.2239 3 16.5V18.5C3 19.8807 4.11929 21 5.5 21H18.5C19.8807 21 21 19.8807 21 18.5V16.5C21 16.2239 20.7761 16 20.5 16C20.2239 16 20 16.2239 20 16.5V18.5C20 19.3284 19.3284 20 18.5 20H5.5C4.67157 20 4 19.3284 4 18.5V16.5Z" fill="black"/>
</svg>
