<svg width="24" height="24" viewBox="0 0 24 24" fill="none" xmlns="http://www.w3.org/2000/svg">
<path d="M9 1C11.4836 1 13.5 3.23675 13.5 6C13.5 7.07707 13.1933 8.07445 12.6719 8.89062C12.5324 9.10898 12.3775 9.31444 12.209 9.50488L12.0361 9.69043L12.2715 9.80957L12.501 9.9375L12.583 9.99609C12.757 10.1505 12.8045 10.4109 12.6836 10.6201C12.5626 10.8291 12.3132 10.9183 12.0928 10.8447L12 10.8027L11.8027 10.6934L11.6016 10.5918C10.9843 10.2942 10.8425 9.47768 11.3232 8.98926L11.46 8.84277C11.5936 8.69173 11.7171 8.52779 11.8291 8.35254C12.2475 7.69755 12.5 6.88685 12.5 6C12.5 3.69098 10.8381 2 9 2C7.16185 2 5.5 3.69098 5.5 6C5.5 6.88685 5.75246 7.69755 6.1709 8.35254L6.28613 8.52344C6.40577 8.69105 6.53654 8.84678 6.67676 8.98926L6.75977 9.08496C7.11252 9.54527 6.9963 10.2161 6.50879 10.5303L6.39844 10.5918C6.19917 10.6879 6.00576 10.7943 5.81934 10.9111L5.63574 11.0312C4.04315 12.1121 3 13.9343 3 16V19.5C3 20.3284 3.67157 21 4.5 21H11.5C11.7761 21 12 21.2239 12 21.5C12 21.7761 11.7761 22 11.5 22H4.5C3.11929 22 2 20.8807 2 19.5V16C2 13.5891 3.21904 11.4631 5.07422 10.2041L5.28906 10.0635C5.43404 9.97266 5.58252 9.88688 5.73438 9.80664L5.96387 9.69043C5.78642 9.5101 5.62225 9.31405 5.47266 9.10449L5.32812 8.89062C4.80674 8.07445 4.5 7.07707 4.5 6C4.5 3.23675 6.51637 1 9 1Z" fill="black"/>
<path d="M18.5 16C18.7761 16 19 16.2239 19 16.5C19 16.7761 18.7761 17 18.5 17H14.5C14.2239 17 14 16.7761 14 16.5C14 16.2239 14.2239 16 14.5 16H18.5Z" fill="black"/>
<path fill-rule="evenodd" clip-rule="evenodd" d="M16.5 11C19.5376 11 22 13.4624 22 16.5C22 19.5376 19.5376 22 16.5 22C13.4624 22 11 19.5376 11 16.5C11 13.4624 13.4624 11 16.5 11ZM16.5 12C14.0147 12 12 14.0147 12 16.5C12 18.9853 14.0147 21 16.5 21C18.9853 21 21 18.9853 21 16.5C21 14.0147 18.9853 12 16.5 12Z" fill="black"/>
</svg>
