<svg width="24" height="24" viewBox="0 0 24 24" fill="none" xmlns="http://www.w3.org/2000/svg">
<path fill-rule="evenodd" clip-rule="evenodd" d="M12.0001 8.5C13.9331 8.5 15.5001 10.067 15.5001 12C15.5001 13.933 13.9331 15.5 12.0001 15.5C10.0671 15.5 8.50012 13.933 8.50012 12C8.50012 10.067 10.0671 8.5 12.0001 8.5ZM12.0001 9.5C10.6194 9.5 9.50012 10.6193 9.50012 12C9.50012 13.3807 10.6194 14.5 12.0001 14.5C13.3808 14.5 14.5001 13.3807 14.5001 12C14.5001 10.6193 13.3808 9.5 12.0001 9.5Z" fill="black"/>
<path fill-rule="evenodd" clip-rule="evenodd" d="M11.9747 5C16.8169 5 20.8585 7.755 22.9435 11.7695C23.0185 11.914 23.0185 12.086 22.9435 12.2305C20.8585 16.245 16.8169 19 11.9747 19C7.13023 19 3.14056 16.2427 1.05676 12.2305C0.981731 12.086 0.981731 11.914 1.05676 11.7695C3.14056 7.75732 7.13023 5.00005 11.9747 5ZM11.9747 6C7.63058 6.00004 4.02615 8.41394 2.0675 12C4.02615 15.5861 7.63058 18 11.9747 18C16.3211 18 19.9722 15.5838 21.9318 12C19.9722 8.41624 16.3211 6 11.9747 6Z" fill="black"/>
</svg>
