<svg width="24" height="24" viewBox="0 0 24 24" fill="none" xmlns="http://www.w3.org/2000/svg">
<path fill-rule="evenodd" clip-rule="evenodd" d="M12.1748 2.12003C12.323 1.99313 12.5317 1.96427 12.709 2.04582C12.8863 2.12743 13 2.30469 13 2.49992V21.4999C13 21.6951 12.8863 21.8724 12.709 21.954C12.5317 22.0356 12.323 22.0067 12.1748 21.8798L5.31543 15.9999H3.5C2.11929 15.9999 1 14.8806 1 13.4999V10.4999C1 9.11921 2.11929 7.99992 3.5 7.99992H5.31543L12.1748 2.12003ZM5.8252 8.8798C5.73461 8.95734 5.61925 8.99992 5.5 8.99992H3.5C2.67157 8.99992 2 9.67149 2 10.4999V13.4999C2 14.3283 2.67157 14.9999 3.5 14.9999H5.5C5.61925 14.9999 5.73461 15.0425 5.8252 15.12L12 20.412V3.58683L5.8252 8.8798Z" fill="black"/>
<path d="M19.0713 4.2216C19.2666 4.02652 19.5831 4.0264 19.7783 4.2216C20.7997 5.24298 21.6103 6.45547 22.1631 7.78996C22.7159 9.12454 23 10.5554 23 11.9999C23 13.4445 22.7159 14.8753 22.1631 16.2099C21.6103 17.5444 20.7997 18.7569 19.7783 19.7782C19.5831 19.9734 19.2666 19.9733 19.0713 19.7782C18.876 19.583 18.876 19.2665 19.0713 19.0712C19.9998 18.1426 20.7367 17.0403 21.2393 15.8271C21.7418 14.6138 22 13.3131 22 11.9999C22 10.6867 21.7418 9.38602 21.2393 8.17277C20.7367 6.95955 19.9998 5.85719 19.0713 4.92863C18.876 4.73337 18.876 4.41686 19.0713 4.2216Z" fill="black"/>
<path d="M16.9502 6.34269C17.1455 6.14784 17.4621 6.14756 17.6572 6.34269C18.4 7.08551 18.9886 7.96786 19.3906 8.93839C19.7927 9.909 20 10.9493 20 11.9999C20 13.0505 19.7927 14.0908 19.3906 15.0614C18.9886 16.032 18.4 16.9143 17.6572 17.6571C17.4621 17.8523 17.1455 17.852 16.9502 17.6571C16.7549 17.4619 16.7549 17.1454 16.9502 16.9501C17.6002 16.3001 18.115 15.5279 18.4668 14.6786C18.8186 13.8293 19 12.9192 19 11.9999C19 11.0807 18.8186 10.1705 18.4668 9.32121C18.115 8.47195 17.6002 7.69972 16.9502 7.04972C16.7549 6.85446 16.7549 6.53795 16.9502 6.34269Z" fill="black"/>
<path d="M14.8281 8.46476C15.0234 8.2695 15.3399 8.2695 15.5352 8.46476C15.9994 8.92905 16.3679 9.4802 16.6191 10.0868C16.8704 10.6934 17 11.3434 17 11.9999C17 12.6565 16.8704 13.3064 16.6191 13.913C16.3679 14.5196 15.9994 15.0708 15.5352 15.5351C15.3399 15.7303 15.0234 15.7303 14.8281 15.5351C14.6332 15.3398 14.633 15.0232 14.8281 14.828C15.1996 14.4566 15.4943 14.0155 15.6953 13.5302C15.8962 13.045 16 12.5251 16 11.9999C16 11.4747 15.8962 10.9549 15.6953 10.4696C15.4943 9.98434 15.1996 9.54323 14.8281 9.17179C14.633 8.97664 14.6332 8.66005 14.8281 8.46476Z" fill="black"/>
</svg>
