<svg width="24" height="24" viewBox="0 0 24 24" fill="none" xmlns="http://www.w3.org/2000/svg">
<path d="M9.5 6C9.77614 6 10 6.22386 10 6.5V9H12.5C12.7761 9 13 9.22386 13 9.5C13 9.77614 12.7761 10 12.5 10H10V12.5C10 12.7761 9.77614 13 9.5 13C9.22386 13 9 12.7761 9 12.5V10H6.5C6.22386 10 6 9.77614 6 9.5C6 9.22386 6.22386 9 6.5 9H9V6.5C9 6.22386 9.22386 6 9.5 6Z" fill="black"/>
<path fill-rule="evenodd" clip-rule="evenodd" d="M9.5 2C13.6421 2 17 5.35786 17 9.5C17 11.3911 16.2985 13.1173 15.1436 14.4365L20.8535 20.1465L20.918 20.2246C21.0461 20.4187 21.0244 20.6827 20.8535 20.8535C20.6827 21.0244 20.4187 21.0461 20.2246 20.918L20.1465 20.8535L14.4365 15.1436C13.1173 16.2985 11.3911 17 9.5 17C5.35786 17 2 13.6421 2 9.5C2 5.35786 5.35786 2 9.5 2ZM9.5 3C5.91015 3 3 5.91015 3 9.5C3 13.0899 5.91015 16 9.5 16C13.0899 16 16 13.0899 16 9.5C16 5.91015 13.0899 3 9.5 3Z" fill="black"/>
</svg>
